<ttFont>
    <TTGlyph name="A" xMin="43" yMin="0" xMax="1460" yMax="1366">
      <contour>
        <pt x="43" y="0" on="1"/>
        <pt x="586" y="1366" on="1"/>
        <pt x="918" y="1366" on="1"/>
        <pt x="1460" y="0" on="1"/>
        <pt x="1081" y="0" on="1"/>
        <pt x="975" y="328" on="1"/>
        <pt x="528" y="328" on="1"/>
        <pt x="422" y="0" on="1"/>
      </contour>
      <contour>
        <pt x="612" y="588" on="1"/>
        <pt x="889" y="588" on="1"/>
        <pt x="752" y="1012" on="1"/>
      </contour>
    </TTGlyph>
    <TTGlyph name="AE" xMin="51" yMin="0" xMax="2077" yMax="1366">
      <contour>
        <pt x="51" y="0" on="1"/>
        <pt x="1012" y="1366" on="1"/>
        <pt x="2077" y="1366" on="1"/>
        <pt x="2077" y="1079" on="1"/>
        <pt x="1477" y="1079" on="1"/>
        <pt x="1477" y="827" on="1"/>
        <pt x="1997" y="827" on="1"/>
        <pt x="1997" y="539" on="1"/>
        <pt x="1477" y="539" on="1"/>
        <pt x="1477" y="289" on="1"/>
        <pt x="2077" y="289" on="1"/>
        <pt x="2077" y="0" on="1"/>
        <pt x="1124" y="0" on="1"/>
        <pt x="1124" y="246" on="1"/>
        <pt x="655" y="246" on="1"/>
        <pt x="487" y="0" on="1"/>
      </contour>
      <contour>
        <pt x="831" y="504" on="1"/>
        <pt x="1124" y="504" on="1"/>
        <pt x="1124" y="932" on="1"/>
      </contour>
    </TTGlyph>
    <TTGlyph name="Aacute" xMin="43" yMin="0" xMax="1460" yMax="1722">
      <contour>
        <pt x="43" y="0" on="1"/>
        <pt x="586" y="1366" on="1"/>
        <pt x="918" y="1366" on="1"/>
        <pt x="1460" y="0" on="1"/>
        <pt x="1081" y="0" on="1"/>
        <pt x="975" y="328" on="1"/>
        <pt x="528" y="328" on="1"/>
        <pt x="422" y="0" on="1"/>
      </contour>
      <contour>
        <pt x="612" y="588" on="1"/>
        <pt x="889" y="588" on="1"/>
        <pt x="752" y="1012" on="1"/>
      </contour>
      <contour>
        <pt x="659" y="1483" on="1"/>
        <pt x="786" y="1722" on="1"/>
        <pt x="1026" y="1722" on="1"/>
        <pt x="836" y="1483" on="1"/>
      </contour>
    </TTGlyph>
    <TTGlyph name="Acircumflex" xMin="43" yMin="0" xMax="1460" yMax="1733">
      <contour>
        <pt x="43" y="0" on="1"/>
        <pt x="586" y="1366" on="1"/>
        <pt x="918" y="1366" on="1"/>
        <pt x="1460" y="0" on="1"/>
        <pt x="1081" y="0" on="1"/>
        <pt x="975" y="328" on="1"/>
        <pt x="528" y="328" on="1"/>
        <pt x="422" y="0" on="1"/>
      </contour>
      <contour>
        <pt x="457" y="1483" on="1"/>
        <pt x="702" y="1733" on="1"/>
        <pt x="801" y="1733" on="1"/>
        <pt x="1047" y="1483" on="1"/>
        <pt x="838" y="1483" on="1"/>
        <pt x="752" y="1573" on="1"/>
        <pt x="666" y="1483" on="1"/>
      </contour>
      <contour>
        <pt x="612" y="588" on="1"/>
        <pt x="889" y="588" on="1"/>
        <pt x="752" y="1012" on="1"/>
      </contour>
    </TTGlyph>
    <TTGlyph name="Adieresis" xMin="43" yMin="0" xMax="1460" yMax="1706">
      <contour>
        <pt x="43" y="0" on="1"/>
        <pt x="586" y="1366" on="1"/>
        <pt x="918" y="1366" on="1"/>
        <pt x="1460" y="0" on="1"/>
        <pt x="1081" y="0" on="1"/>
        <pt x="975" y="328" on="1"/>
        <pt x="528" y="328" on="1"/>
        <pt x="422" y="0" on="1"/>
      </contour>
      <contour>
        <pt x="455" y="1483" on="1"/>
        <pt x="455" y="1706" on="1"/>
        <pt x="700" y="1706" on="1"/>
        <pt x="700" y="1483" on="1"/>
      </contour>
      <contour>
        <pt x="612" y="588" on="1"/>
        <pt x="889" y="588" on="1"/>
        <pt x="752" y="1012" on="1"/>
      </contour>
      <contour>
        <pt x="803" y="1483" on="1"/>
        <pt x="803" y="1706" on="1"/>
        <pt x="1049" y="1706" on="1"/>
        <pt x="1049" y="1483" on="1"/>
      </contour>
    </TTGlyph>
    <TTGlyph name="Agrave" xMin="43" yMin="0" xMax="1460" yMax="1722">
      <contour>
        <pt x="43" y="0" on="1"/>
        <pt x="586" y="1366" on="1"/>
        <pt x="918" y="1366" on="1"/>
        <pt x="1460" y="0" on="1"/>
        <pt x="1081" y="0" on="1"/>
        <pt x="975" y="328" on="1"/>
        <pt x="528" y="328" on="1"/>
        <pt x="422" y="0" on="1"/>
      </contour>
      <contour>
        <pt x="477" y="1722" on="1"/>
        <pt x="717" y="1722" on="1"/>
        <pt x="844" y="1483" on="1"/>
        <pt x="668" y="1483" on="1"/>
      </contour>
      <contour>
        <pt x="612" y="588" on="1"/>
        <pt x="889" y="588" on="1"/>
        <pt x="752" y="1012" on="1"/>
      </contour>
    </TTGlyph>
    <TTGlyph name="Aring" xMin="43" yMin="0" xMax="1460" yMax="1794">
      <contour>
        <pt x="43" y="0" on="1"/>
        <pt x="586" y="1366" on="1"/>
        <pt x="918" y="1366" on="1"/>
        <pt x="1460" y="0" on="1"/>
        <pt x="1081" y="0" on="1"/>
        <pt x="975" y="328" on="1"/>
        <pt x="528" y="328" on="1"/>
        <pt x="422" y="0" on="1"/>
      </contour>
      <contour>
        <pt x="573" y="1534" on="0"/>
        <pt x="573" y="1702" on="0"/>
        <pt x="668" y="1794" on="0"/>
        <pt x="752" y="1794" on="1"/>
        <pt x="838" y="1794" on="0"/>
        <pt x="930" y="1702" on="0"/>
        <pt x="930" y="1534" on="0"/>
        <pt x="838" y="1442" on="0"/>
        <pt x="752" y="1442" on="1"/>
        <pt x="668" y="1442" on="0"/>
      </contour>
      <contour>
        <pt x="612" y="588" on="1"/>
        <pt x="889" y="588" on="1"/>
        <pt x="752" y="1012" on="1"/>
      </contour>
      <contour>
        <pt x="700" y="1618" on="1"/>
        <pt x="700" y="1581" on="0"/>
        <pt x="723" y="1554" on="0"/>
        <pt x="780" y="1554" on="0"/>
        <pt x="803" y="1581" on="0"/>
        <pt x="803" y="1618" on="1"/>
        <pt x="803" y="1681" on="0"/>
        <pt x="700" y="1681" on="0"/>
      </contour>
    </TTGlyph>
    <TTGlyph name="Atilde" xMin="43" yMin="0" xMax="1460" yMax="1746">
      <contour>
        <pt x="43" y="0" on="1"/>
        <pt x="586" y="1366" on="1"/>
        <pt x="918" y="1366" on="1"/>
        <pt x="1460" y="0" on="1"/>
        <pt x="1081" y="0" on="1"/>
        <pt x="975" y="328" on="1"/>
        <pt x="528" y="328" on="1"/>
        <pt x="422" y="0" on="1"/>
      </contour>
      <contour>
        <pt x="440" y="1497" on="1"/>
        <pt x="440" y="1671" on="1"/>
        <pt x="497" y="1739" on="0"/>
        <pt x="564" y="1745" on="1"/>
        <pt x="575" y="1746" on="0"/>
        <pt x="586" y="1746" on="1"/>
        <pt x="641" y="1746" on="0"/>
        <pt x="692" y="1720" on="1"/>
        <pt x="813" y="1660" on="1"/>
        <pt x="864" y="1635" on="0"/>
        <pt x="918" y="1635" on="1"/>
        <pt x="929" y="1635" on="0"/>
        <pt x="940" y="1636" on="1"/>
        <pt x="1006" y="1642" on="0"/>
        <pt x="1063" y="1710" on="1"/>
        <pt x="1063" y="1536" on="1"/>
        <pt x="1006" y="1468" on="0"/>
        <pt x="940" y="1462" on="1"/>
        <pt x="929" y="1461" on="0"/>
        <pt x="918" y="1461" on="1"/>
        <pt x="864" y="1461" on="0"/>
        <pt x="813" y="1486" on="1"/>
        <pt x="692" y="1546" on="1"/>
        <pt x="641" y="1572" on="0"/>
        <pt x="586" y="1572" on="1"/>
        <pt x="575" y="1572" on="0"/>
        <pt x="564" y="1571" on="1"/>
        <pt x="498" y="1565" on="0"/>
      </contour>
      <contour>
        <pt x="612" y="588" on="1"/>
        <pt x="889" y="588" on="1"/>
        <pt x="752" y="1012" on="1"/>
      </contour>
    </TTGlyph>
    <TTGlyph name="B" xMin="178" yMin="0" xMax="1249" yMax="1366">
      <contour>
        <pt x="178" y="0" on="1"/>
        <pt x="178" y="1366" on="1"/>
        <pt x="641" y="1366" on="1"/>
        <pt x="1182" y="1366" on="0"/>
        <pt x="1182" y="983" on="1"/>
        <pt x="1182" y="917" on="0"/>
        <pt x="1139" y="817" on="0"/>
        <pt x="1063" y="758" on="0"/>
        <pt x="1010" y="731" on="0"/>
        <pt x="975" y="719" on="1"/>
        <pt x="1249" y="641" on="0"/>
        <pt x="1249" y="377" on="1"/>
        <pt x="1249" y="0" on="0"/>
        <pt x="682" y="0" on="1"/>
      </contour>
      <contour>
        <pt x="530" y="289" on="1"/>
        <pt x="731" y="289" on="1"/>
        <pt x="735" y="289" on="0"/>
        <pt x="738" y="289" on="1"/>
        <pt x="807" y="288" on="0"/>
        <pt x="856" y="324" on="1"/>
        <pt x="907" y="362" on="0"/>
        <pt x="907" y="514" on="0"/>
        <pt x="793" y="584" on="0"/>
        <pt x="725" y="584" on="1"/>
        <pt x="530" y="584" on="1"/>
      </contour>
      <contour>
        <pt x="530" y="831" on="1"/>
        <pt x="711" y="831" on="1"/>
        <pt x="760" y="831" on="0"/>
        <pt x="840" y="893" on="0"/>
        <pt x="840" y="946" on="1"/>
        <pt x="840" y="1016" on="0"/>
        <pt x="748" y="1079" on="0"/>
        <pt x="690" y="1079" on="1"/>
        <pt x="530" y="1079" on="1"/>
      </contour>
    </TTGlyph>
    <TTGlyph name="C" xMin="125" yMin="-14" xMax="1204" yMax="1382">
      <contour>
        <pt x="125" y="477" on="0"/>
        <pt x="125" y="891" on="0"/>
        <pt x="240" y="1180" on="0"/>
        <pt x="436" y="1323" on="0"/>
        <pt x="643" y="1382" on="0"/>
        <pt x="766" y="1382" on="1"/>
        <pt x="963" y="1382" on="0"/>
        <pt x="1204" y="1286" on="1"/>
        <pt x="1204" y="981" on="1"/>
        <pt x="999" y="1079" on="0"/>
        <pt x="786" y="1079" on="1"/>
        <pt x="645" y="1079" on="0"/>
        <pt x="477" y="907" on="0"/>
        <pt x="477" y="461" on="0"/>
        <pt x="645" y="289" on="0"/>
        <pt x="786" y="289" on="1"/>
        <pt x="999" y="289" on="0"/>
        <pt x="1204" y="387" on="1"/>
        <pt x="1204" y="82" on="1"/>
        <pt x="962" y="-14" on="0"/>
        <pt x="766" y="-14" on="1"/>
        <pt x="643" y="-14" on="0"/>
        <pt x="436" y="45" on="0"/>
        <pt x="240" y="188" on="0"/>
      </contour>
    </TTGlyph>
    <TTGlyph name="Ccedilla" xMin="125" yMin="-250" xMax="1204" yMax="1382">
      <contour>
        <pt x="125" y="684" on="1"/>
        <pt x="125" y="891" on="0"/>
        <pt x="240" y="1180" on="0"/>
        <pt x="436" y="1323" on="0"/>
        <pt x="643" y="1382" on="0"/>
        <pt x="766" y="1382" on="1"/>
        <pt x="963" y="1382" on="0"/>
        <pt x="1204" y="1286" on="1"/>
        <pt x="1204" y="981" on="1"/>
        <pt x="999" y="1079" on="0"/>
        <pt x="786" y="1079" on="1"/>
        <pt x="645" y="1079" on="0"/>
        <pt x="477" y="907" on="0"/>
        <pt x="477" y="461" on="0"/>
        <pt x="645" y="289" on="0"/>
        <pt x="786" y="289" on="1"/>
        <pt x="999" y="289" on="0"/>
        <pt x="1204" y="387" on="1"/>
        <pt x="1204" y="82" on="1"/>
        <pt x="1009" y="4" on="0"/>
        <pt x="848" y="-10" on="1"/>
        <pt x="723" y="-250" on="1"/>
        <pt x="483" y="-250" on="1"/>
        <pt x="672" y="-10" on="1"/>
        <pt x="563" y="0" on="0"/>
        <pt x="381" y="76" on="0"/>
        <pt x="217" y="225" on="0"/>
        <pt x="125" y="498" on="0"/>
      </contour>
    </TTGlyph>
    <TTGlyph name="D" xMin="178" yMin="0" xMax="1319" yMax="1366">
      <contour>
        <pt x="178" y="0" on="1"/>
        <pt x="178" y="1366" on="1"/>
        <pt x="670" y="1366" on="1"/>
        <pt x="987" y="1366" on="0"/>
        <pt x="1319" y="1018" on="0"/>
        <pt x="1319" y="682" on="1"/>
        <pt x="1319" y="348" on="0"/>
        <pt x="987" y="0" on="0"/>
        <pt x="670" y="0" on="1"/>
      </contour>
      <contour>
        <pt x="530" y="289" on="1"/>
        <pt x="670" y="289" on="1"/>
        <pt x="967" y="289" on="0"/>
        <pt x="967" y="682" on="1"/>
        <pt x="967" y="1079" on="0"/>
        <pt x="670" y="1079" on="1"/>
        <pt x="530" y="1079" on="1"/>
      </contour>
    </TTGlyph>
    <TTGlyph name="E" xMin="178" yMin="0" xMax="1130" yMax="1366">
      <contour>
        <pt x="178" y="0" on="1"/>
        <pt x="178" y="1366" on="1"/>
        <pt x="1130" y="1366" on="1"/>
        <pt x="1130" y="1079" on="1"/>
        <pt x="530" y="1079" on="1"/>
        <pt x="530" y="827" on="1"/>
        <pt x="1051" y="827" on="1"/>
        <pt x="1051" y="539" on="1"/>
        <pt x="530" y="539" on="1"/>
        <pt x="530" y="289" on="1"/>
        <pt x="1130" y="289" on="1"/>
        <pt x="1130" y="0" on="1"/>
      </contour>
    </TTGlyph>
    <TTGlyph name="Eacute" xMin="178" yMin="0" xMax="1130" yMax="1722">
      <contour>
        <pt x="178" y="0" on="1"/>
        <pt x="178" y="1366" on="1"/>
        <pt x="1130" y="1366" on="1"/>
        <pt x="1130" y="1079" on="1"/>
        <pt x="530" y="1079" on="1"/>
        <pt x="530" y="827" on="1"/>
        <pt x="1051" y="827" on="1"/>
        <pt x="1051" y="539" on="1"/>
        <pt x="530" y="539" on="1"/>
        <pt x="530" y="289" on="1"/>
        <pt x="1130" y="289" on="1"/>
        <pt x="1130" y="0" on="1"/>
      </contour>
      <contour>
        <pt x="561" y="1483" on="1"/>
        <pt x="688" y="1722" on="1"/>
        <pt x="928" y="1722" on="1"/>
        <pt x="737" y="1483" on="1"/>
      </contour>
    </TTGlyph>
    <TTGlyph name="Ecircumflex" xMin="178" yMin="0" xMax="1130" yMax="1733">
      <contour>
        <pt x="178" y="0" on="1"/>
        <pt x="178" y="1366" on="1"/>
        <pt x="1130" y="1366" on="1"/>
        <pt x="1130" y="1079" on="1"/>
        <pt x="530" y="1079" on="1"/>
        <pt x="530" y="827" on="1"/>
        <pt x="1051" y="827" on="1"/>
        <pt x="1051" y="539" on="1"/>
        <pt x="530" y="539" on="1"/>
        <pt x="530" y="289" on="1"/>
        <pt x="1130" y="289" on="1"/>
        <pt x="1130" y="0" on="1"/>
      </contour>
      <contour>
        <pt x="375" y="1483" on="1"/>
        <pt x="621" y="1733" on="1"/>
        <pt x="719" y="1733" on="1"/>
        <pt x="965" y="1483" on="1"/>
        <pt x="756" y="1483" on="1"/>
        <pt x="670" y="1573" on="1"/>
        <pt x="584" y="1483" on="1"/>
      </contour>
    </TTGlyph>
    <TTGlyph name="Edieresis" xMin="178" yMin="0" xMax="1130" yMax="1706">
      <contour>
        <pt x="178" y="0" on="1"/>
        <pt x="178" y="1366" on="1"/>
        <pt x="1130" y="1366" on="1"/>
        <pt x="1130" y="1079" on="1"/>
        <pt x="530" y="1079" on="1"/>
        <pt x="530" y="827" on="1"/>
        <pt x="1051" y="827" on="1"/>
        <pt x="1051" y="539" on="1"/>
        <pt x="530" y="539" on="1"/>
        <pt x="530" y="289" on="1"/>
        <pt x="1130" y="289" on="1"/>
        <pt x="1130" y="0" on="1"/>
      </contour>
      <contour>
        <pt x="383" y="1483" on="1"/>
        <pt x="383" y="1706" on="1"/>
        <pt x="629" y="1706" on="1"/>
        <pt x="629" y="1483" on="1"/>
      </contour>
      <contour>
        <pt x="731" y="1483" on="1"/>
        <pt x="731" y="1706" on="1"/>
        <pt x="977" y="1706" on="1"/>
        <pt x="977" y="1483" on="1"/>
      </contour>
    </TTGlyph>
    <TTGlyph name="Egrave" xMin="178" yMin="0" xMax="1130" yMax="1722">
      <contour>
        <pt x="178" y="0" on="1"/>
        <pt x="178" y="1366" on="1"/>
        <pt x="1130" y="1366" on="1"/>
        <pt x="1130" y="1079" on="1"/>
        <pt x="530" y="1079" on="1"/>
        <pt x="530" y="827" on="1"/>
        <pt x="1051" y="827" on="1"/>
        <pt x="1051" y="539" on="1"/>
        <pt x="530" y="539" on="1"/>
        <pt x="530" y="289" on="1"/>
        <pt x="1130" y="289" on="1"/>
        <pt x="1130" y="0" on="1"/>
      </contour>
      <contour>
        <pt x="424" y="1722" on="1"/>
        <pt x="664" y="1722" on="1"/>
        <pt x="791" y="1483" on="1"/>
        <pt x="614" y="1483" on="1"/>
      </contour>
    </TTGlyph>
    <TTGlyph name="Eth" xMin="106" yMin="0" xMax="1413" yMax="1366">
      <contour>
        <pt x="106" y="582" on="1"/>
        <pt x="106" y="782" on="1"/>
        <pt x="272" y="782" on="1"/>
        <pt x="272" y="1366" on="1"/>
        <pt x="764" y="1366" on="1"/>
        <pt x="1081" y="1366" on="0"/>
        <pt x="1413" y="1018" on="0"/>
        <pt x="1413" y="682" on="1"/>
        <pt x="1413" y="348" on="0"/>
        <pt x="1081" y="0" on="0"/>
        <pt x="764" y="0" on="1"/>
        <pt x="272" y="0" on="1"/>
        <pt x="272" y="582" on="1"/>
      </contour>
      <contour>
        <pt x="625" y="289" on="1"/>
        <pt x="764" y="289" on="1"/>
        <pt x="1061" y="289" on="0"/>
        <pt x="1061" y="682" on="1"/>
        <pt x="1061" y="1079" on="0"/>
        <pt x="764" y="1079" on="1"/>
        <pt x="625" y="1079" on="1"/>
        <pt x="625" y="782" on="1"/>
        <pt x="842" y="782" on="1"/>
        <pt x="842" y="582" on="1"/>
        <pt x="625" y="582" on="1"/>
      </contour>
    </TTGlyph>
    <TTGlyph name="Euro" xMin="98" yMin="-14" xMax="1341" yMax="1382">
      <contour>
        <pt x="98" y="408" on="1"/>
        <pt x="98" y="598" on="1"/>
        <pt x="264" y="598" on="1"/>
        <pt x="262" y="625" on="0"/>
        <pt x="262" y="743" on="0"/>
        <pt x="264" y="772" on="1"/>
        <pt x="98" y="772" on="1"/>
        <pt x="98" y="963" on="1"/>
        <pt x="295" y="963" on="1"/>
        <pt x="412" y="1382" on="0"/>
        <pt x="901" y="1382" on="1"/>
        <pt x="902" y="1382" on="0"/>
        <pt x="903" y="1382" on="1"/>
        <pt x="1102" y="1382" on="0"/>
        <pt x="1341" y="1286" on="1"/>
        <pt x="1341" y="981" on="1"/>
        <pt x="1137" y="1079" on="0"/>
        <pt x="924" y="1079" on="1"/>
        <pt x="750" y="1079" on="0"/>
        <pt x="676" y="963" on="1"/>
        <pt x="1073" y="963" on="1"/>
        <pt x="1073" y="772" on="1"/>
        <pt x="618" y="772" on="1"/>
        <pt x="614" y="719" on="0"/>
        <pt x="614" y="684" on="1"/>
        <pt x="614" y="651" on="0"/>
        <pt x="618" y="598" on="1"/>
        <pt x="1073" y="598" on="1"/>
        <pt x="1073" y="408" on="1"/>
        <pt x="676" y="408" on="1"/>
        <pt x="750" y="289" on="0"/>
        <pt x="924" y="289" on="1"/>
        <pt x="1137" y="289" on="0"/>
        <pt x="1341" y="387" on="1"/>
        <pt x="1341" y="82" on="1"/>
        <pt x="1101" y="-14" on="0"/>
        <pt x="903" y="-14" on="1"/>
        <pt x="411" y="-14" on="0"/>
        <pt x="295" y="408" on="1"/>
      </contour>
    </TTGlyph>
    <TTGlyph name="F" xMin="178" yMin="0" xMax="1106" yMax="1366">
      <contour>
        <pt x="178" y="0" on="1"/>
        <pt x="178" y="1366" on="1"/>
        <pt x="1106" y="1366" on="1"/>
        <pt x="1106" y="1079" on="1"/>
        <pt x="530" y="1079" on="1"/>
        <pt x="530" y="803" on="1"/>
        <pt x="1028" y="803" on="1"/>
        <pt x="1028" y="514" on="1"/>
        <pt x="530" y="514" on="1"/>
        <pt x="530" y="0" on="1"/>
      </contour>
    </TTGlyph>
    <TTGlyph name="G" xMin="125" yMin="-14" xMax="1276" yMax="1380">
      <contour>
        <pt x="125" y="682" on="1"/>
        <pt x="125" y="889" on="0"/>
        <pt x="240" y="1178" on="0"/>
        <pt x="436" y="1321" on="0"/>
        <pt x="643" y="1380" on="0"/>
        <pt x="766" y="1380" on="1"/>
        <pt x="1010" y="1380" on="0"/>
        <pt x="1237" y="1278" on="1"/>
        <pt x="1237" y="995" on="1"/>
        <pt x="1030" y="1079" on="0"/>
        <pt x="819" y="1079" on="1"/>
        <pt x="475" y="1079" on="0"/>
        <pt x="475" y="684" on="1"/>
        <pt x="475" y="461" on="0"/>
        <pt x="655" y="289" on="0"/>
        <pt x="807" y="289" on="1"/>
        <pt x="926" y="289" on="0"/>
        <pt x="995" y="319" on="1"/>
        <pt x="995" y="545" on="1"/>
        <pt x="752" y="545" on="1"/>
        <pt x="752" y="807" on="1"/>
        <pt x="1276" y="807" on="1"/>
        <pt x="1276" y="117" on="1"/>
        <pt x="1053" y="-14" on="0"/>
        <pt x="766" y="-14" on="1"/>
        <pt x="670" y="-14" on="0"/>
        <pt x="502" y="18" on="0"/>
        <pt x="328" y="113" on="0"/>
        <pt x="203" y="262" on="0"/>
        <pt x="125" y="516" on="0"/>
      </contour>
    </TTGlyph>
    <TTGlyph name="H" xMin="180" yMin="0" xMax="1323" yMax="1366">
      <contour>
        <pt x="180" y="0" on="1"/>
        <pt x="180" y="1366" on="1"/>
        <pt x="532" y="1366" on="1"/>
        <pt x="532" y="827" on="1"/>
        <pt x="971" y="827" on="1"/>
        <pt x="971" y="1366" on="1"/>
        <pt x="1323" y="1366" on="1"/>
        <pt x="1323" y="0" on="1"/>
        <pt x="971" y="0" on="1"/>
        <pt x="971" y="539" on="1"/>
        <pt x="532" y="539" on="1"/>
        <pt x="532" y="0" on="1"/>
      </contour>
    </TTGlyph>
    <TTGlyph name="I" xMin="180" yMin="0" xMax="532" yMax="1366">
      <contour>
        <pt x="180" y="0" on="1"/>
        <pt x="180" y="1366" on="1"/>
        <pt x="532" y="1366" on="1"/>
        <pt x="532" y="0" on="1"/>
      </contour>
    </TTGlyph>
    <TTGlyph name="Iacute" xMin="180" yMin="0" xMax="637" yMax="1722">
      <contour>
        <pt x="180" y="0" on="1"/>
        <pt x="532" y="0" on="1"/>
        <pt x="532" y="1366" on="1"/>
        <pt x="180" y="1366" on="1"/>
      </contour>
      <contour>
        <pt x="270" y="1483" on="1"/>
        <pt x="397" y="1722" on="1"/>
        <pt x="637" y="1722" on="1"/>
        <pt x="446" y="1483" on="1"/>
      </contour>
    </TTGlyph>
    <TTGlyph name="Icircumflex" xMin="61" yMin="0" xMax="651" yMax="1733">
      <contour>
        <pt x="61" y="1483" on="1"/>
        <pt x="307" y="1733" on="1"/>
        <pt x="406" y="1733" on="1"/>
        <pt x="651" y="1483" on="1"/>
        <pt x="442" y="1483" on="1"/>
        <pt x="356" y="1573" on="1"/>
        <pt x="270" y="1483" on="1"/>
      </contour>
      <contour>
        <pt x="180" y="0" on="1"/>
        <pt x="532" y="0" on="1"/>
        <pt x="532" y="1366" on="1"/>
        <pt x="180" y="1366" on="1"/>
      </contour>
    </TTGlyph>
    <TTGlyph name="Idieresis" xMin="59" yMin="0" xMax="653" yMax="1706">
      <contour>
        <pt x="59" y="1483" on="1"/>
        <pt x="59" y="1706" on="1"/>
        <pt x="305" y="1706" on="1"/>
        <pt x="305" y="1483" on="1"/>
      </contour>
      <contour>
        <pt x="180" y="0" on="1"/>
        <pt x="532" y="0" on="1"/>
        <pt x="532" y="1366" on="1"/>
        <pt x="180" y="1366" on="1"/>
      </contour>
      <contour>
        <pt x="408" y="1483" on="1"/>
        <pt x="408" y="1706" on="1"/>
        <pt x="653" y="1706" on="1"/>
        <pt x="653" y="1483" on="1"/>
      </contour>
    </TTGlyph>
    <TTGlyph name="Igrave" xMin="76" yMin="0" xMax="532" yMax="1722">
      <contour>
        <pt x="76" y="1722" on="1"/>
        <pt x="315" y="1722" on="1"/>
        <pt x="442" y="1483" on="1"/>
        <pt x="266" y="1483" on="1"/>
      </contour>
      <contour>
        <pt x="180" y="0" on="1"/>
        <pt x="532" y="0" on="1"/>
        <pt x="532" y="1366" on="1"/>
        <pt x="180" y="1366" on="1"/>
      </contour>
    </TTGlyph>
    <TTGlyph name="J" xMin="59" yMin="-14" xMax="866" yMax="1366">
      <contour>
        <pt x="59" y="92" on="1"/>
        <pt x="59" y="418" on="1"/>
        <pt x="200" y="289" on="0"/>
        <pt x="352" y="289" on="1"/>
        <pt x="424" y="289" on="0"/>
        <pt x="514" y="371" on="0"/>
        <pt x="514" y="455" on="1"/>
        <pt x="514" y="1366" on="1"/>
        <pt x="866" y="1366" on="1"/>
        <pt x="866" y="477" on="1"/>
        <pt x="866" y="354" on="0"/>
        <pt x="801" y="170" on="0"/>
        <pt x="707" y="68" on="0"/>
        <pt x="573" y="4" on="0"/>
        <pt x="463" y="-14" on="0"/>
        <pt x="403" y="-14" on="1"/>
        <pt x="227" y="-14" on="0"/>
      </contour>
    </TTGlyph>
    <TTGlyph name="K" xMin="178" yMin="0" xMax="1419" yMax="1366">
      <contour>
        <pt x="178" y="0" on="1"/>
        <pt x="178" y="1366" on="1"/>
        <pt x="530" y="1366" on="1"/>
        <pt x="530" y="885" on="1"/>
        <pt x="905" y="1366" on="1"/>
        <pt x="1380" y="1366" on="1"/>
        <pt x="844" y="772" on="1"/>
        <pt x="1419" y="0" on="1"/>
        <pt x="975" y="0" on="1"/>
        <pt x="627" y="532" on="1"/>
        <pt x="530" y="424" on="1"/>
        <pt x="530" y="0" on="1"/>
      </contour>
    </TTGlyph>
    <TTGlyph name="L" xMin="178" yMin="0" xMax="1137" yMax="1366">
      <contour>
        <pt x="178" y="0" on="1"/>
        <pt x="178" y="1366" on="1"/>
        <pt x="530" y="1366" on="1"/>
        <pt x="530" y="317" on="1"/>
        <pt x="1137" y="317" on="1"/>
        <pt x="1137" y="0" on="1"/>
      </contour>
    </TTGlyph>
    <TTGlyph name="M" xMin="180" yMin="0" xMax="1516" yMax="1366">
      <contour>
        <pt x="180" y="0" on="1"/>
        <pt x="180" y="1366" on="1"/>
        <pt x="526" y="1366" on="1"/>
        <pt x="848" y="901" on="1"/>
        <pt x="1169" y="1366" on="1"/>
        <pt x="1516" y="1366" on="1"/>
        <pt x="1516" y="0" on="1"/>
        <pt x="1163" y="0" on="1"/>
        <pt x="1163" y="846" on="1"/>
        <pt x="848" y="393" on="1"/>
        <pt x="532" y="846" on="1"/>
        <pt x="532" y="0" on="1"/>
      </contour>
    </TTGlyph>
    <TTGlyph name="N" xMin="178" yMin="0" xMax="1438" yMax="1366">
      <contour>
        <pt x="178" y="0" on="1"/>
        <pt x="178" y="1366" on="1"/>
        <pt x="530" y="1366" on="1"/>
        <pt x="1085" y="547" on="1"/>
        <pt x="1085" y="1366" on="1"/>
        <pt x="1438" y="1366" on="1"/>
        <pt x="1438" y="0" on="1"/>
        <pt x="1090" y="0" on="1"/>
        <pt x="530" y="813" on="1"/>
        <pt x="530" y="0" on="1"/>
      </contour>
    </TTGlyph>
    <TTGlyph name="Ntilde" xMin="178" yMin="0" xMax="1438" yMax="1746">
      <contour>
        <pt x="178" y="0" on="1"/>
        <pt x="178" y="1366" on="1"/>
        <pt x="530" y="1366" on="1"/>
        <pt x="1085" y="547" on="1"/>
        <pt x="1085" y="1366" on="1"/>
        <pt x="1438" y="1366" on="1"/>
        <pt x="1438" y="0" on="1"/>
        <pt x="1090" y="0" on="1"/>
        <pt x="530" y="813" on="1"/>
        <pt x="530" y="0" on="1"/>
      </contour>
      <contour>
        <pt x="510" y="1497" on="1"/>
        <pt x="510" y="1671" on="1"/>
        <pt x="567" y="1739" on="0"/>
        <pt x="634" y="1745" on="1"/>
        <pt x="644" y="1746" on="0"/>
        <pt x="655" y="1746" on="1"/>
        <pt x="710" y="1746" on="0"/>
        <pt x="760" y="1720" on="1"/>
        <pt x="882" y="1660" on="1"/>
        <pt x="934" y="1635" on="0"/>
        <pt x="988" y="1635" on="1"/>
        <pt x="999" y="1635" on="0"/>
        <pt x="1010" y="1636" on="1"/>
        <pt x="1075" y="1642" on="0"/>
        <pt x="1133" y="1710" on="1"/>
        <pt x="1133" y="1536" on="1"/>
        <pt x="1076" y="1468" on="0"/>
        <pt x="1010" y="1462" on="1"/>
        <pt x="999" y="1461" on="0"/>
        <pt x="988" y="1461" on="1"/>
        <pt x="934" y="1461" on="0"/>
        <pt x="882" y="1486" on="1"/>
        <pt x="760" y="1546" on="1"/>
        <pt x="710" y="1572" on="0"/>
        <pt x="655" y="1572" on="1"/>
        <pt x="644" y="1572" on="0"/>
        <pt x="634" y="1571" on="1"/>
        <pt x="567" y="1565" on="0"/>
      </contour>
    </TTGlyph>
    <TTGlyph name="O" xMin="125" yMin="-12" xMax="1407" yMax="1380">
      <contour>
        <pt x="125" y="518" on="0"/>
        <pt x="125" y="850" on="0"/>
        <pt x="203" y="1104" on="0"/>
        <pt x="328" y="1253" on="0"/>
        <pt x="502" y="1348" on="0"/>
        <pt x="670" y="1380" on="0"/>
        <pt x="862" y="1380" on="0"/>
        <pt x="1030" y="1348" on="0"/>
        <pt x="1204" y="1253" on="0"/>
        <pt x="1329" y="1104" on="0"/>
        <pt x="1407" y="850" on="0"/>
        <pt x="1407" y="518" on="0"/>
        <pt x="1329" y="264" on="0"/>
        <pt x="1204" y="115" on="0"/>
        <pt x="1030" y="20" on="0"/>
        <pt x="862" y="-12" on="0"/>
        <pt x="670" y="-12" on="0"/>
        <pt x="502" y="20" on="0"/>
        <pt x="328" y="115" on="0"/>
        <pt x="203" y="264" on="0"/>
      </contour>
      <contour>
        <pt x="477" y="907" on="0"/>
        <pt x="477" y="461" on="0"/>
        <pt x="635" y="289" on="0"/>
        <pt x="897" y="289" on="0"/>
        <pt x="1055" y="461" on="0"/>
        <pt x="1055" y="907" on="0"/>
        <pt x="897" y="1079" on="0"/>
        <pt x="635" y="1079" on="0"/>
      </contour>
    </TTGlyph>
    <TTGlyph name="OE" xMin="123" yMin="-12" xMax="2009" yMax="1380">
      <contour>
        <pt x="123" y="518" on="0"/>
        <pt x="123" y="850" on="0"/>
        <pt x="201" y="1104" on="0"/>
        <pt x="326" y="1253" on="0"/>
        <pt x="500" y="1348" on="0"/>
        <pt x="668" y="1380" on="0"/>
        <pt x="764" y="1380" on="1"/>
        <pt x="932" y="1380" on="0"/>
        <pt x="1057" y="1329" on="1"/>
        <pt x="1057" y="1366" on="1"/>
        <pt x="2009" y="1366" on="1"/>
        <pt x="2009" y="1079" on="1"/>
        <pt x="1409" y="1079" on="1"/>
        <pt x="1409" y="827" on="1"/>
        <pt x="1929" y="827" on="1"/>
        <pt x="1929" y="539" on="1"/>
        <pt x="1409" y="539" on="1"/>
        <pt x="1409" y="289" on="1"/>
        <pt x="2009" y="289" on="1"/>
        <pt x="2009" y="0" on="1"/>
        <pt x="1057" y="0" on="1"/>
        <pt x="1057" y="39" on="1"/>
        <pt x="932" y="-12" on="0"/>
        <pt x="764" y="-12" on="1"/>
        <pt x="668" y="-12" on="0"/>
        <pt x="500" y="20" on="0"/>
        <pt x="326" y="115" on="0"/>
        <pt x="201" y="264" on="0"/>
      </contour>
      <contour>
        <pt x="475" y="907" on="0"/>
        <pt x="475" y="461" on="0"/>
        <pt x="633" y="289" on="0"/>
        <pt x="895" y="289" on="0"/>
        <pt x="1053" y="461" on="0"/>
        <pt x="1053" y="907" on="0"/>
        <pt x="895" y="1079" on="0"/>
        <pt x="633" y="1079" on="0"/>
      </contour>
    </TTGlyph>
    <TTGlyph name="Oacute" xMin="125" yMin="-12" xMax="1407" yMax="1722">
      <contour>
        <pt x="125" y="518" on="0"/>
        <pt x="125" y="850" on="0"/>
        <pt x="203" y="1104" on="0"/>
        <pt x="328" y="1253" on="0"/>
        <pt x="502" y="1348" on="0"/>
        <pt x="670" y="1380" on="0"/>
        <pt x="862" y="1380" on="0"/>
        <pt x="1030" y="1348" on="0"/>
        <pt x="1204" y="1253" on="0"/>
        <pt x="1329" y="1104" on="0"/>
        <pt x="1407" y="850" on="0"/>
        <pt x="1407" y="518" on="0"/>
        <pt x="1329" y="264" on="0"/>
        <pt x="1204" y="115" on="0"/>
        <pt x="1030" y="20" on="0"/>
        <pt x="862" y="-12" on="0"/>
        <pt x="670" y="-12" on="0"/>
        <pt x="502" y="20" on="0"/>
        <pt x="328" y="115" on="0"/>
        <pt x="203" y="264" on="0"/>
      </contour>
      <contour>
        <pt x="477" y="907" on="0"/>
        <pt x="477" y="461" on="0"/>
        <pt x="635" y="289" on="0"/>
        <pt x="897" y="289" on="0"/>
        <pt x="1055" y="461" on="0"/>
        <pt x="1055" y="907" on="0"/>
        <pt x="897" y="1079" on="0"/>
        <pt x="635" y="1079" on="0"/>
      </contour>
      <contour>
        <pt x="666" y="1483" on="1"/>
        <pt x="793" y="1722" on="1"/>
        <pt x="1032" y="1722" on="1"/>
        <pt x="842" y="1483" on="1"/>
      </contour>
    </TTGlyph>
    <TTGlyph name="Ocircumflex" xMin="125" yMin="-12" xMax="1407" yMax="1733">
      <contour>
        <pt x="125" y="518" on="0"/>
        <pt x="125" y="850" on="0"/>
        <pt x="203" y="1104" on="0"/>
        <pt x="328" y="1253" on="0"/>
        <pt x="502" y="1348" on="0"/>
        <pt x="670" y="1380" on="0"/>
        <pt x="862" y="1380" on="0"/>
        <pt x="1030" y="1348" on="0"/>
        <pt x="1204" y="1253" on="0"/>
        <pt x="1329" y="1104" on="0"/>
        <pt x="1407" y="850" on="0"/>
        <pt x="1407" y="518" on="0"/>
        <pt x="1329" y="264" on="0"/>
        <pt x="1204" y="115" on="0"/>
        <pt x="1030" y="20" on="0"/>
        <pt x="862" y="-12" on="0"/>
        <pt x="670" y="-12" on="0"/>
        <pt x="502" y="20" on="0"/>
        <pt x="328" y="115" on="0"/>
        <pt x="203" y="264" on="0"/>
      </contour>
      <contour>
        <pt x="471" y="1483" on="1"/>
        <pt x="717" y="1733" on="1"/>
        <pt x="815" y="1733" on="1"/>
        <pt x="1061" y="1483" on="1"/>
        <pt x="852" y="1483" on="1"/>
        <pt x="766" y="1573" on="1"/>
        <pt x="680" y="1483" on="1"/>
      </contour>
      <contour>
        <pt x="477" y="907" on="0"/>
        <pt x="477" y="461" on="0"/>
        <pt x="635" y="289" on="0"/>
        <pt x="897" y="289" on="0"/>
        <pt x="1055" y="461" on="0"/>
        <pt x="1055" y="907" on="0"/>
        <pt x="897" y="1079" on="0"/>
        <pt x="635" y="1079" on="0"/>
      </contour>
    </TTGlyph>
    <TTGlyph name="Odieresis" xMin="125" yMin="-12" xMax="1407" yMax="1706">
      <contour>
        <pt x="125" y="518" on="0"/>
        <pt x="125" y="850" on="0"/>
        <pt x="203" y="1104" on="0"/>
        <pt x="328" y="1253" on="0"/>
        <pt x="502" y="1348" on="0"/>
        <pt x="670" y="1380" on="0"/>
        <pt x="862" y="1380" on="0"/>
        <pt x="1030" y="1348" on="0"/>
        <pt x="1204" y="1253" on="0"/>
        <pt x="1329" y="1104" on="0"/>
        <pt x="1407" y="850" on="0"/>
        <pt x="1407" y="518" on="0"/>
        <pt x="1329" y="264" on="0"/>
        <pt x="1204" y="115" on="0"/>
        <pt x="1030" y="20" on="0"/>
        <pt x="862" y="-12" on="0"/>
        <pt x="670" y="-12" on="0"/>
        <pt x="502" y="20" on="0"/>
        <pt x="328" y="115" on="0"/>
        <pt x="203" y="264" on="0"/>
      </contour>
      <contour>
        <pt x="469" y="1483" on="1"/>
        <pt x="469" y="1706" on="1"/>
        <pt x="715" y="1706" on="1"/>
        <pt x="715" y="1483" on="1"/>
      </contour>
      <contour>
        <pt x="477" y="907" on="0"/>
        <pt x="477" y="461" on="0"/>
        <pt x="635" y="289" on="0"/>
        <pt x="897" y="289" on="0"/>
        <pt x="1055" y="461" on="0"/>
        <pt x="1055" y="907" on="0"/>
        <pt x="897" y="1079" on="0"/>
        <pt x="635" y="1079" on="0"/>
      </contour>
      <contour>
        <pt x="817" y="1483" on="1"/>
        <pt x="817" y="1706" on="1"/>
        <pt x="1063" y="1706" on="1"/>
        <pt x="1063" y="1483" on="1"/>
      </contour>
    </TTGlyph>
    <TTGlyph name="Ograve" xMin="125" yMin="-12" xMax="1407" yMax="1722">
      <contour>
        <pt x="125" y="518" on="0"/>
        <pt x="125" y="850" on="0"/>
        <pt x="203" y="1104" on="0"/>
        <pt x="328" y="1253" on="0"/>
        <pt x="502" y="1348" on="0"/>
        <pt x="670" y="1380" on="0"/>
        <pt x="862" y="1380" on="0"/>
        <pt x="1030" y="1348" on="0"/>
        <pt x="1204" y="1253" on="0"/>
        <pt x="1329" y="1104" on="0"/>
        <pt x="1407" y="850" on="0"/>
        <pt x="1407" y="518" on="0"/>
        <pt x="1329" y="264" on="0"/>
        <pt x="1204" y="115" on="0"/>
        <pt x="1030" y="20" on="0"/>
        <pt x="862" y="-12" on="0"/>
        <pt x="670" y="-12" on="0"/>
        <pt x="502" y="20" on="0"/>
        <pt x="328" y="115" on="0"/>
        <pt x="203" y="264" on="0"/>
      </contour>
      <contour>
        <pt x="477" y="907" on="0"/>
        <pt x="477" y="461" on="0"/>
        <pt x="635" y="289" on="0"/>
        <pt x="897" y="289" on="0"/>
        <pt x="1055" y="461" on="0"/>
        <pt x="1055" y="907" on="0"/>
        <pt x="897" y="1079" on="0"/>
        <pt x="635" y="1079" on="0"/>
      </contour>
      <contour>
        <pt x="500" y="1722" on="1"/>
        <pt x="739" y="1722" on="1"/>
        <pt x="866" y="1483" on="1"/>
        <pt x="690" y="1483" on="1"/>
      </contour>
    </TTGlyph>
    <TTGlyph name="Oslash" xMin="14" yMin="-14" xMax="1516" yMax="1378">
      <contour>
        <pt x="14" y="0" on="1"/>
        <pt x="225" y="246" on="1"/>
        <pt x="125" y="414" on="0"/>
        <pt x="125" y="682" on="1"/>
        <pt x="125" y="848" on="0"/>
        <pt x="203" y="1102" on="0"/>
        <pt x="328" y="1251" on="0"/>
        <pt x="502" y="1346" on="0"/>
        <pt x="670" y="1378" on="0"/>
        <pt x="766" y="1378" on="1"/>
        <pt x="981" y="1378" on="0"/>
        <pt x="1126" y="1294" on="1"/>
        <pt x="1188" y="1366" on="1"/>
        <pt x="1516" y="1366" on="1"/>
        <pt x="1305" y="1120" on="1"/>
        <pt x="1407" y="952" on="0"/>
        <pt x="1407" y="682" on="1"/>
        <pt x="1407" y="516" on="0"/>
        <pt x="1329" y="262" on="0"/>
        <pt x="1204" y="113" on="0"/>
        <pt x="1030" y="18" on="0"/>
        <pt x="862" y="-14" on="0"/>
        <pt x="766" y="-14" on="1"/>
        <pt x="549" y="-14" on="0"/>
        <pt x="403" y="72" on="1"/>
        <pt x="342" y="0" on="1"/>
      </contour>
      <contour>
        <pt x="477" y="682" on="1"/>
        <pt x="477" y="600" on="0"/>
        <pt x="485" y="549" on="1"/>
        <pt x="911" y="1044" on="1"/>
        <pt x="854" y="1077" on="0"/>
        <pt x="766" y="1077" on="1"/>
        <pt x="635" y="1077" on="0"/>
        <pt x="477" y="905" on="0"/>
      </contour>
      <contour>
        <pt x="618" y="319" on="1"/>
        <pt x="673" y="287" on="0"/>
        <pt x="761" y="287" on="1"/>
        <pt x="763" y="287" on="0"/>
        <pt x="766" y="287" on="1"/>
        <pt x="897" y="287" on="0"/>
        <pt x="1055" y="459" on="0"/>
        <pt x="1055" y="682" on="1"/>
        <pt x="1055" y="752" on="0"/>
        <pt x="1044" y="817" on="1"/>
      </contour>
    </TTGlyph>
    <TTGlyph name="Otilde" xMin="125" yMin="-12" xMax="1407" yMax="1746">
      <contour>
        <pt x="125" y="518" on="0"/>
        <pt x="125" y="850" on="0"/>
        <pt x="203" y="1104" on="0"/>
        <pt x="328" y="1253" on="0"/>
        <pt x="502" y="1348" on="0"/>
        <pt x="670" y="1380" on="0"/>
        <pt x="862" y="1380" on="0"/>
        <pt x="1030" y="1348" on="0"/>
        <pt x="1204" y="1253" on="0"/>
        <pt x="1329" y="1104" on="0"/>
        <pt x="1407" y="850" on="0"/>
        <pt x="1407" y="518" on="0"/>
        <pt x="1329" y="264" on="0"/>
        <pt x="1204" y="115" on="0"/>
        <pt x="1030" y="20" on="0"/>
        <pt x="862" y="-12" on="0"/>
        <pt x="670" y="-12" on="0"/>
        <pt x="502" y="20" on="0"/>
        <pt x="328" y="115" on="0"/>
        <pt x="203" y="264" on="0"/>
      </contour>
      <contour>
        <pt x="459" y="1497" on="1"/>
        <pt x="459" y="1671" on="1"/>
        <pt x="516" y="1739" on="0"/>
        <pt x="582" y="1745" on="1"/>
        <pt x="593" y="1746" on="0"/>
        <pt x="604" y="1746" on="1"/>
        <pt x="659" y="1746" on="0"/>
        <pt x="710" y="1720" on="1"/>
        <pt x="832" y="1660" on="1"/>
        <pt x="883" y="1635" on="0"/>
        <pt x="937" y="1635" on="1"/>
        <pt x="948" y="1635" on="0"/>
        <pt x="958" y="1636" on="1"/>
        <pt x="1024" y="1642" on="0"/>
        <pt x="1081" y="1710" on="1"/>
        <pt x="1081" y="1536" on="1"/>
        <pt x="1024" y="1468" on="0"/>
        <pt x="958" y="1462" on="1"/>
        <pt x="948" y="1461" on="0"/>
        <pt x="937" y="1461" on="1"/>
        <pt x="883" y="1461" on="0"/>
        <pt x="832" y="1486" on="1"/>
        <pt x="710" y="1546" on="1"/>
        <pt x="659" y="1572" on="0"/>
        <pt x="604" y="1572" on="1"/>
        <pt x="593" y="1572" on="0"/>
        <pt x="582" y="1571" on="1"/>
        <pt x="516" y="1565" on="0"/>
      </contour>
      <contour>
        <pt x="477" y="907" on="0"/>
        <pt x="477" y="461" on="0"/>
        <pt x="635" y="289" on="0"/>
        <pt x="897" y="289" on="0"/>
        <pt x="1055" y="461" on="0"/>
        <pt x="1055" y="907" on="0"/>
        <pt x="897" y="1079" on="0"/>
        <pt x="635" y="1079" on="0"/>
      </contour>
    </TTGlyph>
    <TTGlyph name="P" xMin="176" yMin="0" xMax="1251" yMax="1366">
      <contour>
        <pt x="176" y="0" on="1"/>
        <pt x="176" y="1366" on="1"/>
        <pt x="729" y="1366" on="1"/>
        <pt x="977" y="1366" on="0"/>
        <pt x="1251" y="1114" on="0"/>
        <pt x="1251" y="887" on="1"/>
        <pt x="1251" y="658" on="0"/>
        <pt x="977" y="406" on="0"/>
        <pt x="729" y="406" on="1"/>
        <pt x="528" y="406" on="1"/>
        <pt x="528" y="0" on="1"/>
      </contour>
      <contour>
        <pt x="528" y="696" on="1"/>
        <pt x="696" y="696" on="1"/>
        <pt x="802" y="696" on="0"/>
        <pt x="901" y="809" on="0"/>
        <pt x="901" y="887" on="1"/>
        <pt x="901" y="963" on="0"/>
        <pt x="803" y="1079" on="0"/>
        <pt x="696" y="1079" on="1"/>
        <pt x="528" y="1079" on="1"/>
      </contour>
    </TTGlyph>
    <TTGlyph name="Q" xMin="125" yMin="-389" xMax="1407" yMax="1380">
      <contour>
        <pt x="125" y="684" on="1"/>
        <pt x="125" y="850" on="0"/>
        <pt x="203" y="1104" on="0"/>
        <pt x="328" y="1253" on="0"/>
        <pt x="502" y="1348" on="0"/>
        <pt x="670" y="1380" on="0"/>
        <pt x="862" y="1380" on="0"/>
        <pt x="1030" y="1348" on="0"/>
        <pt x="1204" y="1253" on="0"/>
        <pt x="1329" y="1104" on="0"/>
        <pt x="1407" y="850" on="0"/>
        <pt x="1407" y="684" on="1"/>
        <pt x="1407" y="80" on="0"/>
        <pt x="913" y="0" on="1"/>
        <pt x="921" y="-162" on="0"/>
        <pt x="1126" y="-162" on="1"/>
        <pt x="1126" y="-389" on="1"/>
        <pt x="626" y="-389" on="0"/>
        <pt x="621" y="-2" on="1"/>
        <pt x="125" y="78" on="0"/>
      </contour>
      <contour>
        <pt x="477" y="907" on="0"/>
        <pt x="477" y="461" on="0"/>
        <pt x="635" y="289" on="0"/>
        <pt x="897" y="289" on="0"/>
        <pt x="1055" y="461" on="0"/>
        <pt x="1055" y="907" on="0"/>
        <pt x="897" y="1079" on="0"/>
        <pt x="635" y="1079" on="0"/>
      </contour>
    </TTGlyph>
    <TTGlyph name="R" xMin="178" yMin="0" xMax="1323" yMax="1366">
      <contour>
        <pt x="178" y="0" on="1"/>
        <pt x="178" y="1366" on="1"/>
        <pt x="717" y="1366" on="1"/>
        <pt x="967" y="1366" on="0"/>
        <pt x="1268" y="1133" on="0"/>
        <pt x="1268" y="922" on="1"/>
        <pt x="1268" y="760" on="0"/>
        <pt x="1118" y="551" on="0"/>
        <pt x="993" y="510" on="1"/>
        <pt x="1323" y="0" on="1"/>
        <pt x="930" y="0" on="1"/>
        <pt x="676" y="457" on="1"/>
        <pt x="530" y="457" on="1"/>
        <pt x="530" y="0" on="1"/>
      </contour>
      <contour>
        <pt x="530" y="721" on="1"/>
        <pt x="739" y="721" on="1"/>
        <pt x="811" y="721" on="0"/>
        <pt x="915" y="821" on="0"/>
        <pt x="915" y="899" on="1"/>
        <pt x="915" y="979" on="0"/>
        <pt x="811" y="1079" on="0"/>
        <pt x="739" y="1079" on="1"/>
        <pt x="530" y="1079" on="1"/>
      </contour>
    </TTGlyph>
    <TTGlyph name="S" xMin="127" yMin="-16" xMax="1108" yMax="1378">
      <contour>
        <pt x="127" y="954" on="1"/>
        <pt x="127" y="1165" on="0"/>
        <pt x="418" y="1378" on="0"/>
        <pt x="633" y="1378" on="1"/>
        <pt x="828" y="1378" on="0"/>
        <pt x="1001" y="1284" on="1"/>
        <pt x="1001" y="977" on="1"/>
        <pt x="835" y="1075" on="0"/>
        <pt x="684" y="1075" on="1"/>
        <pt x="604" y="1075" on="0"/>
        <pt x="479" y="1022" on="0"/>
        <pt x="479" y="961" on="1"/>
        <pt x="479" y="922" on="0"/>
        <pt x="571" y="870" on="0"/>
        <pt x="713" y="844" on="0"/>
        <pt x="874" y="784" on="0"/>
        <pt x="1016" y="698" on="0"/>
        <pt x="1108" y="518" on="0"/>
        <pt x="1108" y="389" on="1"/>
        <pt x="1108" y="209" on="0"/>
        <pt x="821" y="-16" on="0"/>
        <pt x="616" y="-16" on="1"/>
        <pt x="335" y="-16" on="0"/>
        <pt x="143" y="117" on="1"/>
        <pt x="143" y="446" on="1"/>
        <pt x="332" y="289" on="0"/>
        <pt x="562" y="289" on="1"/>
        <pt x="563" y="289" on="0"/>
        <pt x="565" y="289" on="1"/>
        <pt x="643" y="289" on="0"/>
        <pt x="756" y="348" on="0"/>
        <pt x="756" y="403" on="1"/>
        <pt x="756" y="440" on="0"/>
        <pt x="686" y="492" on="0"/>
        <pt x="630" y="507" on="1"/>
        <pt x="508" y="538" on="1"/>
        <pt x="442" y="554" on="0"/>
        <pt x="307" y="612" on="0"/>
        <pt x="197" y="696" on="0"/>
        <pt x="127" y="850" on="0"/>
      </contour>
    </TTGlyph>
    <TTGlyph name="T" xMin="25" yMin="0" xMax="1167" yMax="1366">
      <contour>
        <pt x="25" y="1047" on="1"/>
        <pt x="25" y="1366" on="1"/>
        <pt x="1167" y="1366" on="1"/>
        <pt x="1167" y="1047" on="1"/>
        <pt x="770" y="1047" on="1"/>
        <pt x="770" y="0" on="1"/>
        <pt x="418" y="0" on="1"/>
        <pt x="418" y="1047" on="1"/>
      </contour>
    </TTGlyph>
    <TTGlyph name="Thorn" xMin="176" yMin="0" xMax="1227" yMax="1366">
      <contour>
        <pt x="176" y="0" on="1"/>
        <pt x="176" y="1366" on="1"/>
        <pt x="528" y="1366" on="1"/>
        <pt x="528" y="1163" on="1"/>
        <pt x="705" y="1163" on="1"/>
        <pt x="953" y="1163" on="0"/>
        <pt x="1227" y="911" on="0"/>
        <pt x="1227" y="684" on="1"/>
        <pt x="1227" y="455" on="0"/>
        <pt x="952" y="203" on="0"/>
        <pt x="705" y="203" on="1"/>
        <pt x="528" y="203" on="1"/>
        <pt x="528" y="0" on="1"/>
      </contour>
      <contour>
        <pt x="528" y="494" on="1"/>
        <pt x="672" y="494" on="1"/>
        <pt x="778" y="494" on="0"/>
        <pt x="877" y="606" on="0"/>
        <pt x="877" y="684" on="1"/>
        <pt x="877" y="760" on="0"/>
        <pt x="778" y="877" on="0"/>
        <pt x="672" y="877" on="1"/>
        <pt x="528" y="877" on="1"/>
      </contour>
    </TTGlyph>
    <TTGlyph name="U" xMin="178" yMin="-14" xMax="1346" yMax="1366">
      <contour>
        <pt x="178" y="588" on="1"/>
        <pt x="178" y="1366" on="1"/>
        <pt x="530" y="1366" on="1"/>
        <pt x="530" y="547" on="1"/>
        <pt x="530" y="416" on="0"/>
        <pt x="643" y="289" on="0"/>
        <pt x="881" y="289" on="0"/>
        <pt x="993" y="416" on="0"/>
        <pt x="993" y="547" on="1"/>
        <pt x="993" y="1366" on="1"/>
        <pt x="1346" y="1366" on="1"/>
        <pt x="1346" y="588" on="1"/>
        <pt x="1346" y="301" on="0"/>
        <pt x="1038" y="-14" on="0"/>
        <pt x="485" y="-14" on="0"/>
        <pt x="178" y="301" on="0"/>
      </contour>
    </TTGlyph>
    <TTGlyph name="Uacute" xMin="178" yMin="-14" xMax="1346" yMax="1722">
      <contour>
        <pt x="178" y="588" on="1"/>
        <pt x="178" y="1366" on="1"/>
        <pt x="530" y="1366" on="1"/>
        <pt x="530" y="547" on="1"/>
        <pt x="530" y="416" on="0"/>
        <pt x="643" y="289" on="0"/>
        <pt x="881" y="289" on="0"/>
        <pt x="993" y="416" on="0"/>
        <pt x="993" y="547" on="1"/>
        <pt x="993" y="1366" on="1"/>
        <pt x="1346" y="1366" on="1"/>
        <pt x="1346" y="588" on="1"/>
        <pt x="1346" y="301" on="0"/>
        <pt x="1038" y="-14" on="0"/>
        <pt x="485" y="-14" on="0"/>
        <pt x="178" y="301" on="0"/>
      </contour>
      <contour>
        <pt x="651" y="1483" on="1"/>
        <pt x="778" y="1722" on="1"/>
        <pt x="1018" y="1722" on="1"/>
        <pt x="827" y="1483" on="1"/>
      </contour>
    </TTGlyph>
    <TTGlyph name="Ucircumflex" xMin="178" yMin="-14" xMax="1346" yMax="1733">
      <contour>
        <pt x="178" y="588" on="1"/>
        <pt x="178" y="1366" on="1"/>
        <pt x="530" y="1366" on="1"/>
        <pt x="530" y="547" on="1"/>
        <pt x="530" y="416" on="0"/>
        <pt x="643" y="289" on="0"/>
        <pt x="881" y="289" on="0"/>
        <pt x="993" y="416" on="0"/>
        <pt x="993" y="547" on="1"/>
        <pt x="993" y="1366" on="1"/>
        <pt x="1346" y="1366" on="1"/>
        <pt x="1346" y="588" on="1"/>
        <pt x="1346" y="301" on="0"/>
        <pt x="1038" y="-14" on="0"/>
        <pt x="485" y="-14" on="0"/>
        <pt x="178" y="301" on="0"/>
      </contour>
      <contour>
        <pt x="467" y="1483" on="1"/>
        <pt x="713" y="1733" on="1"/>
        <pt x="811" y="1733" on="1"/>
        <pt x="1057" y="1483" on="1"/>
        <pt x="848" y="1483" on="1"/>
        <pt x="762" y="1573" on="1"/>
        <pt x="676" y="1483" on="1"/>
      </contour>
    </TTGlyph>
    <TTGlyph name="Udieresis" xMin="178" yMin="-14" xMax="1346" yMax="1706">
      <contour>
        <pt x="178" y="588" on="1"/>
        <pt x="178" y="1366" on="1"/>
        <pt x="530" y="1366" on="1"/>
        <pt x="530" y="547" on="1"/>
        <pt x="530" y="416" on="0"/>
        <pt x="643" y="289" on="0"/>
        <pt x="881" y="289" on="0"/>
        <pt x="993" y="416" on="0"/>
        <pt x="993" y="547" on="1"/>
        <pt x="993" y="1366" on="1"/>
        <pt x="1346" y="1366" on="1"/>
        <pt x="1346" y="588" on="1"/>
        <pt x="1346" y="301" on="0"/>
        <pt x="1038" y="-14" on="0"/>
        <pt x="485" y="-14" on="0"/>
        <pt x="178" y="301" on="0"/>
      </contour>
      <contour>
        <pt x="465" y="1483" on="1"/>
        <pt x="465" y="1706" on="1"/>
        <pt x="711" y="1706" on="1"/>
        <pt x="711" y="1483" on="1"/>
      </contour>
      <contour>
        <pt x="813" y="1483" on="1"/>
        <pt x="813" y="1706" on="1"/>
        <pt x="1059" y="1706" on="1"/>
        <pt x="1059" y="1483" on="1"/>
      </contour>
    </TTGlyph>
    <TTGlyph name="Ugrave" xMin="178" yMin="-14" xMax="1346" yMax="1722">
      <contour>
        <pt x="178" y="588" on="1"/>
        <pt x="178" y="1366" on="1"/>
        <pt x="530" y="1366" on="1"/>
        <pt x="530" y="547" on="1"/>
        <pt x="530" y="416" on="0"/>
        <pt x="643" y="289" on="0"/>
        <pt x="881" y="289" on="0"/>
        <pt x="993" y="416" on="0"/>
        <pt x="993" y="547" on="1"/>
        <pt x="993" y="1366" on="1"/>
        <pt x="1346" y="1366" on="1"/>
        <pt x="1346" y="588" on="1"/>
        <pt x="1346" y="301" on="0"/>
        <pt x="1038" y="-14" on="0"/>
        <pt x="485" y="-14" on="0"/>
        <pt x="178" y="301" on="0"/>
      </contour>
      <contour>
        <pt x="506" y="1722" on="1"/>
        <pt x="745" y="1722" on="1"/>
        <pt x="872" y="1483" on="1"/>
        <pt x="696" y="1483" on="1"/>
      </contour>
    </TTGlyph>
    <TTGlyph name="V" xMin="25" yMin="0" xMax="1389" yMax="1366">
      <contour>
        <pt x="25" y="1366" on="1"/>
        <pt x="401" y="1366" on="1"/>
        <pt x="707" y="399" on="1"/>
        <pt x="1012" y="1366" on="1"/>
        <pt x="1389" y="1366" on="1"/>
        <pt x="868" y="0" on="1"/>
        <pt x="549" y="0" on="1"/>
      </contour>
    </TTGlyph>
    <TTGlyph name="W" xMin="27" yMin="0" xMax="2021" yMax="1366">
      <contour>
        <pt x="27" y="1366" on="1"/>
        <pt x="395" y="1366" on="1"/>
        <pt x="629" y="504" on="1"/>
        <pt x="872" y="1366" on="1"/>
        <pt x="1176" y="1366" on="1"/>
        <pt x="1419" y="504" on="1"/>
        <pt x="1653" y="1366" on="1"/>
        <pt x="2021" y="1366" on="1"/>
        <pt x="1581" y="0" on="1"/>
        <pt x="1260" y="0" on="1"/>
        <pt x="1024" y="782" on="1"/>
        <pt x="788" y="0" on="1"/>
        <pt x="467" y="0" on="1"/>
      </contour>
    </TTGlyph>
    <TTGlyph name="X" xMin="25" yMin="0" xMax="1427" yMax="1366">
      <contour>
        <pt x="25" y="0" on="1"/>
        <pt x="510" y="692" on="1"/>
        <pt x="35" y="1366" on="1"/>
        <pt x="465" y="1366" on="1"/>
        <pt x="723" y="997" on="1"/>
        <pt x="983" y="1366" on="1"/>
        <pt x="1386" y="1366" on="1"/>
        <pt x="924" y="713" on="1"/>
        <pt x="1427" y="0" on="1"/>
        <pt x="997" y="0" on="1"/>
        <pt x="709" y="410" on="1"/>
        <pt x="420" y="0" on="1"/>
      </contour>
    </TTGlyph>
    <TTGlyph name="Y" xMin="25" yMin="0" xMax="1462" yMax="1366">
      <contour>
        <pt x="25" y="1366" on="1"/>
        <pt x="453" y="1366" on="1"/>
        <pt x="743" y="846" on="1"/>
        <pt x="1034" y="1366" on="1"/>
        <pt x="1462" y="1366" on="1"/>
        <pt x="920" y="575" on="1"/>
        <pt x="920" y="0" on="1"/>
        <pt x="567" y="0" on="1"/>
        <pt x="567" y="575" on="1"/>
      </contour>
    </TTGlyph>
    <TTGlyph name="Yacute" xMin="25" yMin="0" xMax="1462" yMax="1722">
      <contour>
        <pt x="25" y="1366" on="1"/>
        <pt x="453" y="1366" on="1"/>
        <pt x="743" y="846" on="1"/>
        <pt x="1034" y="1366" on="1"/>
        <pt x="1462" y="1366" on="1"/>
        <pt x="920" y="575" on="1"/>
        <pt x="920" y="0" on="1"/>
        <pt x="567" y="0" on="1"/>
        <pt x="567" y="575" on="1"/>
      </contour>
      <contour>
        <pt x="635" y="1483" on="1"/>
        <pt x="762" y="1722" on="1"/>
        <pt x="1001" y="1722" on="1"/>
        <pt x="811" y="1483" on="1"/>
      </contour>
    </TTGlyph>
    <TTGlyph name="Ydieresis" xMin="25" yMin="0" xMax="1462" yMax="1706">
      <contour>
        <pt x="25" y="1366" on="1"/>
        <pt x="453" y="1366" on="1"/>
        <pt x="743" y="846" on="1"/>
        <pt x="1034" y="1366" on="1"/>
        <pt x="1462" y="1366" on="1"/>
        <pt x="920" y="575" on="1"/>
        <pt x="920" y="0" on="1"/>
        <pt x="567" y="0" on="1"/>
        <pt x="567" y="575" on="1"/>
      </contour>
      <contour>
        <pt x="449" y="1483" on="1"/>
        <pt x="449" y="1706" on="1"/>
        <pt x="694" y="1706" on="1"/>
        <pt x="694" y="1483" on="1"/>
      </contour>
      <contour>
        <pt x="797" y="1483" on="1"/>
        <pt x="797" y="1706" on="1"/>
        <pt x="1042" y="1706" on="1"/>
        <pt x="1042" y="1483" on="1"/>
      </contour>
    </TTGlyph>
    <TTGlyph name="Z" xMin="133" yMin="0" xMax="1186" yMax="1366">
      <contour>
        <pt x="133" y="0" on="1"/>
        <pt x="133" y="291" on="1"/>
        <pt x="750" y="1053" on="1"/>
        <pt x="139" y="1053" on="1"/>
        <pt x="139" y="1366" on="1"/>
        <pt x="1186" y="1366" on="1"/>
        <pt x="1186" y="1081" on="1"/>
        <pt x="588" y="309" on="1"/>
        <pt x="1186" y="309" on="1"/>
        <pt x="1186" y="0" on="1"/>
      </contour>
    </TTGlyph>
    <TTGlyph name="a" xMin="106" yMin="-14" xMax="1014" yMax="1036">
      <contour>
        <pt x="106" y="301" on="1"/>
        <pt x="106" y="332" on="0"/>
        <pt x="121" y="397" on="0"/>
        <pt x="176" y="489" on="0"/>
        <pt x="266" y="559" on="0"/>
        <pt x="444" y="608" on="0"/>
        <pt x="563" y="608" on="1"/>
        <pt x="626" y="608" on="0"/>
        <pt x="655" y="606" on="1"/>
        <pt x="655" y="690" on="0"/>
        <pt x="573" y="762" on="0"/>
        <pt x="518" y="762" on="1"/>
        <pt x="364" y="762" on="0"/>
        <pt x="207" y="698" on="1"/>
        <pt x="207" y="965" on="1"/>
        <pt x="385" y="1036" on="0"/>
        <pt x="543" y="1036" on="1"/>
        <pt x="768" y="1036" on="0"/>
        <pt x="1014" y="807" on="0"/>
        <pt x="1014" y="592" on="1"/>
        <pt x="1014" y="350" on="1"/>
        <pt x="1014" y="160" on="0"/>
        <pt x="809" y="-14" on="0"/>
        <pt x="545" y="-14" on="1"/>
        <pt x="107" y="-14" on="0"/>
      </contour>
      <contour>
        <pt x="459" y="362" on="1"/>
        <pt x="459" y="254" on="0"/>
        <pt x="557" y="254" on="1"/>
        <pt x="558" y="254" on="0"/>
        <pt x="559" y="254" on="1"/>
        <pt x="608" y="254" on="0"/>
        <pt x="662" y="332" on="0"/>
        <pt x="662" y="375" on="1"/>
        <pt x="662" y="461" on="1"/>
        <pt x="613" y="465" on="0"/>
        <pt x="594" y="465" on="1"/>
        <pt x="459" y="465" on="0"/>
      </contour>
    </TTGlyph>
    <TTGlyph name="aacute" xMin="106" yMin="-14" xMax="1014" yMax="1378">
      <contour>
        <pt x="106" y="301" on="1"/>
        <pt x="106" y="332" on="0"/>
        <pt x="121" y="397" on="0"/>
        <pt x="176" y="489" on="0"/>
        <pt x="266" y="559" on="0"/>
        <pt x="444" y="608" on="0"/>
        <pt x="563" y="608" on="1"/>
        <pt x="626" y="608" on="0"/>
        <pt x="655" y="606" on="1"/>
        <pt x="655" y="690" on="0"/>
        <pt x="573" y="762" on="0"/>
        <pt x="518" y="762" on="1"/>
        <pt x="364" y="762" on="0"/>
        <pt x="207" y="698" on="1"/>
        <pt x="207" y="965" on="1"/>
        <pt x="385" y="1036" on="0"/>
        <pt x="543" y="1036" on="1"/>
        <pt x="768" y="1036" on="0"/>
        <pt x="1014" y="807" on="0"/>
        <pt x="1014" y="592" on="1"/>
        <pt x="1014" y="350" on="1"/>
        <pt x="1014" y="160" on="0"/>
        <pt x="809" y="-14" on="0"/>
        <pt x="545" y="-14" on="1"/>
        <pt x="107" y="-14" on="0"/>
      </contour>
      <contour>
        <pt x="442" y="1139" on="1"/>
        <pt x="569" y="1378" on="1"/>
        <pt x="809" y="1378" on="1"/>
        <pt x="618" y="1139" on="1"/>
      </contour>
      <contour>
        <pt x="459" y="362" on="1"/>
        <pt x="459" y="254" on="0"/>
        <pt x="557" y="254" on="1"/>
        <pt x="558" y="254" on="0"/>
        <pt x="559" y="254" on="1"/>
        <pt x="608" y="254" on="0"/>
        <pt x="662" y="332" on="0"/>
        <pt x="662" y="375" on="1"/>
        <pt x="662" y="461" on="1"/>
        <pt x="613" y="465" on="0"/>
        <pt x="594" y="465" on="1"/>
        <pt x="459" y="465" on="0"/>
      </contour>
    </TTGlyph>
    <TTGlyph name="acircumflex" xMin="106" yMin="-14" xMax="1014" yMax="1389">
      <contour>
        <pt x="106" y="301" on="1"/>
        <pt x="106" y="332" on="0"/>
        <pt x="121" y="397" on="0"/>
        <pt x="176" y="489" on="0"/>
        <pt x="266" y="559" on="0"/>
        <pt x="444" y="608" on="0"/>
        <pt x="563" y="608" on="1"/>
        <pt x="626" y="608" on="0"/>
        <pt x="655" y="606" on="1"/>
        <pt x="655" y="690" on="0"/>
        <pt x="573" y="762" on="0"/>
        <pt x="518" y="762" on="1"/>
        <pt x="364" y="762" on="0"/>
        <pt x="207" y="698" on="1"/>
        <pt x="207" y="965" on="1"/>
        <pt x="385" y="1036" on="0"/>
        <pt x="543" y="1036" on="1"/>
        <pt x="768" y="1036" on="0"/>
        <pt x="1014" y="807" on="0"/>
        <pt x="1014" y="592" on="1"/>
        <pt x="1014" y="350" on="1"/>
        <pt x="1014" y="160" on="0"/>
        <pt x="809" y="-14" on="0"/>
        <pt x="545" y="-14" on="1"/>
        <pt x="107" y="-14" on="0"/>
      </contour>
      <contour>
        <pt x="268" y="1139" on="1"/>
        <pt x="514" y="1389" on="1"/>
        <pt x="612" y="1389" on="1"/>
        <pt x="858" y="1139" on="1"/>
        <pt x="649" y="1139" on="1"/>
        <pt x="563" y="1229" on="1"/>
        <pt x="477" y="1139" on="1"/>
      </contour>
      <contour>
        <pt x="459" y="362" on="1"/>
        <pt x="459" y="254" on="0"/>
        <pt x="557" y="254" on="1"/>
        <pt x="558" y="254" on="0"/>
        <pt x="559" y="254" on="1"/>
        <pt x="608" y="254" on="0"/>
        <pt x="662" y="332" on="0"/>
        <pt x="662" y="375" on="1"/>
        <pt x="662" y="461" on="1"/>
        <pt x="613" y="465" on="0"/>
        <pt x="594" y="465" on="1"/>
        <pt x="459" y="465" on="0"/>
      </contour>
    </TTGlyph>
    <TTGlyph name="acute" xMin="121" yMin="1139" xMax="487" yMax="1378">
      <contour>
        <pt x="121" y="1139" on="1"/>
        <pt x="248" y="1378" on="1"/>
        <pt x="487" y="1378" on="1"/>
        <pt x="297" y="1139" on="1"/>
      </contour>
    </TTGlyph>
    <TTGlyph name="adieresis" xMin="106" yMin="-14" xMax="1014" yMax="1362">
      <contour>
        <pt x="106" y="301" on="1"/>
        <pt x="106" y="332" on="0"/>
        <pt x="121" y="397" on="0"/>
        <pt x="176" y="489" on="0"/>
        <pt x="266" y="559" on="0"/>
        <pt x="444" y="608" on="0"/>
        <pt x="563" y="608" on="1"/>
        <pt x="626" y="608" on="0"/>
        <pt x="655" y="606" on="1"/>
        <pt x="655" y="690" on="0"/>
        <pt x="573" y="762" on="0"/>
        <pt x="518" y="762" on="1"/>
        <pt x="364" y="762" on="0"/>
        <pt x="207" y="698" on="1"/>
        <pt x="207" y="965" on="1"/>
        <pt x="385" y="1036" on="0"/>
        <pt x="543" y="1036" on="1"/>
        <pt x="768" y="1036" on="0"/>
        <pt x="1014" y="807" on="0"/>
        <pt x="1014" y="592" on="1"/>
        <pt x="1014" y="350" on="1"/>
        <pt x="1014" y="160" on="0"/>
        <pt x="809" y="-14" on="0"/>
        <pt x="545" y="-14" on="1"/>
        <pt x="107" y="-14" on="0"/>
      </contour>
      <contour>
        <pt x="266" y="1139" on="1"/>
        <pt x="266" y="1362" on="1"/>
        <pt x="512" y="1362" on="1"/>
        <pt x="512" y="1139" on="1"/>
      </contour>
      <contour>
        <pt x="459" y="362" on="1"/>
        <pt x="459" y="254" on="0"/>
        <pt x="557" y="254" on="1"/>
        <pt x="558" y="254" on="0"/>
        <pt x="559" y="254" on="1"/>
        <pt x="608" y="254" on="0"/>
        <pt x="662" y="332" on="0"/>
        <pt x="662" y="375" on="1"/>
        <pt x="662" y="461" on="1"/>
        <pt x="613" y="465" on="0"/>
        <pt x="594" y="465" on="1"/>
        <pt x="459" y="465" on="0"/>
      </contour>
      <contour>
        <pt x="614" y="1139" on="1"/>
        <pt x="614" y="1362" on="1"/>
        <pt x="860" y="1362" on="1"/>
        <pt x="860" y="1139" on="1"/>
      </contour>
    </TTGlyph>
    <TTGlyph name="ae" xMin="127" yMin="-18" xMax="1610" yMax="1034">
      <contour>
        <pt x="127" y="297" on="1"/>
        <pt x="127" y="328" on="0"/>
        <pt x="141" y="393" on="0"/>
        <pt x="197" y="485" on="0"/>
        <pt x="287" y="555" on="0"/>
        <pt x="465" y="604" on="0"/>
        <pt x="584" y="604" on="1"/>
        <pt x="647" y="604" on="0"/>
        <pt x="676" y="602" on="1"/>
        <pt x="676" y="686" on="0"/>
        <pt x="594" y="758" on="0"/>
        <pt x="539" y="758" on="1"/>
        <pt x="385" y="758" on="0"/>
        <pt x="227" y="694" on="1"/>
        <pt x="227" y="961" on="1"/>
        <pt x="403" y="1032" on="0"/>
        <pt x="559" y="1032" on="1"/>
        <pt x="561" y="1032" on="0"/>
        <pt x="563" y="1032" on="1"/>
        <pt x="655" y="1032" on="0"/>
        <pt x="821" y="944" on="0"/>
        <pt x="862" y="897" on="1"/>
        <pt x="897" y="948" on="0"/>
        <pt x="1053" y="1034" on="0"/>
        <pt x="1145" y="1034" on="1"/>
        <pt x="1374" y="1034" on="0"/>
        <pt x="1610" y="746" on="0"/>
        <pt x="1610" y="537" on="1"/>
        <pt x="1610" y="476" on="0"/>
        <pt x="1604" y="426" on="1"/>
        <pt x="1022" y="426" on="1"/>
        <pt x="1022" y="354" on="0"/>
        <pt x="1157" y="256" on="0"/>
        <pt x="1241" y="256" on="1"/>
        <pt x="1429" y="256" on="0"/>
        <pt x="1563" y="336" on="1"/>
        <pt x="1563" y="88" on="1"/>
        <pt x="1397" y="-18" on="0"/>
        <pt x="1174" y="-18" on="1"/>
        <pt x="1078" y="-18" on="0"/>
        <pt x="920" y="78" on="0"/>
        <pt x="887" y="139" on="1"/>
        <pt x="798" y="-18" on="0"/>
        <pt x="568" y="-18" on="1"/>
        <pt x="566" y="-18" on="0"/>
        <pt x="565" y="-18" on="1"/>
        <pt x="127" y="-18" on="0"/>
      </contour>
      <contour>
        <pt x="479" y="358" on="1"/>
        <pt x="479" y="250" on="0"/>
        <pt x="578" y="250" on="1"/>
        <pt x="579" y="250" on="0"/>
        <pt x="580" y="250" on="1"/>
        <pt x="629" y="250" on="0"/>
        <pt x="682" y="328" on="0"/>
        <pt x="682" y="371" on="1"/>
        <pt x="682" y="457" on="1"/>
        <pt x="633" y="461" on="0"/>
        <pt x="614" y="461" on="1"/>
        <pt x="479" y="461" on="0"/>
      </contour>
      <contour>
        <pt x="1030" y="637" on="1"/>
        <pt x="1260" y="637" on="1"/>
        <pt x="1256" y="696" on="0"/>
        <pt x="1194" y="811" on="0"/>
        <pt x="1096" y="811" on="0"/>
        <pt x="1034" y="705" on="0"/>
      </contour>
    </TTGlyph>
    <TTGlyph name="agrave" xMin="106" yMin="-14" xMax="1014" yMax="1378">
      <contour>
        <pt x="106" y="301" on="1"/>
        <pt x="106" y="332" on="0"/>
        <pt x="121" y="397" on="0"/>
        <pt x="176" y="489" on="0"/>
        <pt x="266" y="559" on="0"/>
        <pt x="444" y="608" on="0"/>
        <pt x="563" y="608" on="1"/>
        <pt x="626" y="608" on="0"/>
        <pt x="655" y="606" on="1"/>
        <pt x="655" y="690" on="0"/>
        <pt x="573" y="762" on="0"/>
        <pt x="518" y="762" on="1"/>
        <pt x="364" y="762" on="0"/>
        <pt x="207" y="698" on="1"/>
        <pt x="207" y="965" on="1"/>
        <pt x="385" y="1036" on="0"/>
        <pt x="543" y="1036" on="1"/>
        <pt x="768" y="1036" on="0"/>
        <pt x="1014" y="807" on="0"/>
        <pt x="1014" y="592" on="1"/>
        <pt x="1014" y="350" on="1"/>
        <pt x="1014" y="160" on="0"/>
        <pt x="809" y="-14" on="0"/>
        <pt x="545" y="-14" on="1"/>
        <pt x="107" y="-14" on="0"/>
      </contour>
      <contour>
        <pt x="326" y="1378" on="1"/>
        <pt x="565" y="1378" on="1"/>
        <pt x="692" y="1139" on="1"/>
        <pt x="516" y="1139" on="1"/>
      </contour>
      <contour>
        <pt x="459" y="362" on="1"/>
        <pt x="459" y="254" on="0"/>
        <pt x="557" y="254" on="1"/>
        <pt x="558" y="254" on="0"/>
        <pt x="559" y="254" on="1"/>
        <pt x="608" y="254" on="0"/>
        <pt x="662" y="332" on="0"/>
        <pt x="662" y="375" on="1"/>
        <pt x="662" y="461" on="1"/>
        <pt x="613" y="465" on="0"/>
        <pt x="594" y="465" on="1"/>
        <pt x="459" y="465" on="0"/>
      </contour>
    </TTGlyph>
    <TTGlyph name="ampersand" xMin="113" yMin="-16" xMax="1309" yMax="1374">
      <contour>
        <pt x="113" y="397" on="1"/>
        <pt x="113" y="510" on="0"/>
        <pt x="203" y="698" on="0"/>
        <pt x="350" y="793" on="1"/>
        <pt x="350" y="795" on="0"/>
        <pt x="341" y="806" on="1"/>
        <pt x="326" y="826" on="1"/>
        <pt x="319" y="834" on="0"/>
        <pt x="297" y="866" on="0"/>
        <pt x="281" y="895" on="0"/>
        <pt x="262" y="938" on="0"/>
        <pt x="250" y="977" on="0"/>
        <pt x="242" y="1024" on="0"/>
        <pt x="242" y="1047" on="1"/>
        <pt x="242" y="1184" on="0"/>
        <pt x="414" y="1374" on="0"/>
        <pt x="575" y="1374" on="1"/>
        <pt x="735" y="1374" on="0"/>
        <pt x="913" y="1192" on="0"/>
        <pt x="913" y="1044" on="1"/>
        <pt x="913" y="933" on="0"/>
        <pt x="819" y="797" on="0"/>
        <pt x="705" y="725" on="1"/>
        <pt x="727" y="698" on="1"/>
        <pt x="741" y="680" on="0"/>
        <pt x="786" y="628" on="1"/>
        <pt x="893" y="502" on="1"/>
        <pt x="924" y="633" on="1"/>
        <pt x="1159" y="633" on="1"/>
        <pt x="1127" y="438" on="0"/>
        <pt x="1055" y="305" on="1"/>
        <pt x="1309" y="0" on="1"/>
        <pt x="1001" y="0" on="1"/>
        <pt x="909" y="117" on="1"/>
        <pt x="762" y="-16" on="0"/>
        <pt x="557" y="-16" on="1"/>
        <pt x="442" y="-16" on="0"/>
        <pt x="264" y="66" on="0"/>
        <pt x="164" y="195" on="0"/>
        <pt x="113" y="332" on="0"/>
      </contour>
      <contour>
        <pt x="342" y="391" on="1"/>
        <pt x="342" y="368" on="0"/>
        <pt x="360" y="311" on="0"/>
        <pt x="406" y="248" on="0"/>
        <pt x="498" y="205" on="0"/>
        <pt x="561" y="205" on="1"/>
        <pt x="680" y="205" on="0"/>
        <pt x="768" y="289" on="1"/>
        <pt x="500" y="612" on="1"/>
        <pt x="443" y="581" on="0"/>
        <pt x="373" y="516" on="0"/>
        <pt x="346" y="453" on="0"/>
        <pt x="342" y="420" on="0"/>
      </contour>
      <contour>
        <pt x="469" y="1049" on="1"/>
        <pt x="469" y="1008" on="0"/>
        <pt x="551" y="905" on="1"/>
        <pt x="633" y="952" on="0"/>
        <pt x="686" y="1018" on="0"/>
        <pt x="686" y="1057" on="1"/>
        <pt x="686" y="1100" on="0"/>
        <pt x="623" y="1161" on="0"/>
        <pt x="532" y="1161" on="0"/>
        <pt x="469" y="1096" on="0"/>
      </contour>
    </TTGlyph>
    <TTGlyph name="aring" xMin="106" yMin="-14" xMax="1014" yMax="1448">
      <contour>
        <pt x="106" y="301" on="1"/>
        <pt x="106" y="332" on="0"/>
        <pt x="121" y="397" on="0"/>
        <pt x="176" y="489" on="0"/>
        <pt x="266" y="559" on="0"/>
        <pt x="444" y="608" on="0"/>
        <pt x="563" y="608" on="1"/>
        <pt x="626" y="608" on="0"/>
        <pt x="655" y="606" on="1"/>
        <pt x="655" y="690" on="0"/>
        <pt x="573" y="762" on="0"/>
        <pt x="518" y="762" on="1"/>
        <pt x="364" y="762" on="0"/>
        <pt x="207" y="698" on="1"/>
        <pt x="207" y="965" on="1"/>
        <pt x="385" y="1036" on="0"/>
        <pt x="543" y="1036" on="1"/>
        <pt x="768" y="1036" on="0"/>
        <pt x="1014" y="807" on="0"/>
        <pt x="1014" y="592" on="1"/>
        <pt x="1014" y="350" on="1"/>
        <pt x="1014" y="160" on="0"/>
        <pt x="809" y="-14" on="0"/>
        <pt x="545" y="-14" on="1"/>
        <pt x="107" y="-14" on="0"/>
      </contour>
      <contour>
        <pt x="385" y="1188" on="0"/>
        <pt x="385" y="1356" on="0"/>
        <pt x="479" y="1448" on="0"/>
        <pt x="563" y="1448" on="1"/>
        <pt x="649" y="1448" on="0"/>
        <pt x="741" y="1356" on="0"/>
        <pt x="741" y="1188" on="0"/>
        <pt x="649" y="1096" on="0"/>
        <pt x="563" y="1096" on="1"/>
        <pt x="479" y="1096" on="0"/>
      </contour>
      <contour>
        <pt x="459" y="362" on="1"/>
        <pt x="459" y="254" on="0"/>
        <pt x="557" y="254" on="1"/>
        <pt x="558" y="254" on="0"/>
        <pt x="559" y="254" on="1"/>
        <pt x="608" y="254" on="0"/>
        <pt x="662" y="332" on="0"/>
        <pt x="662" y="375" on="1"/>
        <pt x="662" y="461" on="1"/>
        <pt x="613" y="465" on="0"/>
        <pt x="594" y="465" on="1"/>
        <pt x="459" y="465" on="0"/>
      </contour>
      <contour>
        <pt x="512" y="1272" on="1"/>
        <pt x="512" y="1235" on="0"/>
        <pt x="535" y="1208" on="0"/>
        <pt x="592" y="1208" on="0"/>
        <pt x="614" y="1235" on="0"/>
        <pt x="614" y="1272" on="1"/>
        <pt x="614" y="1335" on="0"/>
        <pt x="512" y="1335" on="0"/>
      </contour>
    </TTGlyph>
    <TTGlyph name="asciicircum" xMin="246" yMin="958" xMax="965" yMax="1413">
      <contour>
        <pt x="246" y="958" on="1"/>
        <pt x="528" y="1413" on="1"/>
        <pt x="676" y="1413" on="1"/>
        <pt x="965" y="958" on="1"/>
        <pt x="735" y="958" on="1"/>
        <pt x="604" y="1202" on="1"/>
        <pt x="473" y="958" on="1"/>
      </contour>
    </TTGlyph>
    <TTGlyph name="asciitilde" xMin="201" yMin="421" xMax="870" yMax="718">
      <contour>
        <pt x="201" y="457" on="1"/>
        <pt x="201" y="643" on="1"/>
        <pt x="258" y="711" on="0"/>
        <pt x="330" y="717" on="1"/>
        <pt x="341" y="718" on="0"/>
        <pt x="353" y="718" on="1"/>
        <pt x="412" y="718" on="0"/>
        <pt x="469" y="692" on="1"/>
        <pt x="604" y="632" on="1"/>
        <pt x="661" y="607" on="0"/>
        <pt x="719" y="607" on="1"/>
        <pt x="731" y="607" on="0"/>
        <pt x="742" y="608" on="1"/>
        <pt x="813" y="614" on="0"/>
        <pt x="870" y="682" on="1"/>
        <pt x="870" y="496" on="1"/>
        <pt x="813" y="428" on="0"/>
        <pt x="742" y="422" on="1"/>
        <pt x="731" y="421" on="0"/>
        <pt x="719" y="421" on="1"/>
        <pt x="661" y="421" on="0"/>
        <pt x="604" y="446" on="1"/>
        <pt x="469" y="506" on="1"/>
        <pt x="413" y="532" on="0"/>
        <pt x="354" y="532" on="1"/>
        <pt x="342" y="532" on="0"/>
        <pt x="330" y="530" on="1"/>
        <pt x="258" y="524" on="0"/>
      </contour>
    </TTGlyph>
    <TTGlyph name="asterisk" xMin="172" yMin="942" xMax="684" yMax="1438">
      <contour>
        <pt x="172" y="1133" on="1"/>
        <pt x="330" y="1190" on="1"/>
        <pt x="172" y="1247" on="1"/>
        <pt x="250" y="1386" on="1"/>
        <pt x="360" y="1307" on="1"/>
        <pt x="348" y="1438" on="1"/>
        <pt x="508" y="1438" on="1"/>
        <pt x="498" y="1307" on="1"/>
        <pt x="606" y="1386" on="1"/>
        <pt x="684" y="1247" on="1"/>
        <pt x="528" y="1190" on="1"/>
        <pt x="684" y="1133" on="1"/>
        <pt x="606" y="993" on="1"/>
        <pt x="498" y="1073" on="1"/>
        <pt x="508" y="942" on="1"/>
        <pt x="348" y="942" on="1"/>
        <pt x="360" y="1073" on="1"/>
        <pt x="250" y="993" on="1"/>
      </contour>
    </TTGlyph>
    <TTGlyph name="at" xMin="166" yMin="-307" xMax="1722" yMax="1233">
      <contour>
        <pt x="166" y="373" on="1"/>
        <pt x="166" y="555" on="0"/>
        <pt x="324" y="883" on="0"/>
        <pt x="573" y="1104" on="0"/>
        <pt x="884" y="1233" on="0"/>
        <pt x="1038" y="1233" on="1"/>
        <pt x="1144" y="1233" on="0"/>
        <pt x="1372" y="1157" on="0"/>
        <pt x="1585" y="1008" on="0"/>
        <pt x="1722" y="735" on="0"/>
        <pt x="1722" y="563" on="1"/>
        <pt x="1722" y="356" on="0"/>
        <pt x="1538" y="45" on="0"/>
        <pt x="1362" y="45" on="1"/>
        <pt x="1294" y="45" on="0"/>
        <pt x="1202" y="127" on="0"/>
        <pt x="1184" y="176" on="1"/>
        <pt x="1153" y="119" on="0"/>
        <pt x="1008" y="45" on="0"/>
        <pt x="905" y="45" on="1"/>
        <pt x="749" y="45" on="0"/>
        <pt x="569" y="186" on="0"/>
        <pt x="569" y="309" on="1"/>
        <pt x="569" y="362" on="0"/>
        <pt x="604" y="457" on="0"/>
        <pt x="696" y="553" on="0"/>
        <pt x="891" y="610" on="0"/>
        <pt x="1032" y="610" on="1"/>
        <pt x="1067" y="610" on="0"/>
        <pt x="1137" y="606" on="1"/>
        <pt x="1135" y="672" on="0"/>
        <pt x="1069" y="739" on="0"/>
        <pt x="973" y="739" on="1"/>
        <pt x="811" y="739" on="0"/>
        <pt x="688" y="694" on="1"/>
        <pt x="717" y="872" on="1"/>
        <pt x="885" y="925" on="0"/>
        <pt x="991" y="926" on="1"/>
        <pt x="1331" y="926" on="0"/>
        <pt x="1331" y="618" on="1"/>
        <pt x="1331" y="569" on="0"/>
        <pt x="1300" y="365" on="0"/>
        <pt x="1300" y="307" on="1"/>
        <pt x="1300" y="184" on="0"/>
        <pt x="1382" y="184" on="1"/>
        <pt x="1452" y="184" on="0"/>
        <pt x="1591" y="383" on="0"/>
        <pt x="1591" y="563" on="1"/>
        <pt x="1591" y="725" on="0"/>
        <pt x="1415" y="977" on="0"/>
        <pt x="1165" y="1098" on="0"/>
        <pt x="1032" y="1098" on="1"/>
        <pt x="745" y="1098" on="0"/>
        <pt x="301" y="662" on="0"/>
        <pt x="301" y="367" on="1"/>
        <pt x="301" y="242" on="0"/>
        <pt x="389" y="39" on="0"/>
        <pt x="516" y="-74" on="0"/>
        <pt x="674" y="-150" on="0"/>
        <pt x="793" y="-176" on="0"/>
        <pt x="836" y="-176" on="1"/>
        <pt x="1094" y="-176" on="0"/>
        <pt x="1305" y="-72" on="1"/>
        <pt x="1282" y="-221" on="1"/>
        <pt x="1098" y="-307" on="0"/>
        <pt x="838" y="-307" on="1"/>
        <pt x="732" y="-307" on="0"/>
        <pt x="510" y="-231" on="0"/>
        <pt x="299" y="-80" on="0"/>
        <pt x="166" y="195" on="0"/>
      </contour>
      <contour>
        <pt x="766" y="313" on="1"/>
        <pt x="766" y="242" on="0"/>
        <pt x="905" y="242" on="1"/>
        <pt x="1016" y="242" on="0"/>
        <pt x="1102" y="334" on="0"/>
        <pt x="1112" y="446" on="1"/>
        <pt x="1085" y="448" on="0"/>
        <pt x="1032" y="449" on="1"/>
        <pt x="766" y="449" on="0"/>
      </contour>
    </TTGlyph>
    <TTGlyph name="atilde" xMin="106" yMin="-14" xMax="1014" yMax="1402">
      <contour>
        <pt x="106" y="301" on="1"/>
        <pt x="106" y="332" on="0"/>
        <pt x="121" y="397" on="0"/>
        <pt x="176" y="489" on="0"/>
        <pt x="266" y="559" on="0"/>
        <pt x="444" y="608" on="0"/>
        <pt x="563" y="608" on="1"/>
        <pt x="626" y="608" on="0"/>
        <pt x="655" y="606" on="1"/>
        <pt x="655" y="690" on="0"/>
        <pt x="573" y="762" on="0"/>
        <pt x="518" y="762" on="1"/>
        <pt x="364" y="762" on="0"/>
        <pt x="207" y="698" on="1"/>
        <pt x="207" y="965" on="1"/>
        <pt x="385" y="1036" on="0"/>
        <pt x="543" y="1036" on="1"/>
        <pt x="768" y="1036" on="0"/>
        <pt x="1014" y="807" on="0"/>
        <pt x="1014" y="592" on="1"/>
        <pt x="1014" y="350" on="1"/>
        <pt x="1014" y="160" on="0"/>
        <pt x="809" y="-14" on="0"/>
        <pt x="545" y="-14" on="1"/>
        <pt x="107" y="-14" on="0"/>
      </contour>
      <contour>
        <pt x="252" y="1153" on="1"/>
        <pt x="252" y="1327" on="1"/>
        <pt x="309" y="1395" on="0"/>
        <pt x="376" y="1401" on="1"/>
        <pt x="386" y="1402" on="0"/>
        <pt x="397" y="1402" on="1"/>
        <pt x="452" y="1402" on="0"/>
        <pt x="502" y="1376" on="1"/>
        <pt x="624" y="1316" on="1"/>
        <pt x="676" y="1291" on="0"/>
        <pt x="730" y="1291" on="1"/>
        <pt x="741" y="1291" on="0"/>
        <pt x="752" y="1292" on="1"/>
        <pt x="817" y="1298" on="0"/>
        <pt x="874" y="1366" on="1"/>
        <pt x="874" y="1192" on="1"/>
        <pt x="817" y="1124" on="0"/>
        <pt x="752" y="1118" on="1"/>
        <pt x="740" y="1117" on="0"/>
        <pt x="729" y="1117" on="1"/>
        <pt x="676" y="1117" on="0"/>
        <pt x="624" y="1142" on="1"/>
        <pt x="502" y="1202" on="1"/>
        <pt x="452" y="1228" on="0"/>
        <pt x="397" y="1228" on="1"/>
        <pt x="386" y="1228" on="0"/>
        <pt x="376" y="1227" on="1"/>
        <pt x="309" y="1221" on="0"/>
      </contour>
      <contour>
        <pt x="459" y="362" on="1"/>
        <pt x="459" y="254" on="0"/>
        <pt x="557" y="254" on="1"/>
        <pt x="558" y="254" on="0"/>
        <pt x="559" y="254" on="1"/>
        <pt x="608" y="254" on="0"/>
        <pt x="662" y="332" on="0"/>
        <pt x="662" y="375" on="1"/>
        <pt x="662" y="461" on="1"/>
        <pt x="613" y="465" on="0"/>
        <pt x="594" y="465" on="1"/>
        <pt x="459" y="465" on="0"/>
      </contour>
    </TTGlyph>
    <TTGlyph name="b" xMin="160" yMin="-16" xMax="1108" yMax="1413">
      <contour>
        <pt x="160" y="348" on="1"/>
        <pt x="160" y="1413" on="1"/>
        <pt x="510" y="1413" on="1"/>
        <pt x="510" y="1030" on="1"/>
        <pt x="539" y="1034" on="0"/>
        <pt x="643" y="1034" on="1"/>
        <pt x="866" y="1034" on="0"/>
        <pt x="1108" y="768" on="0"/>
        <pt x="1108" y="518" on="1"/>
        <pt x="1108" y="-16" on="0"/>
        <pt x="606" y="-16" on="1"/>
        <pt x="605" y="-16" on="0"/>
        <pt x="604" y="-16" on="1"/>
        <pt x="467" y="-16" on="0"/>
        <pt x="283" y="45" on="0"/>
        <pt x="195" y="158" on="0"/>
        <pt x="160" y="274" on="0"/>
      </contour>
      <contour>
        <pt x="510" y="287" on="1"/>
        <pt x="510" y="258" on="0"/>
        <pt x="563" y="213" on="0"/>
        <pt x="618" y="213" on="1"/>
        <pt x="690" y="213" on="0"/>
        <pt x="756" y="393" on="0"/>
        <pt x="756" y="530" on="1"/>
        <pt x="756" y="663" on="0"/>
        <pt x="666" y="815" on="0"/>
        <pt x="578" y="815" on="1"/>
        <pt x="560" y="815" on="0"/>
        <pt x="510" y="811" on="1"/>
      </contour>
    </TTGlyph>
    <TTGlyph name="backslash" xMin="-76" yMin="-201" xMax="932" yMax="1548">
      <contour>
        <pt x="-76" y="1548" on="1"/>
        <pt x="180" y="1548" on="1"/>
        <pt x="932" y="-201" on="1"/>
        <pt x="678" y="-201" on="1"/>
      </contour>
    </TTGlyph>
    <TTGlyph name="bar" xMin="379" yMin="-203" xMax="649" yMax="1366">
      <contour>
        <pt x="379" y="-203" on="1"/>
        <pt x="379" y="1366" on="1"/>
        <pt x="649" y="1366" on="1"/>
        <pt x="649" y="-203" on="1"/>
      </contour>
    </TTGlyph>
    <TTGlyph name="braceleft" xMin="186" yMin="-223" xMax="674" yMax="1432">
      <contour>
        <pt x="186" y="485" on="1"/>
        <pt x="186" y="723" on="1"/>
        <pt x="190" y="723" on="0"/>
        <pt x="205" y="727" on="0"/>
        <pt x="240" y="743" on="0"/>
        <pt x="266" y="766" on="0"/>
        <pt x="289" y="809" on="0"/>
        <pt x="289" y="836" on="1"/>
        <pt x="289" y="1106" on="1"/>
        <pt x="289" y="1251" on="0"/>
        <pt x="451" y="1432" on="0"/>
        <pt x="612" y="1432" on="1"/>
        <pt x="674" y="1432" on="1"/>
        <pt x="674" y="1196" on="1"/>
        <pt x="629" y="1196" on="1"/>
        <pt x="584" y="1196" on="0"/>
        <pt x="537" y="1151" on="0"/>
        <pt x="530" y="1106" on="0"/>
        <pt x="530" y="1061" on="1"/>
        <pt x="530" y="823" on="1"/>
        <pt x="530" y="729" on="0"/>
        <pt x="418" y="623" on="0"/>
        <pt x="336" y="604" on="1"/>
        <pt x="418" y="586" on="0"/>
        <pt x="530" y="479" on="0"/>
        <pt x="530" y="385" on="1"/>
        <pt x="530" y="147" on="1"/>
        <pt x="530" y="102" on="0"/>
        <pt x="537" y="57" on="0"/>
        <pt x="584" y="12" on="0"/>
        <pt x="629" y="12" on="1"/>
        <pt x="674" y="12" on="1"/>
        <pt x="674" y="-223" on="1"/>
        <pt x="612" y="-223" on="1"/>
        <pt x="450" y="-223" on="0"/>
        <pt x="289" y="-43" on="0"/>
        <pt x="289" y="102" on="1"/>
        <pt x="289" y="373" on="1"/>
        <pt x="289" y="414" on="0"/>
        <pt x="238" y="471" on="0"/>
        <pt x="213" y="479" on="1"/>
      </contour>
    </TTGlyph>
    <TTGlyph name="braceright" xMin="156" yMin="-223" xMax="643" yMax="1432">
      <contour>
        <pt x="156" y="12" on="1"/>
        <pt x="201" y="12" on="1"/>
        <pt x="246" y="12" on="0"/>
        <pt x="293" y="57" on="0"/>
        <pt x="299" y="102" on="0"/>
        <pt x="299" y="147" on="1"/>
        <pt x="299" y="385" on="1"/>
        <pt x="299" y="479" on="0"/>
        <pt x="412" y="586" on="0"/>
        <pt x="494" y="604" on="1"/>
        <pt x="412" y="622" on="0"/>
        <pt x="299" y="729" on="0"/>
        <pt x="299" y="823" on="1"/>
        <pt x="299" y="1061" on="1"/>
        <pt x="299" y="1106" on="0"/>
        <pt x="293" y="1151" on="0"/>
        <pt x="246" y="1196" on="0"/>
        <pt x="201" y="1196" on="1"/>
        <pt x="156" y="1196" on="1"/>
        <pt x="156" y="1432" on="1"/>
        <pt x="217" y="1432" on="1"/>
        <pt x="379" y="1432" on="0"/>
        <pt x="541" y="1251" on="0"/>
        <pt x="541" y="1106" on="1"/>
        <pt x="541" y="836" on="1"/>
        <pt x="541" y="795" on="0"/>
        <pt x="592" y="737" on="0"/>
        <pt x="618" y="729" on="1"/>
        <pt x="643" y="723" on="1"/>
        <pt x="643" y="485" on="1"/>
        <pt x="639" y="485" on="0"/>
        <pt x="625" y="481" on="0"/>
        <pt x="590" y="465" on="0"/>
        <pt x="563" y="442" on="0"/>
        <pt x="541" y="399" on="0"/>
        <pt x="541" y="373" on="1"/>
        <pt x="541" y="102" on="1"/>
        <pt x="541" y="-43" on="0"/>
        <pt x="379" y="-223" on="0"/>
        <pt x="217" y="-223" on="1"/>
        <pt x="156" y="-223" on="1"/>
      </contour>
    </TTGlyph>
    <TTGlyph name="bracketleft" xMin="244" yMin="-238" xMax="680" yMax="1425">
      <contour>
        <pt x="244" y="-238" on="1"/>
        <pt x="244" y="1425" on="1"/>
        <pt x="680" y="1425" on="1"/>
        <pt x="680" y="1178" on="1"/>
        <pt x="471" y="1178" on="1"/>
        <pt x="471" y="10" on="1"/>
        <pt x="680" y="10" on="1"/>
        <pt x="680" y="-238" on="1"/>
      </contour>
    </TTGlyph>
    <TTGlyph name="bracketright" xMin="172" yMin="-238" xMax="608" yMax="1425">
      <contour>
        <pt x="172" y="10" on="1"/>
        <pt x="381" y="10" on="1"/>
        <pt x="381" y="1178" on="1"/>
        <pt x="172" y="1178" on="1"/>
        <pt x="172" y="1425" on="1"/>
        <pt x="608" y="1425" on="1"/>
        <pt x="608" y="-238" on="1"/>
        <pt x="172" y="-238" on="1"/>
      </contour>
    </TTGlyph>
    <TTGlyph name="bullet" xMin="172" yMin="295" xMax="913" yMax="1036">
      <contour>
        <pt x="172" y="512" on="0"/>
        <pt x="172" y="819" on="0"/>
        <pt x="391" y="1036" on="0"/>
        <pt x="698" y="1036" on="0"/>
        <pt x="913" y="821" on="0"/>
        <pt x="913" y="510" on="0"/>
        <pt x="698" y="295" on="0"/>
        <pt x="391" y="295" on="0"/>
      </contour>
    </TTGlyph>
    <TTGlyph name="c" xMin="119" yMin="-16" xMax="928" yMax="1036">
      <contour>
        <pt x="119" y="256" on="0"/>
        <pt x="119" y="764" on="0"/>
        <pt x="371" y="1036" on="0"/>
        <pt x="606" y="1036" on="1"/>
        <pt x="784" y="1036" on="0"/>
        <pt x="928" y="967" on="1"/>
        <pt x="928" y="705" on="1"/>
        <pt x="789" y="768" on="0"/>
        <pt x="670" y="768" on="1"/>
        <pt x="580" y="768" on="0"/>
        <pt x="471" y="639" on="0"/>
        <pt x="471" y="381" on="0"/>
        <pt x="580" y="252" on="0"/>
        <pt x="670" y="252" on="1"/>
        <pt x="789" y="252" on="0"/>
        <pt x="928" y="315" on="1"/>
        <pt x="928" y="53" on="1"/>
        <pt x="787" y="-16" on="0"/>
        <pt x="611" y="-16" on="1"/>
        <pt x="608" y="-16" on="0"/>
        <pt x="606" y="-16" on="1"/>
        <pt x="370" y="-16" on="0"/>
      </contour>
    </TTGlyph>
    <TTGlyph name="ccedilla" xMin="119" yMin="-250" xMax="928" yMax="1036">
      <contour>
        <pt x="119" y="510" on="1"/>
        <pt x="119" y="764" on="0"/>
        <pt x="371" y="1036" on="0"/>
        <pt x="606" y="1036" on="1"/>
        <pt x="784" y="1036" on="0"/>
        <pt x="928" y="967" on="1"/>
        <pt x="928" y="705" on="1"/>
        <pt x="789" y="768" on="0"/>
        <pt x="670" y="768" on="1"/>
        <pt x="580" y="768" on="0"/>
        <pt x="471" y="639" on="0"/>
        <pt x="471" y="381" on="0"/>
        <pt x="580" y="252" on="0"/>
        <pt x="670" y="252" on="1"/>
        <pt x="789" y="252" on="0"/>
        <pt x="928" y="315" on="1"/>
        <pt x="928" y="53" on="1"/>
        <pt x="822" y="2" on="0"/>
        <pt x="690" y="-10" on="1"/>
        <pt x="565" y="-250" on="1"/>
        <pt x="326" y="-250" on="1"/>
        <pt x="514" y="-10" on="1"/>
        <pt x="321" y="15" on="0"/>
        <pt x="119" y="281" on="0"/>
      </contour>
    </TTGlyph>
    <TTGlyph name="cedilla" xMin="106" yMin="-250" xMax="473" yMax="-10">
      <contour>
        <pt x="106" y="-250" on="1"/>
        <pt x="297" y="-10" on="1"/>
        <pt x="473" y="-10" on="1"/>
        <pt x="346" y="-250" on="1"/>
      </contour>
    </TTGlyph>
    <TTGlyph name="cent" xMin="117" yMin="0" xMax="926" yMax="1366">
      <contour>
        <pt x="117" y="428" on="0"/>
        <pt x="117" y="936" on="0"/>
        <pt x="369" y="1208" on="0"/>
        <pt x="604" y="1208" on="1"/>
        <pt x="633" y="1208" on="1"/>
        <pt x="633" y="1366" on="1"/>
        <pt x="764" y="1366" on="1"/>
        <pt x="764" y="1192" on="1"/>
        <pt x="854" y="1176" on="0"/>
        <pt x="926" y="1139" on="1"/>
        <pt x="926" y="877" on="1"/>
        <pt x="836" y="920" on="0"/>
        <pt x="764" y="932" on="1"/>
        <pt x="764" y="432" on="1"/>
        <pt x="834" y="446" on="0"/>
        <pt x="926" y="487" on="1"/>
        <pt x="926" y="225" on="1"/>
        <pt x="852" y="190" on="0"/>
        <pt x="764" y="172" on="1"/>
        <pt x="764" y="0" on="1"/>
        <pt x="633" y="0" on="1"/>
        <pt x="633" y="156" on="1"/>
        <pt x="604" y="156" on="1"/>
        <pt x="368" y="156" on="0"/>
      </contour>
      <contour>
        <pt x="469" y="682" on="1"/>
        <pt x="469" y="567" on="0"/>
        <pt x="559" y="440" on="0"/>
        <pt x="633" y="428" on="1"/>
        <pt x="633" y="938" on="1"/>
        <pt x="469" y="909" on="0"/>
      </contour>
    </TTGlyph>
    <TTGlyph name="circumflex" xMin="137" yMin="1155" xMax="727" yMax="1405">
      <contour>
        <pt x="137" y="1155" on="1"/>
        <pt x="383" y="1405" on="1"/>
        <pt x="481" y="1405" on="1"/>
        <pt x="727" y="1155" on="1"/>
        <pt x="518" y="1155" on="1"/>
        <pt x="432" y="1245" on="1"/>
        <pt x="346" y="1155" on="1"/>
      </contour>
    </TTGlyph>
    <TTGlyph name="colon" xMin="281" yMin="72" xMax="575" yMax="952">
      <contour>
        <pt x="281" y="72" on="1"/>
        <pt x="281" y="354" on="1"/>
        <pt x="575" y="354" on="1"/>
        <pt x="575" y="72" on="1"/>
      </contour>
      <contour>
        <pt x="281" y="670" on="1"/>
        <pt x="281" y="952" on="1"/>
        <pt x="575" y="952" on="1"/>
        <pt x="575" y="670" on="1"/>
      </contour>
    </TTGlyph>
    <TTGlyph name="comma" xMin="152" yMin="-229" xMax="588" yMax="172">
      <contour>
        <pt x="152" y="-229" on="1"/>
        <pt x="303" y="172" on="1"/>
        <pt x="588" y="172" on="1"/>
        <pt x="391" y="-229" on="1"/>
      </contour>
    </TTGlyph>
    <TTGlyph name="copyright" xMin="98" yMin="-16" xMax="1497" yMax="1382">
      <contour>
        <pt x="98" y="682" on="1"/>
        <pt x="98" y="973" on="0"/>
        <pt x="508" y="1382" on="0"/>
        <pt x="797" y="1382" on="1"/>
        <pt x="1088" y="1382" on="0"/>
        <pt x="1497" y="973" on="0"/>
        <pt x="1497" y="682" on="1"/>
        <pt x="1497" y="393" on="0"/>
        <pt x="1087" y="-16" on="0"/>
        <pt x="797" y="-16" on="1"/>
        <pt x="508" y="-16" on="0"/>
        <pt x="98" y="393" on="0"/>
      </contour>
      <contour>
        <pt x="227" y="682" on="1"/>
        <pt x="227" y="446" on="0"/>
        <pt x="561" y="113" on="0"/>
        <pt x="1032" y="113" on="0"/>
        <pt x="1368" y="446" on="0"/>
        <pt x="1368" y="682" on="1"/>
        <pt x="1368" y="920" on="0"/>
        <pt x="1034" y="1253" on="0"/>
        <pt x="797" y="1253" on="1"/>
        <pt x="561" y="1253" on="0"/>
        <pt x="227" y="920" on="0"/>
      </contour>
      <contour>
        <pt x="430" y="563" on="0"/>
        <pt x="430" y="805" on="0"/>
        <pt x="498" y="975" on="0"/>
        <pt x="612" y="1057" on="0"/>
        <pt x="733" y="1092" on="0"/>
        <pt x="805" y="1092" on="1"/>
        <pt x="922" y="1092" on="0"/>
        <pt x="1063" y="1036" on="1"/>
        <pt x="1063" y="858" on="1"/>
        <pt x="940" y="915" on="0"/>
        <pt x="817" y="915" on="1"/>
        <pt x="637" y="915" on="0"/>
        <pt x="637" y="453" on="0"/>
        <pt x="817" y="453" on="1"/>
        <pt x="940" y="453" on="0"/>
        <pt x="1063" y="510" on="1"/>
        <pt x="1063" y="332" on="1"/>
        <pt x="924" y="275" on="0"/>
        <pt x="805" y="274" on="1"/>
        <pt x="733" y="274" on="0"/>
        <pt x="612" y="309" on="0"/>
        <pt x="498" y="393" on="0"/>
      </contour>
    </TTGlyph>
    <TTGlyph name="d" xMin="129" yMin="-16" xMax="1077" yMax="1413">
      <contour>
        <pt x="129" y="518" on="1"/>
        <pt x="129" y="768" on="0"/>
        <pt x="371" y="1034" on="0"/>
        <pt x="594" y="1034" on="1"/>
        <pt x="698" y="1034" on="0"/>
        <pt x="727" y="1030" on="1"/>
        <pt x="727" y="1413" on="1"/>
        <pt x="1077" y="1413" on="1"/>
        <pt x="1077" y="348" on="1"/>
        <pt x="1077" y="274" on="0"/>
        <pt x="1042" y="158" on="0"/>
        <pt x="954" y="45" on="0"/>
        <pt x="770" y="-16" on="0"/>
        <pt x="633" y="-16" on="1"/>
        <pt x="129" y="-16" on="0"/>
      </contour>
      <contour>
        <pt x="481" y="530" on="1"/>
        <pt x="481" y="393" on="0"/>
        <pt x="546" y="213" on="0"/>
        <pt x="618" y="213" on="1"/>
        <pt x="673" y="213" on="0"/>
        <pt x="727" y="258" on="0"/>
        <pt x="727" y="287" on="1"/>
        <pt x="727" y="811" on="1"/>
        <pt x="678" y="815" on="0"/>
        <pt x="659" y="815" on="1"/>
        <pt x="571" y="815" on="0"/>
        <pt x="481" y="664" on="0"/>
      </contour>
    </TTGlyph>
    <TTGlyph name="degree" xMin="168" yMin="918" xMax="614" yMax="1370">
      <contour>
        <pt x="168" y="1143" on="1"/>
        <pt x="168" y="1254" on="0"/>
        <pt x="283" y="1370" on="0"/>
        <pt x="500" y="1370" on="0"/>
        <pt x="614" y="1253" on="0"/>
        <pt x="614" y="1143" on="1"/>
        <pt x="614" y="1034" on="0"/>
        <pt x="500" y="918" on="0"/>
        <pt x="283" y="918" on="0"/>
        <pt x="168" y="1034" on="0"/>
      </contour>
      <contour>
        <pt x="293" y="1145" on="1"/>
        <pt x="293" y="1088" on="0"/>
        <pt x="340" y="1036" on="0"/>
        <pt x="442" y="1036" on="0"/>
        <pt x="487" y="1087" on="0"/>
        <pt x="487" y="1202" on="0"/>
        <pt x="442" y="1251" on="0"/>
        <pt x="391" y="1251" on="1"/>
        <pt x="293" y="1251" on="0"/>
      </contour>
    </TTGlyph>
    <TTGlyph name="dieresis" xMin="141" yMin="1139" xMax="735" yMax="1362">
      <contour>
        <pt x="141" y="1139" on="1"/>
        <pt x="141" y="1362" on="1"/>
        <pt x="387" y="1362" on="1"/>
        <pt x="387" y="1139" on="1"/>
      </contour>
      <contour>
        <pt x="489" y="1139" on="1"/>
        <pt x="489" y="1362" on="1"/>
        <pt x="735" y="1362" on="1"/>
        <pt x="735" y="1139" on="1"/>
      </contour>
    </TTGlyph>
    <TTGlyph name="divide" xMin="188" yMin="47" xMax="1104" yMax="1022">
      <contour>
        <pt x="188" y="418" on="1"/>
        <pt x="188" y="649" on="1"/>
        <pt x="1104" y="649" on="1"/>
        <pt x="1104" y="418" on="1"/>
      </contour>
      <contour>
        <pt x="520" y="47" on="1"/>
        <pt x="520" y="287" on="1"/>
        <pt x="772" y="287" on="1"/>
        <pt x="772" y="47" on="1"/>
      </contour>
      <contour>
        <pt x="520" y="782" on="1"/>
        <pt x="520" y="1022" on="1"/>
        <pt x="772" y="1022" on="1"/>
        <pt x="772" y="782" on="1"/>
      </contour>
    </TTGlyph>
    <TTGlyph name="dollar" xMin="147" yMin="-221" xMax="1128" yMax="1589">
      <contour>
        <pt x="147" y="952" on="1"/>
        <pt x="147" y="1145" on="0"/>
        <pt x="393" y="1358" on="0"/>
        <pt x="586" y="1372" on="1"/>
        <pt x="586" y="1589" on="1"/>
        <pt x="711" y="1589" on="1"/>
        <pt x="711" y="1374" on="1"/>
        <pt x="879" y="1360" on="0"/>
        <pt x="1022" y="1282" on="1"/>
        <pt x="1022" y="975" on="1"/>
        <pt x="860" y="1071" on="0"/>
        <pt x="711" y="1073" on="1"/>
        <pt x="711" y="829" on="1"/>
        <pt x="799" y="804" on="0"/>
        <pt x="920" y="754" on="0"/>
        <pt x="1057" y="657" on="0"/>
        <pt x="1128" y="496" on="0"/>
        <pt x="1128" y="387" on="1"/>
        <pt x="1128" y="223" on="0"/>
        <pt x="891" y="6" on="0"/>
        <pt x="711" y="-14" on="1"/>
        <pt x="711" y="-221" on="1"/>
        <pt x="586" y="-221" on="1"/>
        <pt x="586" y="-18" on="1"/>
        <pt x="336" y="-6" on="0"/>
        <pt x="164" y="115" on="1"/>
        <pt x="164" y="444" on="1"/>
        <pt x="353" y="287" on="0"/>
        <pt x="583" y="287" on="1"/>
        <pt x="585" y="287" on="0"/>
        <pt x="586" y="287" on="1"/>
        <pt x="586" y="530" on="1"/>
        <pt x="492" y="553" on="0"/>
        <pt x="371" y="598" on="0"/>
        <pt x="223" y="690" on="0"/>
        <pt x="147" y="844" on="0"/>
      </contour>
      <contour>
        <pt x="457" y="958" on="1"/>
        <pt x="457" y="901" on="0"/>
        <pt x="586" y="862" on="1"/>
        <pt x="586" y="1065" on="1"/>
        <pt x="457" y="1042" on="0"/>
      </contour>
      <contour>
        <pt x="711" y="299" on="1"/>
        <pt x="831" y="326" on="0"/>
        <pt x="831" y="400" on="1"/>
        <pt x="831" y="460" on="0"/>
        <pt x="711" y="500" on="1"/>
      </contour>
    </TTGlyph>
    <TTGlyph name="e" xMin="131" yMin="-14" xMax="1065" yMax="1038">
      <contour>
        <pt x="131" y="502" on="1"/>
        <pt x="131" y="746" on="0"/>
        <pt x="358" y="1038" on="0"/>
        <pt x="600" y="1038" on="1"/>
        <pt x="829" y="1038" on="0"/>
        <pt x="1065" y="750" on="0"/>
        <pt x="1065" y="541" on="1"/>
        <pt x="1065" y="480" on="0"/>
        <pt x="1059" y="430" on="1"/>
        <pt x="477" y="430" on="1"/>
        <pt x="477" y="358" on="0"/>
        <pt x="612" y="260" on="0"/>
        <pt x="696" y="260" on="1"/>
        <pt x="884" y="260" on="0"/>
        <pt x="1018" y="340" on="1"/>
        <pt x="1018" y="92" on="1"/>
        <pt x="852" y="-14" on="0"/>
        <pt x="616" y="-14" on="1"/>
        <pt x="548" y="-14" on="0"/>
        <pt x="426" y="8" on="0"/>
        <pt x="291" y="78" on="0"/>
        <pt x="195" y="186" on="0"/>
        <pt x="131" y="377" on="0"/>
      </contour>
      <contour>
        <pt x="485" y="641" on="1"/>
        <pt x="715" y="641" on="1"/>
        <pt x="711" y="700" on="0"/>
        <pt x="649" y="815" on="0"/>
        <pt x="551" y="815" on="0"/>
        <pt x="489" y="709" on="0"/>
      </contour>
    </TTGlyph>
    <TTGlyph name="eacute" xMin="131" yMin="-14" xMax="1065" yMax="1378">
      <contour>
        <pt x="131" y="502" on="1"/>
        <pt x="131" y="746" on="0"/>
        <pt x="358" y="1038" on="0"/>
        <pt x="600" y="1038" on="1"/>
        <pt x="829" y="1038" on="0"/>
        <pt x="1065" y="750" on="0"/>
        <pt x="1065" y="541" on="1"/>
        <pt x="1065" y="480" on="0"/>
        <pt x="1059" y="430" on="1"/>
        <pt x="477" y="430" on="1"/>
        <pt x="477" y="358" on="0"/>
        <pt x="612" y="260" on="0"/>
        <pt x="696" y="260" on="1"/>
        <pt x="884" y="260" on="0"/>
        <pt x="1018" y="340" on="1"/>
        <pt x="1018" y="92" on="1"/>
        <pt x="852" y="-14" on="0"/>
        <pt x="616" y="-14" on="1"/>
        <pt x="548" y="-14" on="0"/>
        <pt x="426" y="8" on="0"/>
        <pt x="291" y="78" on="0"/>
        <pt x="195" y="186" on="0"/>
        <pt x="131" y="377" on="0"/>
      </contour>
      <contour>
        <pt x="475" y="1139" on="1"/>
        <pt x="602" y="1378" on="1"/>
        <pt x="842" y="1378" on="1"/>
        <pt x="651" y="1139" on="1"/>
      </contour>
      <contour>
        <pt x="485" y="641" on="1"/>
        <pt x="715" y="641" on="1"/>
        <pt x="711" y="700" on="0"/>
        <pt x="649" y="815" on="0"/>
        <pt x="551" y="815" on="0"/>
        <pt x="489" y="709" on="0"/>
      </contour>
    </TTGlyph>
    <TTGlyph name="ecircumflex" xMin="131" yMin="-14" xMax="1065" yMax="1389">
      <contour>
        <pt x="131" y="502" on="1"/>
        <pt x="131" y="746" on="0"/>
        <pt x="358" y="1038" on="0"/>
        <pt x="600" y="1038" on="1"/>
        <pt x="829" y="1038" on="0"/>
        <pt x="1065" y="750" on="0"/>
        <pt x="1065" y="541" on="1"/>
        <pt x="1065" y="480" on="0"/>
        <pt x="1059" y="430" on="1"/>
        <pt x="477" y="430" on="1"/>
        <pt x="477" y="358" on="0"/>
        <pt x="612" y="260" on="0"/>
        <pt x="696" y="260" on="1"/>
        <pt x="884" y="260" on="0"/>
        <pt x="1018" y="340" on="1"/>
        <pt x="1018" y="92" on="1"/>
        <pt x="852" y="-14" on="0"/>
        <pt x="616" y="-14" on="1"/>
        <pt x="548" y="-14" on="0"/>
        <pt x="426" y="8" on="0"/>
        <pt x="291" y="78" on="0"/>
        <pt x="195" y="186" on="0"/>
        <pt x="131" y="377" on="0"/>
      </contour>
      <contour>
        <pt x="301" y="1139" on="1"/>
        <pt x="547" y="1389" on="1"/>
        <pt x="645" y="1389" on="1"/>
        <pt x="891" y="1139" on="1"/>
        <pt x="682" y="1139" on="1"/>
        <pt x="596" y="1229" on="1"/>
        <pt x="510" y="1139" on="1"/>
      </contour>
      <contour>
        <pt x="485" y="641" on="1"/>
        <pt x="715" y="641" on="1"/>
        <pt x="711" y="700" on="0"/>
        <pt x="649" y="815" on="0"/>
        <pt x="551" y="815" on="0"/>
        <pt x="489" y="709" on="0"/>
      </contour>
    </TTGlyph>
    <TTGlyph name="edieresis" xMin="131" yMin="-14" xMax="1065" yMax="1362">
      <contour>
        <pt x="131" y="502" on="1"/>
        <pt x="131" y="746" on="0"/>
        <pt x="358" y="1038" on="0"/>
        <pt x="600" y="1038" on="1"/>
        <pt x="829" y="1038" on="0"/>
        <pt x="1065" y="750" on="0"/>
        <pt x="1065" y="541" on="1"/>
        <pt x="1065" y="480" on="0"/>
        <pt x="1059" y="430" on="1"/>
        <pt x="477" y="430" on="1"/>
        <pt x="477" y="358" on="0"/>
        <pt x="612" y="260" on="0"/>
        <pt x="696" y="260" on="1"/>
        <pt x="884" y="260" on="0"/>
        <pt x="1018" y="340" on="1"/>
        <pt x="1018" y="92" on="1"/>
        <pt x="852" y="-14" on="0"/>
        <pt x="616" y="-14" on="1"/>
        <pt x="548" y="-14" on="0"/>
        <pt x="426" y="8" on="0"/>
        <pt x="291" y="78" on="0"/>
        <pt x="195" y="186" on="0"/>
        <pt x="131" y="377" on="0"/>
      </contour>
      <contour>
        <pt x="299" y="1139" on="1"/>
        <pt x="299" y="1362" on="1"/>
        <pt x="545" y="1362" on="1"/>
        <pt x="545" y="1139" on="1"/>
      </contour>
      <contour>
        <pt x="485" y="641" on="1"/>
        <pt x="715" y="641" on="1"/>
        <pt x="711" y="700" on="0"/>
        <pt x="649" y="815" on="0"/>
        <pt x="551" y="815" on="0"/>
        <pt x="489" y="709" on="0"/>
      </contour>
      <contour>
        <pt x="647" y="1139" on="1"/>
        <pt x="647" y="1362" on="1"/>
        <pt x="893" y="1362" on="1"/>
        <pt x="893" y="1139" on="1"/>
      </contour>
    </TTGlyph>
    <TTGlyph name="egrave" xMin="131" yMin="-14" xMax="1065" yMax="1393">
      <contour>
        <pt x="131" y="502" on="1"/>
        <pt x="131" y="746" on="0"/>
        <pt x="358" y="1038" on="0"/>
        <pt x="600" y="1038" on="1"/>
        <pt x="829" y="1038" on="0"/>
        <pt x="1065" y="750" on="0"/>
        <pt x="1065" y="541" on="1"/>
        <pt x="1065" y="480" on="0"/>
        <pt x="1059" y="430" on="1"/>
        <pt x="477" y="430" on="1"/>
        <pt x="477" y="358" on="0"/>
        <pt x="612" y="260" on="0"/>
        <pt x="696" y="260" on="1"/>
        <pt x="884" y="260" on="0"/>
        <pt x="1018" y="340" on="1"/>
        <pt x="1018" y="92" on="1"/>
        <pt x="852" y="-14" on="0"/>
        <pt x="616" y="-14" on="1"/>
        <pt x="548" y="-14" on="0"/>
        <pt x="426" y="8" on="0"/>
        <pt x="291" y="78" on="0"/>
        <pt x="195" y="186" on="0"/>
        <pt x="131" y="377" on="0"/>
      </contour>
      <contour>
        <pt x="338" y="1393" on="1"/>
        <pt x="578" y="1393" on="1"/>
        <pt x="705" y="1153" on="1"/>
        <pt x="528" y="1153" on="1"/>
      </contour>
      <contour>
        <pt x="485" y="641" on="1"/>
        <pt x="715" y="641" on="1"/>
        <pt x="711" y="700" on="0"/>
        <pt x="649" y="815" on="0"/>
        <pt x="551" y="815" on="0"/>
        <pt x="489" y="709" on="0"/>
      </contour>
    </TTGlyph>
    <TTGlyph name="eight" xMin="119" yMin="-16" xMax="1147" yMax="1384">
      <contour>
        <pt x="119" y="397" on="1"/>
        <pt x="119" y="520" on="0"/>
        <pt x="276" y="705" on="0"/>
        <pt x="391" y="735" on="1"/>
        <pt x="303" y="760" on="0"/>
        <pt x="172" y="907" on="0"/>
        <pt x="172" y="1008" on="1"/>
        <pt x="172" y="1384" on="0"/>
        <pt x="631" y="1384" on="1"/>
        <pt x="632" y="1384" on="0"/>
        <pt x="633" y="1384" on="1"/>
        <pt x="1092" y="1384" on="0"/>
        <pt x="1092" y="1008" on="1"/>
        <pt x="1092" y="908" on="0"/>
        <pt x="962" y="758" on="0"/>
        <pt x="874" y="735" on="1"/>
        <pt x="987" y="704" on="0"/>
        <pt x="1147" y="520" on="0"/>
        <pt x="1147" y="397" on="1"/>
        <pt x="1147" y="192" on="0"/>
        <pt x="877" y="-16" on="0"/>
        <pt x="389" y="-16" on="0"/>
        <pt x="119" y="193" on="0"/>
      </contour>
      <contour>
        <pt x="473" y="442" on="1"/>
        <pt x="473" y="368" on="0"/>
        <pt x="553" y="272" on="0"/>
        <pt x="633" y="272" on="1"/>
        <pt x="711" y="272" on="0"/>
        <pt x="791" y="369" on="0"/>
        <pt x="791" y="442" on="1"/>
        <pt x="791" y="493" on="0"/>
        <pt x="709" y="578" on="0"/>
        <pt x="633" y="578" on="1"/>
        <pt x="555" y="578" on="0"/>
        <pt x="473" y="494" on="0"/>
      </contour>
      <contour>
        <pt x="514" y="979" on="1"/>
        <pt x="514" y="926" on="0"/>
        <pt x="588" y="866" on="0"/>
        <pt x="633" y="866" on="1"/>
        <pt x="676" y="866" on="0"/>
        <pt x="750" y="926" on="0"/>
        <pt x="750" y="979" on="1"/>
        <pt x="750" y="1022" on="0"/>
        <pt x="688" y="1096" on="0"/>
        <pt x="633" y="1096" on="1"/>
        <pt x="576" y="1096" on="0"/>
        <pt x="514" y="1022" on="0"/>
      </contour>
    </TTGlyph>
    <TTGlyph name="ellipsis" xMin="219" yMin="0" xMax="1638" yMax="283">
      <contour>
        <pt x="219" y="0" on="1"/>
        <pt x="219" y="283" on="1"/>
        <pt x="514" y="283" on="1"/>
        <pt x="514" y="0" on="1"/>
      </contour>
      <contour>
        <pt x="780" y="0" on="1"/>
        <pt x="780" y="283" on="1"/>
        <pt x="1075" y="283" on="1"/>
        <pt x="1075" y="0" on="1"/>
      </contour>
      <contour>
        <pt x="1343" y="0" on="1"/>
        <pt x="1343" y="283" on="1"/>
        <pt x="1638" y="283" on="1"/>
        <pt x="1638" y="0" on="1"/>
      </contour>
    </TTGlyph>
    <TTGlyph name="emdash" xMin="162" yMin="475" xMax="1663" yMax="715">
      <contour>
        <pt x="162" y="475" on="1"/>
        <pt x="162" y="715" on="1"/>
        <pt x="1663" y="715" on="1"/>
        <pt x="1663" y="475" on="1"/>
      </contour>
    </TTGlyph>
    <TTGlyph name="endash" xMin="141" yMin="475" xMax="1001" yMax="715">
      <contour>
        <pt x="141" y="475" on="1"/>
        <pt x="141" y="715" on="1"/>
        <pt x="1001" y="715" on="1"/>
        <pt x="1001" y="475" on="1"/>
      </contour>
    </TTGlyph>
    <TTGlyph name="equal" xMin="250" yMin="285" xMax="1055" yMax="938">
      <contour>
        <pt x="250" y="285" on="1"/>
        <pt x="250" y="524" on="1"/>
        <pt x="1055" y="524" on="1"/>
        <pt x="1055" y="285" on="1"/>
      </contour>
      <contour>
        <pt x="250" y="698" on="1"/>
        <pt x="250" y="938" on="1"/>
        <pt x="1055" y="938" on="1"/>
        <pt x="1055" y="698" on="1"/>
      </contour>
    </TTGlyph>
    <TTGlyph name="eth" xMin="117" yMin="-16" xMax="1126" yMax="1409">
      <contour>
        <pt x="117" y="481" on="1"/>
        <pt x="117" y="612" on="0"/>
        <pt x="199" y="791" on="0"/>
        <pt x="348" y="870" on="0"/>
        <pt x="496" y="901" on="0"/>
        <pt x="592" y="901" on="1"/>
        <pt x="715" y="901" on="0"/>
        <pt x="782" y="874" on="1"/>
        <pt x="768" y="983" on="0"/>
        <pt x="659" y="1038" on="1"/>
        <pt x="508" y="920" on="1"/>
        <pt x="416" y="1034" on="1"/>
        <pt x="477" y="1083" on="1"/>
        <pt x="461" y="1083" on="1"/>
        <pt x="371" y="1083" on="0"/>
        <pt x="262" y="1053" on="1"/>
        <pt x="262" y="1354" on="1"/>
        <pt x="353" y="1384" on="0"/>
        <pt x="481" y="1384" on="1"/>
        <pt x="485" y="1384" on="0"/>
        <pt x="489" y="1384" on="1"/>
        <pt x="651" y="1384" on="0"/>
        <pt x="780" y="1325" on="1"/>
        <pt x="887" y="1409" on="1"/>
        <pt x="979" y="1292" on="1"/>
        <pt x="911" y="1239" on="1"/>
        <pt x="1126" y="1046" on="0"/>
        <pt x="1126" y="633" on="1"/>
        <pt x="1126" y="-16" on="0"/>
        <pt x="621" y="-16" on="1"/>
        <pt x="490" y="-16" on="0"/>
        <pt x="287" y="74" on="0"/>
        <pt x="172" y="221" on="0"/>
        <pt x="117" y="391" on="0"/>
      </contour>
      <contour>
        <pt x="471" y="483" on="1"/>
        <pt x="471" y="452" on="0"/>
        <pt x="485" y="377" on="0"/>
        <pt x="560" y="287" on="0"/>
        <pt x="621" y="287" on="1"/>
        <pt x="687" y="287" on="0"/>
        <pt x="734" y="382" on="1"/>
        <pt x="776" y="469" on="0"/>
        <pt x="776" y="629" on="1"/>
        <pt x="776" y="643" on="0"/>
        <pt x="776" y="657" on="1"/>
        <pt x="723" y="680" on="0"/>
        <pt x="625" y="680" on="1"/>
        <pt x="547" y="680" on="0"/>
        <pt x="471" y="561" on="0"/>
      </contour>
    </TTGlyph>
    <TTGlyph name="exclam" xMin="279" yMin="0" xMax="633" yMax="1366">
      <contour>
        <pt x="279" y="1366" on="1"/>
        <pt x="633" y="1366" on="1"/>
        <pt x="588" y="391" on="1"/>
        <pt x="324" y="391" on="1"/>
      </contour>
      <contour>
        <pt x="297" y="0" on="1"/>
        <pt x="297" y="262" on="1"/>
        <pt x="614" y="262" on="1"/>
        <pt x="614" y="0" on="1"/>
      </contour>
    </TTGlyph>
    <TTGlyph name="exclamdown" xMin="270" yMin="-344" xMax="625" yMax="1022">
      <contour>
        <pt x="270" y="-344" on="1"/>
        <pt x="315" y="631" on="1"/>
        <pt x="580" y="631" on="1"/>
        <pt x="625" y="-344" on="1"/>
      </contour>
      <contour>
        <pt x="289" y="760" on="1"/>
        <pt x="289" y="1022" on="1"/>
        <pt x="606" y="1022" on="1"/>
        <pt x="606" y="760" on="1"/>
      </contour>
    </TTGlyph>
    <TTGlyph name="f" xMin="82" yMin="0" xMax="782" yMax="1446">
      <contour>
        <pt x="82" y="774" on="1"/>
        <pt x="82" y="1022" on="1"/>
        <pt x="227" y="1022" on="1"/>
        <pt x="228" y="1446" on="0"/>
        <pt x="631" y="1446" on="1"/>
        <pt x="715" y="1446" on="0"/>
        <pt x="782" y="1423" on="1"/>
        <pt x="782" y="1212" on="1"/>
        <pt x="753" y="1220" on="0"/>
        <pt x="727" y="1221" on="1"/>
        <pt x="655" y="1221" on="0"/>
        <pt x="580" y="1094" on="0"/>
        <pt x="580" y="1022" on="1"/>
        <pt x="782" y="1022" on="1"/>
        <pt x="782" y="774" on="1"/>
        <pt x="575" y="774" on="1"/>
        <pt x="575" y="0" on="1"/>
        <pt x="223" y="0" on="1"/>
        <pt x="223" y="774" on="1"/>
      </contour>
    </TTGlyph>
    <TTGlyph name="five" xMin="162" yMin="-16" xMax="1114" yMax="1368">
      <contour>
        <pt x="162" y="707" on="1"/>
        <pt x="236" y="1368" on="1"/>
        <pt x="1042" y="1368" on="1"/>
        <pt x="1042" y="1053" on="1"/>
        <pt x="543" y="1053" on="1"/>
        <pt x="532" y="934" on="1"/>
        <pt x="563" y="938" on="0"/>
        <pt x="631" y="938" on="1"/>
        <pt x="860" y="938" on="0"/>
        <pt x="1114" y="688" on="0"/>
        <pt x="1114" y="428" on="1"/>
        <pt x="1114" y="301" on="0"/>
        <pt x="1032" y="119" on="0"/>
        <pt x="889" y="25" on="0"/>
        <pt x="729" y="-16" on="0"/>
        <pt x="635" y="-16" on="1"/>
        <pt x="422" y="-16" on="0"/>
        <pt x="193" y="98" on="1"/>
        <pt x="193" y="432" on="1"/>
        <pt x="406" y="297" on="0"/>
        <pt x="588" y="297" on="1"/>
        <pt x="676" y="297" on="0"/>
        <pt x="764" y="395" on="0"/>
        <pt x="764" y="459" on="1"/>
        <pt x="764" y="541" on="0"/>
        <pt x="674" y="625" on="0"/>
        <pt x="602" y="625" on="1"/>
        <pt x="593" y="625" on="0"/>
        <pt x="585" y="625" on="1"/>
        <pt x="449" y="625" on="0"/>
        <pt x="356" y="565" on="1"/>
      </contour>
    </TTGlyph>
    <TTGlyph name="four" xMin="80" yMin="0" xMax="1149" yMax="1366">
      <contour>
        <pt x="80" y="348" on="1"/>
        <pt x="80" y="618" on="1"/>
        <pt x="678" y="1366" on="1"/>
        <pt x="985" y="1366" on="1"/>
        <pt x="985" y="647" on="1"/>
        <pt x="1149" y="647" on="1"/>
        <pt x="1149" y="348" on="1"/>
        <pt x="985" y="348" on="1"/>
        <pt x="985" y="0" on="1"/>
        <pt x="635" y="0" on="1"/>
        <pt x="635" y="348" on="1"/>
      </contour>
      <contour>
        <pt x="455" y="647" on="1"/>
        <pt x="635" y="647" on="1"/>
        <pt x="635" y="887" on="1"/>
      </contour>
    </TTGlyph>
    <TTGlyph name="g" xMin="127" yMin="-399" xMax="1030" yMax="1036">
      <contour>
        <pt x="127" y="516" on="1"/>
        <pt x="127" y="1036" on="0"/>
        <pt x="618" y="1036" on="1"/>
        <pt x="735" y="1036" on="0"/>
        <pt x="905" y="975" on="0"/>
        <pt x="991" y="868" on="0"/>
        <pt x="1030" y="750" on="0"/>
        <pt x="1030" y="678" on="1"/>
        <pt x="1030" y="41" on="1"/>
        <pt x="1030" y="-10" on="0"/>
        <pt x="1010" y="-113" on="0"/>
        <pt x="946" y="-240" on="0"/>
        <pt x="846" y="-334" on="0"/>
        <pt x="668" y="-399" on="0"/>
        <pt x="553" y="-399" on="1"/>
        <pt x="397" y="-399" on="0"/>
        <pt x="231" y="-346" on="1"/>
        <pt x="231" y="-96" on="1"/>
        <pt x="346" y="-162" on="0"/>
        <pt x="483" y="-162" on="1"/>
        <pt x="585" y="-162" on="0"/>
        <pt x="672" y="-66" on="0"/>
        <pt x="678" y="16" on="1"/>
        <pt x="625" y="12" on="0"/>
        <pt x="580" y="12" on="1"/>
        <pt x="369" y="12" on="0"/>
        <pt x="127" y="274" on="0"/>
      </contour>
      <contour>
        <pt x="479" y="510" on="1"/>
        <pt x="479" y="383" on="0"/>
        <pt x="559" y="219" on="0"/>
        <pt x="629" y="219" on="1"/>
        <pt x="653" y="219" on="0"/>
        <pt x="680" y="225" on="1"/>
        <pt x="680" y="715" on="1"/>
        <pt x="680" y="795" on="0"/>
        <pt x="600" y="795" on="1"/>
        <pt x="543" y="795" on="0"/>
        <pt x="479" y="633" on="0"/>
      </contour>
    </TTGlyph>
    <TTGlyph name="germandbls" xMin="180" yMin="0" xMax="1176" yMax="1384">
      <contour>
        <pt x="180" y="0" on="1"/>
        <pt x="180" y="846" on="1"/>
        <pt x="180" y="1006" on="0"/>
        <pt x="262" y="1229" on="0"/>
        <pt x="401" y="1339" on="0"/>
        <pt x="549" y="1384" on="0"/>
        <pt x="637" y="1384" on="1"/>
        <pt x="873" y="1384" on="0"/>
        <pt x="1116" y="1165" on="0"/>
        <pt x="1116" y="1008" on="1"/>
        <pt x="1116" y="902" on="0"/>
        <pt x="996" y="739" on="0"/>
        <pt x="926" y="719" on="1"/>
        <pt x="1176" y="645" on="0"/>
        <pt x="1176" y="406" on="1"/>
        <pt x="1176" y="185" on="0"/>
        <pt x="1009" y="88" on="1"/>
        <pt x="860" y="1" on="0"/>
        <pt x="618" y="1" on="1"/>
        <pt x="588" y="1" on="0"/>
        <pt x="557" y="2" on="1"/>
        <pt x="557" y="258" on="1"/>
        <pt x="563" y="258" on="0"/>
        <pt x="569" y="258" on="1"/>
        <pt x="693" y="258" on="0"/>
        <pt x="786" y="296" on="1"/>
        <pt x="883" y="336" on="0"/>
        <pt x="883" y="430" on="1"/>
        <pt x="883" y="481" on="0"/>
        <pt x="819" y="547" on="0"/>
        <pt x="700" y="575" on="0"/>
        <pt x="618" y="586" on="0"/>
        <pt x="557" y="588" on="1"/>
        <pt x="557" y="821" on="1"/>
        <pt x="600" y="821" on="0"/>
        <pt x="682" y="834" on="0"/>
        <pt x="776" y="864" on="0"/>
        <pt x="831" y="930" on="0"/>
        <pt x="831" y="979" on="1"/>
        <pt x="831" y="1141" on="0"/>
        <pt x="664" y="1141" on="1"/>
        <pt x="474" y="1141" on="0"/>
        <pt x="473" y="874" on="1"/>
        <pt x="473" y="0" on="1"/>
      </contour>
    </TTGlyph>
    <TTGlyph name="grave" xMin="92" yMin="1153" xMax="459" yMax="1393">
      <contour>
        <pt x="92" y="1393" on="1"/>
        <pt x="332" y="1393" on="1"/>
        <pt x="459" y="1153" on="1"/>
        <pt x="283" y="1153" on="1"/>
      </contour>
    </TTGlyph>
    <TTGlyph name="greater" xMin="238" yMin="72" xMax="1100" yMax="1024">
      <contour>
        <pt x="238" y="72" on="1"/>
        <pt x="238" y="350" on="1"/>
        <pt x="741" y="549" on="1"/>
        <pt x="238" y="745" on="1"/>
        <pt x="238" y="1024" on="1"/>
        <pt x="1100" y="641" on="1"/>
        <pt x="1100" y="455" on="1"/>
      </contour>
    </TTGlyph>
    <TTGlyph name="guillemotleft" xMin="70" yMin="131" xMax="1249" yMax="911">
      <contour>
        <pt x="70" y="522" on="1"/>
        <pt x="416" y="911" on="1"/>
        <pt x="754" y="911" on="1"/>
        <pt x="381" y="522" on="1"/>
        <pt x="754" y="131" on="1"/>
        <pt x="416" y="131" on="1"/>
      </contour>
      <contour>
        <pt x="565" y="522" on="1"/>
        <pt x="911" y="911" on="1"/>
        <pt x="1249" y="911" on="1"/>
        <pt x="877" y="522" on="1"/>
        <pt x="1249" y="131" on="1"/>
        <pt x="911" y="131" on="1"/>
      </contour>
    </TTGlyph>
    <TTGlyph name="guillemotright" xMin="106" yMin="131" xMax="1286" yMax="911">
      <contour>
        <pt x="106" y="131" on="1"/>
        <pt x="479" y="522" on="1"/>
        <pt x="106" y="911" on="1"/>
        <pt x="444" y="911" on="1"/>
        <pt x="791" y="522" on="1"/>
        <pt x="444" y="131" on="1"/>
      </contour>
      <contour>
        <pt x="602" y="131" on="1"/>
        <pt x="975" y="522" on="1"/>
        <pt x="602" y="911" on="1"/>
        <pt x="940" y="911" on="1"/>
        <pt x="1286" y="522" on="1"/>
        <pt x="940" y="131" on="1"/>
      </contour>
    </TTGlyph>
    <TTGlyph name="guilsinglleft" xMin="63" yMin="131" xMax="748" yMax="911">
      <contour>
        <pt x="63" y="522" on="1"/>
        <pt x="410" y="911" on="1"/>
        <pt x="748" y="911" on="1"/>
        <pt x="375" y="522" on="1"/>
        <pt x="748" y="131" on="1"/>
        <pt x="410" y="131" on="1"/>
      </contour>
    </TTGlyph>
    <TTGlyph name="guilsinglright" xMin="80" yMin="131" xMax="764" yMax="911">
      <contour>
        <pt x="80" y="131" on="1"/>
        <pt x="453" y="522" on="1"/>
        <pt x="80" y="911" on="1"/>
        <pt x="418" y="911" on="1"/>
        <pt x="764" y="522" on="1"/>
        <pt x="418" y="131" on="1"/>
      </contour>
    </TTGlyph>
    <TTGlyph name="h" xMin="207" yMin="0" xMax="1186" yMax="1411">
      <contour>
        <pt x="207" y="0" on="1"/>
        <pt x="207" y="1411" on="1"/>
        <pt x="559" y="1411" on="1"/>
        <pt x="559" y="1024" on="1"/>
        <pt x="633" y="1036" on="0"/>
        <pt x="733" y="1036" on="1"/>
        <pt x="946" y="1036" on="0"/>
        <pt x="1186" y="801" on="0"/>
        <pt x="1186" y="602" on="1"/>
        <pt x="1186" y="0" on="1"/>
        <pt x="834" y="0" on="1"/>
        <pt x="834" y="657" on="1"/>
        <pt x="834" y="770" on="0"/>
        <pt x="653" y="770" on="1"/>
        <pt x="598" y="770" on="0"/>
        <pt x="559" y="756" on="1"/>
        <pt x="559" y="0" on="1"/>
      </contour>
    </TTGlyph>
    <TTGlyph name="hyphen" xMin="162" yMin="514" xMax="786" yMax="754">
      <contour>
        <pt x="162" y="514" on="1"/>
        <pt x="162" y="754" on="1"/>
        <pt x="786" y="754" on="1"/>
        <pt x="786" y="514" on="1"/>
      </contour>
    </TTGlyph>
    <TTGlyph name="i" xMin="193" yMin="0" xMax="553" yMax="1407">
      <contour>
        <pt x="193" y="1139" on="1"/>
        <pt x="193" y="1407" on="1"/>
        <pt x="553" y="1407" on="1"/>
        <pt x="553" y="1139" on="1"/>
      </contour>
      <contour>
        <pt x="197" y="0" on="1"/>
        <pt x="197" y="1022" on="1"/>
        <pt x="549" y="1022" on="1"/>
        <pt x="549" y="0" on="1"/>
      </contour>
    </TTGlyph>
    <TTGlyph name="iacute" xMin="197" yMin="0" xMax="653" yMax="1378">
      <contour>
        <pt x="197" y="0" on="1"/>
        <pt x="549" y="0" on="1"/>
        <pt x="549" y="1022" on="1"/>
        <pt x="197" y="1022" on="1"/>
      </contour>
      <contour>
        <pt x="287" y="1139" on="1"/>
        <pt x="414" y="1378" on="1"/>
        <pt x="653" y="1378" on="1"/>
        <pt x="463" y="1139" on="1"/>
      </contour>
    </TTGlyph>
    <TTGlyph name="icircumflex" xMin="78" yMin="0" xMax="668" yMax="1389">
      <contour>
        <pt x="78" y="1139" on="1"/>
        <pt x="324" y="1389" on="1"/>
        <pt x="422" y="1389" on="1"/>
        <pt x="668" y="1139" on="1"/>
        <pt x="459" y="1139" on="1"/>
        <pt x="373" y="1229" on="1"/>
        <pt x="287" y="1139" on="1"/>
      </contour>
      <contour>
        <pt x="197" y="0" on="1"/>
        <pt x="549" y="0" on="1"/>
        <pt x="549" y="1022" on="1"/>
        <pt x="197" y="1022" on="1"/>
      </contour>
    </TTGlyph>
    <TTGlyph name="idieresis" xMin="76" yMin="0" xMax="670" yMax="1362">
      <contour>
        <pt x="76" y="1139" on="1"/>
        <pt x="76" y="1362" on="1"/>
        <pt x="322" y="1362" on="1"/>
        <pt x="322" y="1139" on="1"/>
      </contour>
      <contour>
        <pt x="197" y="0" on="1"/>
        <pt x="549" y="0" on="1"/>
        <pt x="549" y="1022" on="1"/>
        <pt x="197" y="1022" on="1"/>
      </contour>
      <contour>
        <pt x="424" y="1139" on="1"/>
        <pt x="424" y="1362" on="1"/>
        <pt x="670" y="1362" on="1"/>
        <pt x="670" y="1139" on="1"/>
      </contour>
    </TTGlyph>
    <TTGlyph name="igrave" xMin="92" yMin="0" xMax="549" yMax="1393">
      <contour>
        <pt x="92" y="1393" on="1"/>
        <pt x="332" y="1393" on="1"/>
        <pt x="459" y="1153" on="1"/>
        <pt x="283" y="1153" on="1"/>
      </contour>
      <contour>
        <pt x="197" y="0" on="1"/>
        <pt x="549" y="0" on="1"/>
        <pt x="549" y="1022" on="1"/>
        <pt x="197" y="1022" on="1"/>
      </contour>
    </TTGlyph>
    <TTGlyph name="j" xMin="6" yMin="-395" xMax="530" yMax="1407">
      <contour>
        <pt x="6" y="-141" on="1"/>
        <pt x="174" y="-141" on="0"/>
        <pt x="174" y="-16" on="1"/>
        <pt x="174" y="1022" on="1"/>
        <pt x="526" y="1022" on="1"/>
        <pt x="526" y="14" on="1"/>
        <pt x="526" y="-105" on="0"/>
        <pt x="446" y="-270" on="0"/>
        <pt x="297" y="-358" on="0"/>
        <pt x="121" y="-395" on="0"/>
        <pt x="6" y="-395" on="1"/>
      </contour>
      <contour>
        <pt x="170" y="1139" on="1"/>
        <pt x="170" y="1407" on="1"/>
        <pt x="530" y="1407" on="1"/>
        <pt x="530" y="1139" on="1"/>
      </contour>
    </TTGlyph>
    <TTGlyph name="k" xMin="178" yMin="0" xMax="1241" yMax="1405">
      <contour>
        <pt x="178" y="0" on="1"/>
        <pt x="178" y="1405" on="1"/>
        <pt x="530" y="1405" on="1"/>
        <pt x="530" y="774" on="1"/>
        <pt x="745" y="1022" on="1"/>
        <pt x="1196" y="1022" on="1"/>
        <pt x="780" y="571" on="1"/>
        <pt x="1241" y="0" on="1"/>
        <pt x="815" y="0" on="1"/>
        <pt x="565" y="330" on="1"/>
        <pt x="530" y="293" on="1"/>
        <pt x="530" y="0" on="1"/>
      </contour>
    </TTGlyph>
    <TTGlyph name="l" xMin="207" yMin="0" xMax="559" yMax="1411">
      <contour>
        <pt x="207" y="0" on="1"/>
        <pt x="207" y="1411" on="1"/>
        <pt x="559" y="1411" on="1"/>
        <pt x="559" y="0" on="1"/>
      </contour>
    </TTGlyph>
    <TTGlyph name="less" xMin="246" yMin="72" xMax="1108" yMax="1024">
      <contour>
        <pt x="246" y="455" on="1"/>
        <pt x="246" y="641" on="1"/>
        <pt x="1108" y="1024" on="1"/>
        <pt x="1108" y="745" on="1"/>
        <pt x="604" y="549" on="1"/>
        <pt x="1108" y="350" on="1"/>
        <pt x="1108" y="72" on="1"/>
      </contour>
    </TTGlyph>
    <TTGlyph name="logicalnot" xMin="199" yMin="295" xMax="1102" yMax="684">
      <contour>
        <pt x="199" y="465" on="1"/>
        <pt x="199" y="684" on="1"/>
        <pt x="1102" y="684" on="1"/>
        <pt x="1102" y="295" on="1"/>
        <pt x="891" y="295" on="1"/>
        <pt x="891" y="465" on="1"/>
      </contour>
    </TTGlyph>
    <TTGlyph name="m" xMin="203" yMin="0" xMax="1772" yMax="1036">
      <contour>
        <pt x="203" y="0" on="1"/>
        <pt x="203" y="930" on="1"/>
        <pt x="217" y="936" on="1"/>
        <pt x="259" y="952" on="1"/>
        <pt x="285" y="962" on="0"/>
        <pt x="354" y="983" on="0"/>
        <pt x="442" y="1006" on="0"/>
        <pt x="539" y="1024" on="0"/>
        <pt x="653" y="1036" on="0"/>
        <pt x="709" y="1036" on="1"/>
        <pt x="856" y="1036" on="0"/>
        <pt x="958" y="977" on="1"/>
        <pt x="1133" y="1036" on="0"/>
        <pt x="1313" y="1036" on="1"/>
        <pt x="1528" y="1036" on="0"/>
        <pt x="1772" y="815" on="0"/>
        <pt x="1772" y="602" on="1"/>
        <pt x="1772" y="0" on="1"/>
        <pt x="1419" y="0" on="1"/>
        <pt x="1419" y="616" on="1"/>
        <pt x="1419" y="774" on="0"/>
        <pt x="1278" y="774" on="1"/>
        <pt x="1198" y="774" on="0"/>
        <pt x="1137" y="754" on="1"/>
        <pt x="1163" y="677" on="0"/>
        <pt x="1163" y="607" on="1"/>
        <pt x="1163" y="604" on="0"/>
        <pt x="1163" y="602" on="1"/>
        <pt x="1163" y="0" on="1"/>
        <pt x="811" y="0" on="1"/>
        <pt x="811" y="621" on="1"/>
        <pt x="811" y="770" on="0"/>
        <pt x="680" y="770" on="1"/>
        <pt x="679" y="770" on="0"/>
        <pt x="678" y="770" on="1"/>
        <pt x="623" y="770" on="0"/>
        <pt x="555" y="752" on="1"/>
        <pt x="555" y="0" on="1"/>
      </contour>
    </TTGlyph>
    <TTGlyph name="macron" xMin="176" yMin="1139" xMax="655" yMax="1319">
      <contour>
        <pt x="176" y="1139" on="1"/>
        <pt x="176" y="1319" on="1"/>
        <pt x="655" y="1319" on="1"/>
        <pt x="655" y="1139" on="1"/>
      </contour>
    </TTGlyph>
    <TTGlyph name="multiply" xMin="147" yMin="154" xMax="948" yMax="895">
      <contour>
        <pt x="147" y="154" on="1"/>
        <pt x="434" y="524" on="1"/>
        <pt x="150" y="895" on="1"/>
        <pt x="375" y="895" on="1"/>
        <pt x="549" y="672" on="1"/>
        <pt x="725" y="895" on="1"/>
        <pt x="948" y="895" on="1"/>
        <pt x="664" y="524" on="1"/>
        <pt x="948" y="154" on="1"/>
        <pt x="725" y="154" on="1"/>
        <pt x="549" y="377" on="1"/>
        <pt x="375" y="154" on="1"/>
      </contour>
    </TTGlyph>
    <TTGlyph name="n" xMin="178" yMin="0" xMax="1157" yMax="1036">
      <contour>
        <pt x="178" y="0" on="1"/>
        <pt x="178" y="913" on="1"/>
        <pt x="424" y="1036" on="0"/>
        <pt x="686" y="1036" on="1"/>
        <pt x="903" y="1036" on="0"/>
        <pt x="1157" y="805" on="0"/>
        <pt x="1157" y="602" on="1"/>
        <pt x="1157" y="0" on="1"/>
        <pt x="805" y="0" on="1"/>
        <pt x="805" y="657" on="1"/>
        <pt x="805" y="688" on="0"/>
        <pt x="788" y="729" on="0"/>
        <pt x="709" y="770" on="0"/>
        <pt x="633" y="770" on="1"/>
        <pt x="578" y="770" on="0"/>
        <pt x="530" y="758" on="1"/>
        <pt x="530" y="0" on="1"/>
      </contour>
    </TTGlyph>
    <TTGlyph name="nine" xMin="111" yMin="-16" xMax="1120" yMax="1384">
      <contour>
        <pt x="111" y="887" on="1"/>
        <pt x="111" y="977" on="0"/>
        <pt x="166" y="1147" on="0"/>
        <pt x="281" y="1294" on="0"/>
        <pt x="483" y="1384" on="0"/>
        <pt x="614" y="1384" on="1"/>
        <pt x="1120" y="1384" on="0"/>
        <pt x="1120" y="735" on="1"/>
        <pt x="1120" y="542" on="0"/>
        <pt x="1022" y="252" on="0"/>
        <pt x="885" y="100" on="0"/>
        <pt x="696" y="8" on="0"/>
        <pt x="555" y="-16" on="0"/>
        <pt x="483" y="-16" on="1"/>
        <pt x="307" y="-16" on="0"/>
        <pt x="205" y="33" on="1"/>
        <pt x="205" y="330" on="1"/>
        <pt x="350" y="285" on="0"/>
        <pt x="455" y="285" on="1"/>
        <pt x="570" y="285" on="0"/>
        <pt x="762" y="387" on="0"/>
        <pt x="776" y="494" on="1"/>
        <pt x="709" y="467" on="0"/>
        <pt x="586" y="467" on="1"/>
        <pt x="490" y="467" on="0"/>
        <pt x="342" y="498" on="0"/>
        <pt x="193" y="578" on="0"/>
        <pt x="111" y="756" on="0"/>
      </contour>
      <contour>
        <pt x="465" y="885" on="1"/>
        <pt x="465" y="807" on="0"/>
        <pt x="541" y="688" on="0"/>
        <pt x="618" y="688" on="1"/>
        <pt x="716" y="688" on="0"/>
        <pt x="770" y="711" on="1"/>
        <pt x="770" y="725" on="0"/>
        <pt x="770" y="739" on="1"/>
        <pt x="770" y="898" on="0"/>
        <pt x="727" y="986" on="1"/>
        <pt x="680" y="1081" on="0"/>
        <pt x="614" y="1081" on="1"/>
        <pt x="553" y="1081" on="0"/>
        <pt x="479" y="991" on="0"/>
        <pt x="465" y="915" on="0"/>
      </contour>
    </TTGlyph>
    <TTGlyph name="ntilde" xMin="178" yMin="0" xMax="1157" yMax="1402">
      <contour>
        <pt x="178" y="0" on="1"/>
        <pt x="178" y="913" on="1"/>
        <pt x="424" y="1036" on="0"/>
        <pt x="686" y="1036" on="1"/>
        <pt x="903" y="1036" on="0"/>
        <pt x="1157" y="805" on="0"/>
        <pt x="1157" y="602" on="1"/>
        <pt x="1157" y="0" on="1"/>
        <pt x="805" y="0" on="1"/>
        <pt x="805" y="657" on="1"/>
        <pt x="805" y="688" on="0"/>
        <pt x="788" y="729" on="0"/>
        <pt x="709" y="770" on="0"/>
        <pt x="633" y="770" on="1"/>
        <pt x="578" y="770" on="0"/>
        <pt x="530" y="758" on="1"/>
        <pt x="530" y="0" on="1"/>
      </contour>
      <contour>
        <pt x="342" y="1153" on="1"/>
        <pt x="342" y="1327" on="1"/>
        <pt x="399" y="1395" on="0"/>
        <pt x="466" y="1401" on="1"/>
        <pt x="476" y="1402" on="0"/>
        <pt x="487" y="1402" on="1"/>
        <pt x="542" y="1402" on="0"/>
        <pt x="592" y="1376" on="1"/>
        <pt x="714" y="1316" on="1"/>
        <pt x="766" y="1291" on="0"/>
        <pt x="820" y="1291" on="1"/>
        <pt x="831" y="1291" on="0"/>
        <pt x="842" y="1292" on="1"/>
        <pt x="907" y="1298" on="0"/>
        <pt x="965" y="1366" on="1"/>
        <pt x="965" y="1192" on="1"/>
        <pt x="908" y="1124" on="0"/>
        <pt x="842" y="1118" on="1"/>
        <pt x="831" y="1117" on="0"/>
        <pt x="820" y="1117" on="1"/>
        <pt x="766" y="1117" on="0"/>
        <pt x="714" y="1142" on="1"/>
        <pt x="592" y="1202" on="1"/>
        <pt x="542" y="1228" on="0"/>
        <pt x="487" y="1228" on="1"/>
        <pt x="476" y="1228" on="0"/>
        <pt x="466" y="1227" on="1"/>
        <pt x="399" y="1221" on="0"/>
      </contour>
    </TTGlyph>
    <TTGlyph name="numbersign" xMin="152" yMin="39" xMax="1135" yMax="1069">
      <contour>
        <pt x="152" y="248" on="1"/>
        <pt x="152" y="434" on="1"/>
        <pt x="328" y="434" on="1"/>
        <pt x="332" y="461" on="0"/>
        <pt x="347" y="544" on="1"/>
        <pt x="371" y="676" on="1"/>
        <pt x="207" y="676" on="1"/>
        <pt x="207" y="860" on="1"/>
        <pt x="401" y="860" on="1"/>
        <pt x="438" y="1069" on="1"/>
        <pt x="635" y="1069" on="1"/>
        <pt x="598" y="860" on="1"/>
        <pt x="815" y="860" on="1"/>
        <pt x="848" y="1030" on="0"/>
        <pt x="852" y="1069" on="1"/>
        <pt x="1049" y="1069" on="1"/>
        <pt x="1010" y="860" on="1"/>
        <pt x="1135" y="860" on="1"/>
        <pt x="1135" y="676" on="1"/>
        <pt x="981" y="676" on="1"/>
        <pt x="977" y="649" on="0"/>
        <pt x="944" y="481" on="0"/>
        <pt x="938" y="434" on="1"/>
        <pt x="1081" y="434" on="1"/>
        <pt x="1081" y="248" on="1"/>
        <pt x="907" y="248" on="1"/>
        <pt x="901" y="211" on="0"/>
        <pt x="874" y="63" on="0"/>
        <pt x="870" y="39" on="1"/>
        <pt x="674" y="39" on="1"/>
        <pt x="711" y="248" on="1"/>
        <pt x="492" y="248" on="1"/>
        <pt x="484" y="205" on="0"/>
        <pt x="457" y="39" on="1"/>
        <pt x="260" y="39" on="1"/>
        <pt x="299" y="248" on="1"/>
      </contour>
      <contour>
        <pt x="524" y="434" on="1"/>
        <pt x="745" y="434" on="1"/>
        <pt x="784" y="676" on="1"/>
        <pt x="567" y="676" on="1"/>
        <pt x="561" y="629" on="0"/>
        <pt x="528" y="461" on="0"/>
      </contour>
    </TTGlyph>
    <TTGlyph name="o" xMin="92" yMin="-14" xMax="1075" yMax="1034">
      <contour>
        <pt x="92" y="256" on="0"/>
        <pt x="92" y="764" on="0"/>
        <pt x="348" y="1034" on="0"/>
        <pt x="819" y="1034" on="0"/>
        <pt x="1075" y="764" on="0"/>
        <pt x="1075" y="256" on="0"/>
        <pt x="819" y="-14" on="0"/>
        <pt x="348" y="-14" on="0"/>
      </contour>
      <contour>
        <pt x="444" y="780" on="0"/>
        <pt x="444" y="240" on="0"/>
        <pt x="723" y="240" on="0"/>
        <pt x="723" y="780" on="0"/>
      </contour>
    </TTGlyph>
    <TTGlyph name="oacute" xMin="92" yMin="-14" xMax="1075" yMax="1378">
      <contour>
        <pt x="92" y="256" on="0"/>
        <pt x="92" y="764" on="0"/>
        <pt x="348" y="1034" on="0"/>
        <pt x="819" y="1034" on="0"/>
        <pt x="1075" y="764" on="0"/>
        <pt x="1075" y="256" on="0"/>
        <pt x="819" y="-14" on="0"/>
        <pt x="348" y="-14" on="0"/>
      </contour>
      <contour>
        <pt x="444" y="780" on="0"/>
        <pt x="444" y="240" on="0"/>
        <pt x="723" y="240" on="0"/>
        <pt x="723" y="780" on="0"/>
      </contour>
      <contour>
        <pt x="469" y="1139" on="1"/>
        <pt x="596" y="1378" on="1"/>
        <pt x="836" y="1378" on="1"/>
        <pt x="645" y="1139" on="1"/>
      </contour>
    </TTGlyph>
    <TTGlyph name="ocircumflex" xMin="92" yMin="-14" xMax="1075" yMax="1389">
      <contour>
        <pt x="92" y="256" on="0"/>
        <pt x="92" y="764" on="0"/>
        <pt x="348" y="1034" on="0"/>
        <pt x="819" y="1034" on="0"/>
        <pt x="1075" y="764" on="0"/>
        <pt x="1075" y="256" on="0"/>
        <pt x="819" y="-14" on="0"/>
        <pt x="348" y="-14" on="0"/>
      </contour>
      <contour>
        <pt x="289" y="1139" on="1"/>
        <pt x="535" y="1389" on="1"/>
        <pt x="633" y="1389" on="1"/>
        <pt x="879" y="1139" on="1"/>
        <pt x="670" y="1139" on="1"/>
        <pt x="584" y="1229" on="1"/>
        <pt x="498" y="1139" on="1"/>
      </contour>
      <contour>
        <pt x="444" y="780" on="0"/>
        <pt x="444" y="240" on="0"/>
        <pt x="723" y="240" on="0"/>
        <pt x="723" y="780" on="0"/>
      </contour>
    </TTGlyph>
    <TTGlyph name="odieresis" xMin="92" yMin="-14" xMax="1075" yMax="1362">
      <contour>
        <pt x="92" y="256" on="0"/>
        <pt x="92" y="764" on="0"/>
        <pt x="348" y="1034" on="0"/>
        <pt x="819" y="1034" on="0"/>
        <pt x="1075" y="764" on="0"/>
        <pt x="1075" y="256" on="0"/>
        <pt x="819" y="-14" on="0"/>
        <pt x="348" y="-14" on="0"/>
      </contour>
      <contour>
        <pt x="287" y="1139" on="1"/>
        <pt x="287" y="1362" on="1"/>
        <pt x="532" y="1362" on="1"/>
        <pt x="532" y="1139" on="1"/>
      </contour>
      <contour>
        <pt x="444" y="780" on="0"/>
        <pt x="444" y="240" on="0"/>
        <pt x="723" y="240" on="0"/>
        <pt x="723" y="780" on="0"/>
      </contour>
      <contour>
        <pt x="635" y="1139" on="1"/>
        <pt x="635" y="1362" on="1"/>
        <pt x="881" y="1362" on="1"/>
        <pt x="881" y="1139" on="1"/>
      </contour>
    </TTGlyph>
    <TTGlyph name="oe" xMin="125" yMin="-14" xMax="1686" yMax="1038">
      <contour>
        <pt x="125" y="258" on="0"/>
        <pt x="125" y="766" on="0"/>
        <pt x="381" y="1036" on="0"/>
        <pt x="616" y="1036" on="1"/>
        <pt x="806" y="1036" on="0"/>
        <pt x="924" y="950" on="1"/>
        <pt x="1041" y="1038" on="0"/>
        <pt x="1221" y="1038" on="1"/>
        <pt x="1450" y="1038" on="0"/>
        <pt x="1686" y="750" on="0"/>
        <pt x="1686" y="541" on="1"/>
        <pt x="1686" y="480" on="0"/>
        <pt x="1679" y="430" on="1"/>
        <pt x="1098" y="430" on="1"/>
        <pt x="1098" y="358" on="0"/>
        <pt x="1233" y="260" on="0"/>
        <pt x="1317" y="260" on="1"/>
        <pt x="1505" y="260" on="0"/>
        <pt x="1638" y="340" on="1"/>
        <pt x="1638" y="92" on="1"/>
        <pt x="1472" y="-14" on="0"/>
        <pt x="1237" y="-14" on="1"/>
        <pt x="1044" y="-14" on="0"/>
        <pt x="926" y="74" on="1"/>
        <pt x="807" y="-12" on="0"/>
        <pt x="616" y="-12" on="1"/>
        <pt x="380" y="-12" on="0"/>
      </contour>
      <contour>
        <pt x="477" y="782" on="0"/>
        <pt x="477" y="242" on="0"/>
        <pt x="756" y="242" on="0"/>
        <pt x="756" y="782" on="0"/>
      </contour>
      <contour>
        <pt x="1106" y="641" on="1"/>
        <pt x="1335" y="641" on="1"/>
        <pt x="1331" y="700" on="0"/>
        <pt x="1270" y="815" on="0"/>
        <pt x="1171" y="815" on="0"/>
        <pt x="1110" y="709" on="0"/>
      </contour>
    </TTGlyph>
    <TTGlyph name="ograve" xMin="92" yMin="-14" xMax="1075" yMax="1378">
      <contour>
        <pt x="92" y="256" on="0"/>
        <pt x="92" y="764" on="0"/>
        <pt x="348" y="1034" on="0"/>
        <pt x="819" y="1034" on="0"/>
        <pt x="1075" y="764" on="0"/>
        <pt x="1075" y="256" on="0"/>
        <pt x="819" y="-14" on="0"/>
        <pt x="348" y="-14" on="0"/>
      </contour>
      <contour>
        <pt x="332" y="1378" on="1"/>
        <pt x="571" y="1378" on="1"/>
        <pt x="698" y="1139" on="1"/>
        <pt x="522" y="1139" on="1"/>
      </contour>
      <contour>
        <pt x="444" y="780" on="0"/>
        <pt x="444" y="240" on="0"/>
        <pt x="723" y="240" on="0"/>
        <pt x="723" y="780" on="0"/>
      </contour>
    </TTGlyph>
    <TTGlyph name="one" xMin="211" yMin="0" xMax="784" yMax="1366">
      <contour>
        <pt x="211" y="840" on="1"/>
        <pt x="211" y="1186" on="1"/>
        <pt x="496" y="1366" on="1"/>
        <pt x="784" y="1366" on="1"/>
        <pt x="784" y="0" on="1"/>
        <pt x="432" y="0" on="1"/>
        <pt x="432" y="975" on="1"/>
      </contour>
    </TTGlyph>
    <TTGlyph name="onehalf" xMin="92" yMin="-45" xMax="1450" yMax="1403">
      <contour>
        <pt x="92" y="1098" on="1"/>
        <pt x="92" y="1284" on="1"/>
        <pt x="246" y="1380" on="1"/>
        <pt x="401" y="1380" on="1"/>
        <pt x="401" y="645" on="1"/>
        <pt x="211" y="645" on="1"/>
        <pt x="211" y="1169" on="1"/>
      </contour>
      <contour>
        <pt x="170" y="-45" on="1"/>
        <pt x="1065" y="1403" on="1"/>
        <pt x="1257" y="1403" on="1"/>
        <pt x="362" y="-45" on="1"/>
      </contour>
      <contour>
        <pt x="946" y="0" on="1"/>
        <pt x="946" y="150" on="1"/>
        <pt x="1257" y="381" on="0"/>
        <pt x="1257" y="496" on="1"/>
        <pt x="1257" y="569" on="0"/>
        <pt x="1164" y="569" on="1"/>
        <pt x="1162" y="569" on="0"/>
        <pt x="1161" y="569" on="1"/>
        <pt x="1063" y="569" on="0"/>
        <pt x="950" y="479" on="1"/>
        <pt x="950" y="672" on="1"/>
        <pt x="1069" y="745" on="0"/>
        <pt x="1177" y="745" on="1"/>
        <pt x="1179" y="745" on="0"/>
        <pt x="1180" y="745" on="1"/>
        <pt x="1317" y="745" on="0"/>
        <pt x="1446" y="608" on="0"/>
        <pt x="1446" y="510" on="1"/>
        <pt x="1446" y="356" on="0"/>
        <pt x="1235" y="170" on="1"/>
        <pt x="1450" y="170" on="1"/>
        <pt x="1450" y="0" on="1"/>
      </contour>
    </TTGlyph>
    <TTGlyph name="onequarter" xMin="92" yMin="-45" xMax="1415" yMax="1403">
      <contour>
        <pt x="92" y="1098" on="1"/>
        <pt x="92" y="1284" on="1"/>
        <pt x="246" y="1380" on="1"/>
        <pt x="401" y="1380" on="1"/>
        <pt x="401" y="645" on="1"/>
        <pt x="211" y="645" on="1"/>
        <pt x="211" y="1169" on="1"/>
      </contour>
      <contour>
        <pt x="170" y="-45" on="1"/>
        <pt x="1065" y="1403" on="1"/>
        <pt x="1257" y="1403" on="1"/>
        <pt x="362" y="-45" on="1"/>
      </contour>
      <contour>
        <pt x="840" y="186" on="1"/>
        <pt x="840" y="332" on="1"/>
        <pt x="1161" y="735" on="1"/>
        <pt x="1327" y="735" on="1"/>
        <pt x="1327" y="348" on="1"/>
        <pt x="1415" y="348" on="1"/>
        <pt x="1415" y="186" on="1"/>
        <pt x="1327" y="186" on="1"/>
        <pt x="1327" y="0" on="1"/>
        <pt x="1139" y="0" on="1"/>
        <pt x="1139" y="186" on="1"/>
      </contour>
      <contour>
        <pt x="1040" y="348" on="1"/>
        <pt x="1139" y="348" on="1"/>
        <pt x="1139" y="477" on="1"/>
      </contour>
    </TTGlyph>
    <TTGlyph name="ordfeminine" xMin="154" yMin="795" xMax="662" yMax="1382">
      <contour>
        <pt x="154" y="994" on="0"/>
        <pt x="170" y="1042" on="0"/>
        <pt x="217" y="1104" on="0"/>
        <pt x="328" y="1143" on="0"/>
        <pt x="410" y="1143" on="1"/>
        <pt x="461" y="1143" on="1"/>
        <pt x="461" y="1229" on="0"/>
        <pt x="383" y="1229" on="1"/>
        <pt x="303" y="1229" on="0"/>
        <pt x="209" y="1194" on="1"/>
        <pt x="209" y="1341" on="1"/>
        <pt x="311" y="1382" on="0"/>
        <pt x="397" y="1382" on="1"/>
        <pt x="522" y="1382" on="0"/>
        <pt x="662" y="1253" on="0"/>
        <pt x="662" y="1135" on="1"/>
        <pt x="662" y="999" on="1"/>
        <pt x="662" y="893" on="0"/>
        <pt x="547" y="795" on="0"/>
        <pt x="399" y="795" on="1"/>
        <pt x="154" y="795" on="0"/>
        <pt x="154" y="970" on="1"/>
      </contour>
      <contour>
        <pt x="350" y="1006" on="1"/>
        <pt x="350" y="945" on="0"/>
        <pt x="408" y="944" on="1"/>
        <pt x="435" y="944" on="0"/>
        <pt x="465" y="989" on="0"/>
        <pt x="465" y="1012" on="1"/>
        <pt x="465" y="1061" on="1"/>
        <pt x="457" y="1061" on="0"/>
        <pt x="432" y="1063" on="0"/>
        <pt x="426" y="1063" on="1"/>
        <pt x="350" y="1063" on="0"/>
      </contour>
    </TTGlyph>
    <TTGlyph name="ordmasculine" xMin="152" yMin="797" xMax="702" yMax="1384">
      <contour>
        <pt x="152" y="1090" on="1"/>
        <pt x="152" y="1233" on="0"/>
        <pt x="295" y="1384" on="0"/>
        <pt x="428" y="1384" on="1"/>
        <pt x="559" y="1384" on="0"/>
        <pt x="702" y="1233" on="0"/>
        <pt x="702" y="1090" on="1"/>
        <pt x="702" y="949" on="0"/>
        <pt x="559" y="797" on="0"/>
        <pt x="428" y="797" on="1"/>
        <pt x="295" y="797" on="0"/>
        <pt x="152" y="948" on="0"/>
      </contour>
      <contour>
        <pt x="348" y="1090" on="1"/>
        <pt x="348" y="940" on="0"/>
        <pt x="428" y="940" on="1"/>
        <pt x="506" y="940" on="0"/>
        <pt x="506" y="1090" on="1"/>
        <pt x="506" y="1241" on="0"/>
        <pt x="429" y="1241" on="1"/>
        <pt x="429" y="1241" on="0"/>
        <pt x="428" y="1241" on="1"/>
        <pt x="348" y="1241" on="0"/>
      </contour>
    </TTGlyph>
    <TTGlyph name="oslash" xMin="23" yMin="-12" xMax="1229" yMax="1036">
      <contour>
        <pt x="23" y="0" on="1"/>
        <pt x="201" y="209" on="1"/>
        <pt x="133" y="328" on="0"/>
        <pt x="133" y="512" on="1"/>
        <pt x="133" y="766" on="0"/>
        <pt x="389" y="1036" on="0"/>
        <pt x="625" y="1036" on="1"/>
        <pt x="766" y="1036" on="0"/>
        <pt x="868" y="987" on="1"/>
        <pt x="899" y="1022" on="1"/>
        <pt x="1229" y="1022" on="1"/>
        <pt x="1051" y="815" on="1"/>
        <pt x="1116" y="696" on="0"/>
        <pt x="1116" y="517" on="1"/>
        <pt x="1116" y="515" on="0"/>
        <pt x="1116" y="512" on="1"/>
        <pt x="1116" y="258" on="0"/>
        <pt x="860" y="-12" on="0"/>
        <pt x="625" y="-12" on="1"/>
        <pt x="486" y="-12" on="0"/>
        <pt x="381" y="37" on="1"/>
        <pt x="350" y="0" on="1"/>
      </contour>
      <contour>
        <pt x="487" y="541" on="1"/>
        <pt x="680" y="768" on="1"/>
        <pt x="652" y="782" on="0"/>
        <pt x="625" y="782" on="1"/>
        <pt x="494" y="782" on="0"/>
      </contour>
      <contour>
        <pt x="569" y="256" on="1"/>
        <pt x="592" y="242" on="0"/>
        <pt x="625" y="242" on="1"/>
        <pt x="756" y="242" on="0"/>
        <pt x="764" y="481" on="1"/>
      </contour>
    </TTGlyph>
    <TTGlyph name="otilde" xMin="92" yMin="-14" xMax="1075" yMax="1402">
      <contour>
        <pt x="92" y="256" on="0"/>
        <pt x="92" y="764" on="0"/>
        <pt x="348" y="1034" on="0"/>
        <pt x="819" y="1034" on="0"/>
        <pt x="1075" y="764" on="0"/>
        <pt x="1075" y="256" on="0"/>
        <pt x="819" y="-14" on="0"/>
        <pt x="348" y="-14" on="0"/>
      </contour>
      <contour>
        <pt x="276" y="1153" on="1"/>
        <pt x="276" y="1327" on="1"/>
        <pt x="333" y="1395" on="0"/>
        <pt x="400" y="1401" on="1"/>
        <pt x="411" y="1402" on="0"/>
        <pt x="422" y="1402" on="1"/>
        <pt x="477" y="1402" on="0"/>
        <pt x="528" y="1376" on="1"/>
        <pt x="650" y="1316" on="1"/>
        <pt x="701" y="1291" on="0"/>
        <pt x="755" y="1291" on="1"/>
        <pt x="766" y="1291" on="0"/>
        <pt x="776" y="1292" on="1"/>
        <pt x="842" y="1298" on="0"/>
        <pt x="899" y="1366" on="1"/>
        <pt x="899" y="1192" on="1"/>
        <pt x="842" y="1124" on="0"/>
        <pt x="776" y="1118" on="1"/>
        <pt x="765" y="1117" on="0"/>
        <pt x="754" y="1117" on="1"/>
        <pt x="701" y="1117" on="0"/>
        <pt x="650" y="1142" on="1"/>
        <pt x="528" y="1202" on="1"/>
        <pt x="477" y="1228" on="0"/>
        <pt x="422" y="1228" on="1"/>
        <pt x="411" y="1228" on="0"/>
        <pt x="400" y="1227" on="1"/>
        <pt x="334" y="1221" on="0"/>
      </contour>
      <contour>
        <pt x="444" y="780" on="0"/>
        <pt x="444" y="240" on="0"/>
        <pt x="723" y="240" on="0"/>
        <pt x="723" y="780" on="0"/>
      </contour>
    </TTGlyph>
    <TTGlyph name="p" xMin="170" yMin="-379" xMax="1118" yMax="1036">
      <contour>
        <pt x="170" y="-379" on="1"/>
        <pt x="170" y="672" on="1"/>
        <pt x="170" y="746" on="0"/>
        <pt x="205" y="862" on="0"/>
        <pt x="293" y="975" on="0"/>
        <pt x="477" y="1036" on="0"/>
        <pt x="614" y="1036" on="1"/>
        <pt x="1118" y="1036" on="0"/>
        <pt x="1118" y="502" on="1"/>
        <pt x="1118" y="252" on="0"/>
        <pt x="876" y="-14" on="0"/>
        <pt x="653" y="-14" on="1"/>
        <pt x="549" y="-14" on="0"/>
        <pt x="520" y="-10" on="1"/>
        <pt x="520" y="-379" on="1"/>
      </contour>
      <contour>
        <pt x="520" y="209" on="1"/>
        <pt x="569" y="205" on="0"/>
        <pt x="588" y="205" on="1"/>
        <pt x="676" y="205" on="0"/>
        <pt x="766" y="356" on="0"/>
        <pt x="766" y="489" on="1"/>
        <pt x="766" y="626" on="0"/>
        <pt x="701" y="807" on="0"/>
        <pt x="629" y="807" on="1"/>
        <pt x="574" y="807" on="0"/>
        <pt x="520" y="762" on="0"/>
        <pt x="520" y="733" on="1"/>
      </contour>
    </TTGlyph>
    <TTGlyph name="paragraph" xMin="80" yMin="0" xMax="991" yMax="1366">
      <contour>
        <pt x="80" y="870" on="1"/>
        <pt x="80" y="1110" on="0"/>
        <pt x="367" y="1366" on="0"/>
        <pt x="637" y="1366" on="1"/>
        <pt x="991" y="1366" on="1"/>
        <pt x="991" y="0" on="1"/>
        <pt x="717" y="0" on="1"/>
        <pt x="717" y="371" on="1"/>
        <pt x="637" y="371" on="1"/>
        <pt x="367" y="371" on="0"/>
        <pt x="80" y="629" on="0"/>
      </contour>
    </TTGlyph>
    <TTGlyph name="parenleft" xMin="190" yMin="-231" xMax="659" yMax="1483">
      <contour>
        <pt x="190" y="627" on="1"/>
        <pt x="190" y="1067" on="0"/>
        <pt x="401" y="1483" on="1"/>
        <pt x="659" y="1483" on="1"/>
        <pt x="449" y="1069" on="0"/>
        <pt x="449" y="631" on="1"/>
        <pt x="449" y="191" on="0"/>
        <pt x="659" y="-231" on="1"/>
        <pt x="401" y="-231" on="1"/>
        <pt x="190" y="191" on="0"/>
      </contour>
    </TTGlyph>
    <TTGlyph name="parenright" xMin="133" yMin="-231" xMax="602" yMax="1483">
      <contour>
        <pt x="133" y="-231" on="1"/>
        <pt x="344" y="191" on="0"/>
        <pt x="344" y="627" on="1"/>
        <pt x="344" y="1067" on="0"/>
        <pt x="133" y="1483" on="1"/>
        <pt x="391" y="1483" on="1"/>
        <pt x="602" y="1067" on="0"/>
        <pt x="602" y="627" on="1"/>
        <pt x="602" y="191" on="0"/>
        <pt x="391" y="-231" on="1"/>
      </contour>
    </TTGlyph>
    <TTGlyph name="percent" xMin="147" yMin="0" xMax="1721" yMax="1366">
      <contour>
        <pt x="147" y="606" on="0"/>
        <pt x="147" y="1360" on="0"/>
        <pt x="436" y="1360" on="1"/>
        <pt x="727" y="1360" on="0"/>
        <pt x="727" y="606" on="0"/>
        <pt x="436" y="606" on="1"/>
      </contour>
      <contour>
        <pt x="354" y="1128" on="0"/>
        <pt x="354" y="838" on="0"/>
        <pt x="436" y="838" on="1"/>
        <pt x="520" y="838" on="0"/>
        <pt x="520" y="983" on="1"/>
        <pt x="520" y="1071" on="0"/>
        <pt x="475" y="1128" on="0"/>
        <pt x="436" y="1128" on="1"/>
      </contour>
      <contour>
        <pt x="387" y="0" on="1"/>
        <pt x="1245" y="1366" on="1"/>
        <pt x="1479" y="1366" on="1"/>
        <pt x="621" y="0" on="1"/>
      </contour>
      <contour>
        <pt x="1141" y="6" on="0"/>
        <pt x="1141" y="760" on="0"/>
        <pt x="1430" y="760" on="1"/>
        <pt x="1721" y="760" on="0"/>
        <pt x="1721" y="384" on="1"/>
        <pt x="1720" y="6" on="0"/>
        <pt x="1430" y="6" on="1"/>
      </contour>
      <contour>
        <pt x="1346" y="528" on="0"/>
        <pt x="1346" y="238" on="0"/>
        <pt x="1430" y="238" on="1"/>
        <pt x="1512" y="238" on="0"/>
        <pt x="1512" y="381" on="1"/>
        <pt x="1512" y="528" on="0"/>
        <pt x="1430" y="528" on="1"/>
      </contour>
    </TTGlyph>
    <TTGlyph name="period" xMin="260" yMin="0" xMax="555" yMax="283">
      <contour>
        <pt x="260" y="0" on="1"/>
        <pt x="260" y="283" on="1"/>
        <pt x="555" y="283" on="1"/>
        <pt x="555" y="0" on="1"/>
      </contour>
    </TTGlyph>
    <TTGlyph name="periodcentered" xMin="215" yMin="420" xMax="510" yMax="702">
      <contour>
        <pt x="215" y="420" on="1"/>
        <pt x="215" y="702" on="1"/>
        <pt x="510" y="702" on="1"/>
        <pt x="510" y="420" on="1"/>
      </contour>
    </TTGlyph>
    <TTGlyph name="plus" xMin="190" yMin="242" xMax="934" yMax="985">
      <contour>
        <pt x="190" y="498" on="1"/>
        <pt x="190" y="727" on="1"/>
        <pt x="449" y="727" on="1"/>
        <pt x="449" y="985" on="1"/>
        <pt x="678" y="985" on="1"/>
        <pt x="678" y="727" on="1"/>
        <pt x="934" y="727" on="1"/>
        <pt x="934" y="498" on="1"/>
        <pt x="678" y="498" on="1"/>
        <pt x="678" y="242" on="1"/>
        <pt x="449" y="242" on="1"/>
        <pt x="449" y="498" on="1"/>
      </contour>
    </TTGlyph>
    <TTGlyph name="plusminus" xMin="236" yMin="12" xMax="979" yMax="1096">
      <contour>
        <pt x="236" y="12" on="1"/>
        <pt x="236" y="227" on="1"/>
        <pt x="979" y="227" on="1"/>
        <pt x="979" y="12" on="1"/>
      </contour>
      <contour>
        <pt x="236" y="608" on="1"/>
        <pt x="236" y="838" on="1"/>
        <pt x="494" y="838" on="1"/>
        <pt x="494" y="1096" on="1"/>
        <pt x="723" y="1096" on="1"/>
        <pt x="723" y="838" on="1"/>
        <pt x="979" y="838" on="1"/>
        <pt x="979" y="608" on="1"/>
        <pt x="723" y="608" on="1"/>
        <pt x="723" y="352" on="1"/>
        <pt x="494" y="352" on="1"/>
        <pt x="494" y="608" on="1"/>
      </contour>
    </TTGlyph>
    <TTGlyph name="q" xMin="115" yMin="-379" xMax="1063" yMax="1036">
      <contour>
        <pt x="115" y="502" on="1"/>
        <pt x="115" y="1036" on="0"/>
        <pt x="616" y="1036" on="1"/>
        <pt x="617" y="1036" on="0"/>
        <pt x="618" y="1036" on="1"/>
        <pt x="755" y="1036" on="0"/>
        <pt x="940" y="975" on="0"/>
        <pt x="1028" y="862" on="0"/>
        <pt x="1063" y="745" on="0"/>
        <pt x="1063" y="672" on="1"/>
        <pt x="1063" y="-379" on="1"/>
        <pt x="713" y="-379" on="1"/>
        <pt x="713" y="-10" on="1"/>
        <pt x="684" y="-14" on="0"/>
        <pt x="580" y="-14" on="1"/>
        <pt x="357" y="-14" on="0"/>
        <pt x="115" y="252" on="0"/>
      </contour>
      <contour>
        <pt x="467" y="489" on="1"/>
        <pt x="467" y="356" on="0"/>
        <pt x="557" y="205" on="0"/>
        <pt x="645" y="205" on="1"/>
        <pt x="663" y="205" on="0"/>
        <pt x="713" y="209" on="1"/>
        <pt x="713" y="733" on="1"/>
        <pt x="713" y="762" on="0"/>
        <pt x="659" y="807" on="0"/>
        <pt x="604" y="807" on="1"/>
        <pt x="532" y="807" on="0"/>
        <pt x="467" y="627" on="0"/>
      </contour>
    </TTGlyph>
    <TTGlyph name="question" xMin="164" yMin="0" xMax="940" yMax="1382">
      <contour>
        <pt x="164" y="1024" on="1"/>
        <pt x="164" y="1286" on="1"/>
        <pt x="223" y="1327" on="0"/>
        <pt x="416" y="1382" on="0"/>
        <pt x="516" y="1382" on="1"/>
        <pt x="631" y="1382" on="0"/>
        <pt x="801" y="1315" on="0"/>
        <pt x="895" y="1198" on="0"/>
        <pt x="940" y="1063" on="0"/>
        <pt x="940" y="985" on="1"/>
        <pt x="940" y="915" on="0"/>
        <pt x="895" y="803" on="0"/>
        <pt x="861" y="767" on="1"/>
        <pt x="788" y="693" on="1"/>
        <pt x="716" y="620" on="1"/>
        <pt x="682" y="586" on="0"/>
        <pt x="637" y="479" on="0"/>
        <pt x="637" y="414" on="1"/>
        <pt x="637" y="393" on="1"/>
        <pt x="356" y="393" on="1"/>
        <pt x="356" y="420" on="1"/>
        <pt x="356" y="524" on="0"/>
        <pt x="418" y="684" on="0"/>
        <pt x="506" y="778" on="0"/>
        <pt x="596" y="856" on="0"/>
        <pt x="657" y="940" on="0"/>
        <pt x="657" y="987" on="1"/>
        <pt x="657" y="1032" on="0"/>
        <pt x="627" y="1094" on="0"/>
        <pt x="565" y="1118" on="0"/>
        <pt x="510" y="1126" on="0"/>
        <pt x="471" y="1126" on="1"/>
        <pt x="291" y="1126" on="0"/>
      </contour>
      <contour>
        <pt x="338" y="0" on="1"/>
        <pt x="338" y="262" on="1"/>
        <pt x="655" y="262" on="1"/>
        <pt x="655" y="0" on="1"/>
      </contour>
    </TTGlyph>
    <TTGlyph name="questiondown" xMin="164" yMin="-360" xMax="940" yMax="1022">
      <contour>
        <pt x="164" y="37" on="1"/>
        <pt x="164" y="107" on="0"/>
        <pt x="209" y="219" on="0"/>
        <pt x="276" y="291" on="0"/>
        <pt x="315" y="329" on="1"/>
        <pt x="388" y="402" on="1"/>
        <pt x="422" y="436" on="0"/>
        <pt x="467" y="543" on="0"/>
        <pt x="467" y="608" on="1"/>
        <pt x="467" y="629" on="1"/>
        <pt x="748" y="629" on="1"/>
        <pt x="748" y="602" on="1"/>
        <pt x="748" y="498" on="0"/>
        <pt x="686" y="338" on="0"/>
        <pt x="598" y="244" on="0"/>
        <pt x="508" y="166" on="0"/>
        <pt x="446" y="82" on="0"/>
        <pt x="446" y="35" on="1"/>
        <pt x="446" y="-10" on="0"/>
        <pt x="477" y="-72" on="0"/>
        <pt x="539" y="-96" on="0"/>
        <pt x="594" y="-104" on="0"/>
        <pt x="633" y="-104" on="1"/>
        <pt x="813" y="-104" on="0"/>
        <pt x="940" y="-2" on="1"/>
        <pt x="940" y="-264" on="1"/>
        <pt x="881" y="-305" on="0"/>
        <pt x="688" y="-360" on="0"/>
        <pt x="588" y="-360" on="1"/>
        <pt x="473" y="-360" on="0"/>
        <pt x="303" y="-293" on="0"/>
        <pt x="209" y="-176" on="0"/>
        <pt x="164" y="-41" on="0"/>
      </contour>
      <contour>
        <pt x="449" y="760" on="1"/>
        <pt x="449" y="1022" on="1"/>
        <pt x="766" y="1022" on="1"/>
        <pt x="766" y="760" on="1"/>
      </contour>
    </TTGlyph>
    <TTGlyph name="quotedbl" xMin="166" yMin="973" xMax="731" yMax="1384">
      <contour>
        <pt x="166" y="1384" on="1"/>
        <pt x="420" y="1384" on="1"/>
        <pt x="385" y="973" on="1"/>
        <pt x="203" y="973" on="1"/>
      </contour>
      <contour>
        <pt x="477" y="1384" on="1"/>
        <pt x="731" y="1384" on="1"/>
        <pt x="696" y="973" on="1"/>
        <pt x="514" y="973" on="1"/>
      </contour>
    </TTGlyph>
    <TTGlyph name="quotedblbase" xMin="147" yMin="-229" xMax="940" yMax="172">
      <contour>
        <pt x="147" y="-229" on="1"/>
        <pt x="299" y="172" on="1"/>
        <pt x="584" y="172" on="1"/>
        <pt x="387" y="-229" on="1"/>
      </contour>
      <contour>
        <pt x="504" y="-229" on="1"/>
        <pt x="655" y="172" on="1"/>
        <pt x="940" y="172" on="1"/>
        <pt x="743" y="-229" on="1"/>
      </contour>
    </TTGlyph>
    <TTGlyph name="quotedblleft" xMin="98" yMin="983" xMax="891" yMax="1384">
      <contour>
        <pt x="98" y="1384" on="1"/>
        <pt x="383" y="1384" on="1"/>
        <pt x="535" y="983" on="1"/>
        <pt x="295" y="983" on="1"/>
      </contour>
      <contour>
        <pt x="455" y="1384" on="1"/>
        <pt x="739" y="1384" on="1"/>
        <pt x="891" y="983" on="1"/>
        <pt x="651" y="983" on="1"/>
      </contour>
    </TTGlyph>
    <TTGlyph name="quotedblright" xMin="98" yMin="983" xMax="891" yMax="1384">
      <contour>
        <pt x="98" y="983" on="1"/>
        <pt x="250" y="1384" on="1"/>
        <pt x="535" y="1384" on="1"/>
        <pt x="338" y="983" on="1"/>
      </contour>
      <contour>
        <pt x="455" y="983" on="1"/>
        <pt x="606" y="1384" on="1"/>
        <pt x="891" y="1384" on="1"/>
        <pt x="694" y="983" on="1"/>
      </contour>
    </TTGlyph>
    <TTGlyph name="quoteleft" xMin="96" yMin="983" xMax="532" yMax="1384">
      <contour>
        <pt x="96" y="1384" on="1"/>
        <pt x="381" y="1384" on="1"/>
        <pt x="532" y="983" on="1"/>
        <pt x="293" y="983" on="1"/>
      </contour>
    </TTGlyph>
    <TTGlyph name="quoteright" xMin="96" yMin="983" xMax="532" yMax="1384">
      <contour>
        <pt x="96" y="983" on="1"/>
        <pt x="248" y="1384" on="1"/>
        <pt x="532" y="1384" on="1"/>
        <pt x="336" y="983" on="1"/>
      </contour>
    </TTGlyph>
    <TTGlyph name="quotesinglbase" xMin="147" yMin="-229" xMax="584" yMax="172">
      <contour>
        <pt x="147" y="-229" on="1"/>
        <pt x="299" y="172" on="1"/>
        <pt x="584" y="172" on="1"/>
        <pt x="387" y="-229" on="1"/>
      </contour>
    </TTGlyph>
    <TTGlyph name="quotesingle" xMin="166" yMin="973" xMax="420" yMax="1384">
      <contour>
        <pt x="166" y="1384" on="1"/>
        <pt x="420" y="1384" on="1"/>
        <pt x="385" y="973" on="1"/>
        <pt x="203" y="973" on="1"/>
      </contour>
    </TTGlyph>
    <TTGlyph name="r" xMin="164" yMin="0" xMax="748" yMax="1038">
      <contour>
        <pt x="164" y="0" on="1"/>
        <pt x="164" y="922" on="1"/>
        <pt x="428" y="1031" on="0"/>
        <pt x="748" y="1038" on="1"/>
        <pt x="748" y="743" on="1"/>
        <pt x="621" y="741" on="0"/>
        <pt x="516" y="725" on="1"/>
        <pt x="516" y="0" on="1"/>
      </contour>
    </TTGlyph>
    <TTGlyph name="registered" xMin="100" yMin="-16" xMax="1499" yMax="1382">
      <contour>
        <pt x="100" y="682" on="1"/>
        <pt x="100" y="973" on="0"/>
        <pt x="510" y="1382" on="0"/>
        <pt x="799" y="1382" on="1"/>
        <pt x="1090" y="1382" on="0"/>
        <pt x="1499" y="973" on="0"/>
        <pt x="1499" y="682" on="1"/>
        <pt x="1499" y="393" on="0"/>
        <pt x="1090" y="-16" on="0"/>
        <pt x="799" y="-16" on="1"/>
        <pt x="510" y="-16" on="0"/>
        <pt x="100" y="393" on="0"/>
      </contour>
      <contour>
        <pt x="229" y="682" on="1"/>
        <pt x="229" y="446" on="0"/>
        <pt x="563" y="113" on="0"/>
        <pt x="1034" y="113" on="0"/>
        <pt x="1370" y="446" on="0"/>
        <pt x="1370" y="682" on="1"/>
        <pt x="1370" y="920" on="0"/>
        <pt x="1036" y="1253" on="0"/>
        <pt x="799" y="1253" on="1"/>
        <pt x="563" y="1253" on="0"/>
        <pt x="229" y="920" on="0"/>
      </contour>
      <contour>
        <pt x="498" y="285" on="1"/>
        <pt x="498" y="1081" on="1"/>
        <pt x="813" y="1081" on="1"/>
        <pt x="958" y="1081" on="0"/>
        <pt x="1135" y="946" on="0"/>
        <pt x="1135" y="823" on="1"/>
        <pt x="1135" y="729" on="0"/>
        <pt x="1047" y="607" on="0"/>
        <pt x="973" y="584" on="1"/>
        <pt x="1165" y="285" on="1"/>
        <pt x="936" y="285" on="1"/>
        <pt x="788" y="551" on="1"/>
        <pt x="705" y="551" on="1"/>
        <pt x="705" y="285" on="1"/>
      </contour>
      <contour>
        <pt x="705" y="707" on="1"/>
        <pt x="825" y="707" on="1"/>
        <pt x="866" y="707" on="0"/>
        <pt x="928" y="764" on="0"/>
        <pt x="928" y="809" on="1"/>
        <pt x="928" y="856" on="0"/>
        <pt x="866" y="915" on="0"/>
        <pt x="825" y="915" on="1"/>
        <pt x="705" y="915" on="1"/>
      </contour>
    </TTGlyph>
    <TTGlyph name="s" xMin="90" yMin="-14" xMax="881" yMax="1036">
      <contour>
        <pt x="90" y="694" on="1"/>
        <pt x="90" y="860" on="0"/>
        <pt x="320" y="1036" on="0"/>
        <pt x="498" y="1036" on="1"/>
        <pt x="654" y="1036" on="0"/>
        <pt x="791" y="952" on="1"/>
        <pt x="791" y="719" on="1"/>
        <pt x="658" y="793" on="0"/>
        <pt x="555" y="793" on="1"/>
        <pt x="444" y="793" on="0"/>
        <pt x="444" y="723" on="1"/>
        <pt x="444" y="703" on="0"/>
        <pt x="535" y="662" on="0"/>
        <pt x="664" y="610" on="0"/>
        <pt x="791" y="539" on="0"/>
        <pt x="881" y="399" on="0"/>
        <pt x="881" y="305" on="1"/>
        <pt x="881" y="164" on="0"/>
        <pt x="655" y="-14" on="0"/>
        <pt x="475" y="-14" on="1"/>
        <pt x="285" y="-14" on="0"/>
        <pt x="129" y="86" on="1"/>
        <pt x="129" y="358" on="1"/>
        <pt x="289" y="233" on="0"/>
        <pt x="438" y="233" on="1"/>
        <pt x="530" y="233" on="0"/>
        <pt x="530" y="289" on="1"/>
        <pt x="530" y="316" on="0"/>
        <pt x="440" y="358" on="0"/>
        <pt x="311" y="406" on="0"/>
        <pt x="180" y="473" on="0"/>
        <pt x="90" y="604" on="0"/>
      </contour>
    </TTGlyph>
    <TTGlyph name="section" xMin="127" yMin="-16" xMax="1126" yMax="1384">
      <contour>
        <pt x="127" y="707" on="1"/>
        <pt x="127" y="805" on="0"/>
        <pt x="309" y="899" on="0"/>
        <pt x="410" y="901" on="1"/>
        <pt x="367" y="905" on="0"/>
        <pt x="262" y="1018" on="0"/>
        <pt x="262" y="1083" on="1"/>
        <pt x="262" y="1169" on="0"/>
        <pt x="340" y="1294" on="0"/>
        <pt x="475" y="1358" on="0"/>
        <pt x="623" y="1384" on="0"/>
        <pt x="709" y="1384" on="1"/>
        <pt x="889" y="1384" on="0"/>
        <pt x="1071" y="1280" on="1"/>
        <pt x="1071" y="1032" on="1"/>
        <pt x="911" y="1124" on="0"/>
        <pt x="760" y="1124" on="1"/>
        <pt x="590" y="1124" on="0"/>
        <pt x="590" y="1044" on="1"/>
        <pt x="590" y="1013" on="0"/>
        <pt x="758" y="948" on="0"/>
        <pt x="958" y="889" on="0"/>
        <pt x="1126" y="747" on="0"/>
        <pt x="1126" y="647" on="1"/>
        <pt x="1126" y="586" on="0"/>
        <pt x="1030" y="508" on="0"/>
        <pt x="938" y="485" on="0"/>
        <pt x="891" y="483" on="1"/>
        <pt x="940" y="456" on="0"/>
        <pt x="991" y="336" on="0"/>
        <pt x="991" y="274" on="1"/>
        <pt x="991" y="137" on="0"/>
        <pt x="752" y="-16" on="0"/>
        <pt x="543" y="-16" on="1"/>
        <pt x="330" y="-16" on="0"/>
        <pt x="133" y="115" on="1"/>
        <pt x="133" y="391" on="1"/>
        <pt x="304" y="238" on="0"/>
        <pt x="494" y="238" on="1"/>
        <pt x="495" y="238" on="0"/>
        <pt x="496" y="238" on="1"/>
        <pt x="562" y="238" on="0"/>
        <pt x="670" y="272" on="0"/>
        <pt x="670" y="313" on="1"/>
        <pt x="670" y="340" on="0"/>
        <pt x="557" y="385" on="0"/>
        <pt x="397" y="432" on="0"/>
        <pt x="240" y="498" on="0"/>
        <pt x="127" y="623" on="0"/>
      </contour>
      <contour>
        <pt x="453" y="715" on="1"/>
        <pt x="453" y="697" on="0"/>
        <pt x="569" y="647" on="0"/>
        <pt x="721" y="596" on="1"/>
        <pt x="799" y="610" on="0"/>
        <pt x="799" y="641" on="1"/>
        <pt x="799" y="659" on="0"/>
        <pt x="700" y="700" on="0"/>
        <pt x="553" y="745" on="0"/>
        <pt x="537" y="752" on="1"/>
        <pt x="453" y="742" on="0"/>
      </contour>
    </TTGlyph>
    <TTGlyph name="semicolon" xMin="166" yMin="-229" xMax="604" yMax="952">
      <contour>
        <pt x="166" y="-229" on="1"/>
        <pt x="317" y="172" on="1"/>
        <pt x="602" y="172" on="1"/>
        <pt x="406" y="-229" on="1"/>
      </contour>
      <contour>
        <pt x="309" y="670" on="1"/>
        <pt x="309" y="952" on="1"/>
        <pt x="604" y="952" on="1"/>
        <pt x="604" y="670" on="1"/>
      </contour>
    </TTGlyph>
    <TTGlyph name="seven" xMin="135" yMin="0" xMax="1139" yMax="1366">
      <contour>
        <pt x="135" y="1016" on="1"/>
        <pt x="135" y="1366" on="1"/>
        <pt x="1139" y="1366" on="1"/>
        <pt x="1139" y="1108" on="1"/>
        <pt x="602" y="0" on="1"/>
        <pt x="195" y="0" on="1"/>
        <pt x="690" y="1016" on="1"/>
      </contour>
    </TTGlyph>
    <TTGlyph name="six" xMin="111" yMin="-16" xMax="1120" yMax="1384">
      <contour>
        <pt x="111" y="826" on="0"/>
        <pt x="209" y="1116" on="0"/>
        <pt x="346" y="1268" on="0"/>
        <pt x="535" y="1360" on="0"/>
        <pt x="676" y="1384" on="0"/>
        <pt x="748" y="1384" on="1"/>
        <pt x="924" y="1384" on="0"/>
        <pt x="1026" y="1335" on="1"/>
        <pt x="1026" y="1038" on="1"/>
        <pt x="881" y="1083" on="0"/>
        <pt x="776" y="1083" on="1"/>
        <pt x="661" y="1083" on="0"/>
        <pt x="469" y="981" on="0"/>
        <pt x="455" y="874" on="1"/>
        <pt x="522" y="901" on="0"/>
        <pt x="645" y="901" on="1"/>
        <pt x="741" y="901" on="0"/>
        <pt x="889" y="870" on="0"/>
        <pt x="1038" y="791" on="0"/>
        <pt x="1120" y="612" on="0"/>
        <pt x="1120" y="481" on="1"/>
        <pt x="1120" y="391" on="0"/>
        <pt x="1065" y="221" on="0"/>
        <pt x="950" y="74" on="0"/>
        <pt x="748" y="-16" on="0"/>
        <pt x="616" y="-16" on="1"/>
        <pt x="111" y="-16" on="0"/>
        <pt x="111" y="630" on="1"/>
      </contour>
      <contour>
        <pt x="461" y="657" on="1"/>
        <pt x="461" y="643" on="0"/>
        <pt x="461" y="629" on="1"/>
        <pt x="461" y="469" on="0"/>
        <pt x="504" y="382" on="1"/>
        <pt x="550" y="287" on="0"/>
        <pt x="616" y="287" on="1"/>
        <pt x="677" y="287" on="0"/>
        <pt x="752" y="377" on="0"/>
        <pt x="766" y="453" on="0"/>
        <pt x="766" y="483" on="1"/>
        <pt x="766" y="561" on="0"/>
        <pt x="690" y="680" on="0"/>
        <pt x="612" y="680" on="1"/>
        <pt x="514" y="680" on="0"/>
      </contour>
    </TTGlyph>
    <TTGlyph name="slash" xMin="-29" yMin="-201" xMax="979" yMax="1548">
      <contour>
        <pt x="-29" y="-201" on="1"/>
        <pt x="723" y="1548" on="1"/>
        <pt x="979" y="1548" on="1"/>
        <pt x="225" y="-201" on="1"/>
      </contour>
    </TTGlyph>
    <TTGlyph name="sterling" xMin="100" yMin="-31" xMax="1038" yMax="1382">
      <contour>
        <pt x="100" y="-31" on="1"/>
        <pt x="100" y="276" on="1"/>
        <pt x="180" y="331" on="0"/>
        <pt x="258" y="350" on="1"/>
        <pt x="258" y="553" on="1"/>
        <pt x="100" y="553" on="1"/>
        <pt x="100" y="821" on="1"/>
        <pt x="258" y="821" on="1"/>
        <pt x="258" y="989" on="1"/>
        <pt x="258" y="1151" on="0"/>
        <pt x="469" y="1382" on="0"/>
        <pt x="692" y="1382" on="1"/>
        <pt x="854" y="1382" on="0"/>
        <pt x="1038" y="1276" on="1"/>
        <pt x="1038" y="995" on="1"/>
        <pt x="897" y="1114" on="0"/>
        <pt x="739" y="1114" on="1"/>
        <pt x="649" y="1114" on="0"/>
        <pt x="541" y="1044" on="0"/>
        <pt x="541" y="975" on="1"/>
        <pt x="541" y="821" on="1"/>
        <pt x="881" y="821" on="1"/>
        <pt x="881" y="553" on="1"/>
        <pt x="541" y="553" on="1"/>
        <pt x="541" y="342" on="1"/>
        <pt x="658" y="289" on="0"/>
        <pt x="768" y="289" on="1"/>
        <pt x="909" y="289" on="0"/>
        <pt x="1038" y="375" on="1"/>
        <pt x="1038" y="78" on="1"/>
        <pt x="956" y="2" on="0"/>
        <pt x="857" y="-12" on="1"/>
        <pt x="822" y="-18" on="0"/>
        <pt x="787" y="-18" on="1"/>
        <pt x="725" y="-18" on="0"/>
        <pt x="664" y="-1" on="1"/>
        <pt x="477" y="50" on="1"/>
        <pt x="417" y="67" on="0"/>
        <pt x="355" y="67" on="1"/>
        <pt x="319" y="67" on="0"/>
        <pt x="282" y="62" on="1"/>
        <pt x="182" y="47" on="0"/>
      </contour>
    </TTGlyph>
    <TTGlyph name="t" xMin="49" yMin="-14" xMax="754" yMax="1325">
      <contour>
        <pt x="49" y="786" on="1"/>
        <pt x="49" y="1022" on="1"/>
        <pt x="188" y="1022" on="1"/>
        <pt x="188" y="1325" on="1"/>
        <pt x="541" y="1325" on="1"/>
        <pt x="541" y="1022" on="1"/>
        <pt x="754" y="1022" on="1"/>
        <pt x="754" y="786" on="1"/>
        <pt x="541" y="786" on="1"/>
        <pt x="541" y="291" on="1"/>
        <pt x="541" y="268" on="0"/>
        <pt x="578" y="236" on="0"/>
        <pt x="604" y="236" on="1"/>
        <pt x="667" y="236" on="0"/>
        <pt x="754" y="287" on="1"/>
        <pt x="754" y="35" on="1"/>
        <pt x="666" y="-14" on="0"/>
        <pt x="549" y="-14" on="1"/>
        <pt x="371" y="-14" on="0"/>
        <pt x="188" y="174" on="0"/>
        <pt x="188" y="344" on="1"/>
        <pt x="188" y="786" on="1"/>
      </contour>
    </TTGlyph>
    <TTGlyph name="thorn" xMin="172" yMin="-375" xMax="1120" yMax="1403">
      <contour>
        <pt x="172" y="-375" on="1"/>
        <pt x="172" y="1403" on="1"/>
        <pt x="522" y="1403" on="1"/>
        <pt x="522" y="1024" on="1"/>
        <pt x="565" y="1030" on="0"/>
        <pt x="655" y="1030" on="1"/>
        <pt x="878" y="1030" on="0"/>
        <pt x="1120" y="764" on="0"/>
        <pt x="1120" y="264" on="0"/>
        <pt x="879" y="-2" on="0"/>
        <pt x="655" y="-2" on="1"/>
        <pt x="565" y="-2" on="0"/>
        <pt x="522" y="4" on="1"/>
        <pt x="522" y="-375" on="1"/>
      </contour>
      <contour>
        <pt x="522" y="221" on="1"/>
        <pt x="572" y="217" on="0"/>
        <pt x="590" y="217" on="1"/>
        <pt x="768" y="229" on="0"/>
        <pt x="768" y="799" on="0"/>
        <pt x="590" y="811" on="1"/>
        <pt x="572" y="811" on="0"/>
        <pt x="522" y="807" on="1"/>
      </contour>
    </TTGlyph>
    <TTGlyph name="three" xMin="139" yMin="-16" xMax="1092" yMax="1384">
      <contour>
        <pt x="139" y="98" on="1"/>
        <pt x="139" y="436" on="1"/>
        <pt x="368" y="299" on="0"/>
        <pt x="541" y="299" on="1"/>
        <pt x="629" y="299" on="0"/>
        <pt x="741" y="381" on="0"/>
        <pt x="741" y="504" on="0"/>
        <pt x="647" y="592" on="0"/>
        <pt x="535" y="592" on="1"/>
        <pt x="311" y="592" on="1"/>
        <pt x="311" y="846" on="1"/>
        <pt x="539" y="846" on="1"/>
        <pt x="611" y="846" on="0"/>
        <pt x="682" y="911" on="0"/>
        <pt x="682" y="958" on="1"/>
        <pt x="682" y="1007" on="0"/>
        <pt x="571" y="1061" on="0"/>
        <pt x="500" y="1061" on="1"/>
        <pt x="472" y="1061" on="1"/>
        <pt x="442" y="1061" on="1"/>
        <pt x="434" y="1061" on="0"/>
        <pt x="393" y="1059" on="0"/>
        <pt x="369" y="1055" on="0"/>
        <pt x="326" y="1049" on="0"/>
        <pt x="308" y="1044" on="1"/>
        <pt x="266" y="1031" on="1"/>
        <pt x="242" y="1024" on="0"/>
        <pt x="190" y="1004" on="0"/>
        <pt x="164" y="991" on="1"/>
        <pt x="164" y="1288" on="1"/>
        <pt x="346" y="1384" on="0"/>
        <pt x="539" y="1384" on="1"/>
        <pt x="627" y="1384" on="0"/>
        <pt x="791" y="1348" on="0"/>
        <pt x="944" y="1268" on="0"/>
        <pt x="1036" y="1114" on="0"/>
        <pt x="1036" y="1010" on="1"/>
        <pt x="1036" y="914" on="0"/>
        <pt x="905" y="757" on="0"/>
        <pt x="823" y="741" on="1"/>
        <pt x="944" y="706" on="0"/>
        <pt x="1092" y="514" on="0"/>
        <pt x="1092" y="383" on="1"/>
        <pt x="1092" y="266" on="0"/>
        <pt x="993" y="102" on="0"/>
        <pt x="825" y="18" on="0"/>
        <pt x="653" y="-16" on="0"/>
        <pt x="555" y="-16" on="1"/>
        <pt x="365" y="-16" on="0"/>
      </contour>
    </TTGlyph>
    <TTGlyph name="threequarters" xMin="137" yMin="-45" xMax="1642" yMax="1403">
      <contour>
        <pt x="137" y="696" on="1"/>
        <pt x="137" y="879" on="1"/>
        <pt x="258" y="805" on="0"/>
        <pt x="352" y="805" on="1"/>
        <pt x="401" y="805" on="0"/>
        <pt x="461" y="848" on="0"/>
        <pt x="461" y="881" on="1"/>
        <pt x="461" y="963" on="0"/>
        <pt x="350" y="963" on="1"/>
        <pt x="229" y="963" on="1"/>
        <pt x="229" y="1098" on="1"/>
        <pt x="352" y="1098" on="1"/>
        <pt x="428" y="1098" on="0"/>
        <pt x="428" y="1159" on="1"/>
        <pt x="428" y="1186" on="0"/>
        <pt x="369" y="1214" on="0"/>
        <pt x="332" y="1214" on="1"/>
        <pt x="234" y="1214" on="0"/>
        <pt x="152" y="1176" on="1"/>
        <pt x="152" y="1335" on="1"/>
        <pt x="252" y="1388" on="0"/>
        <pt x="352" y="1389" on="1"/>
        <pt x="458" y="1389" on="0"/>
        <pt x="618" y="1294" on="0"/>
        <pt x="618" y="1186" on="1"/>
        <pt x="618" y="1135" on="0"/>
        <pt x="547" y="1050" on="0"/>
        <pt x="504" y="1042" on="1"/>
        <pt x="570" y="1024" on="0"/>
        <pt x="649" y="920" on="0"/>
        <pt x="649" y="850" on="1"/>
        <pt x="649" y="731" on="0"/>
        <pt x="477" y="635" on="0"/>
        <pt x="360" y="635" on="1"/>
        <pt x="264" y="635" on="0"/>
      </contour>
      <contour>
        <pt x="387" y="-45" on="1"/>
        <pt x="1282" y="1403" on="1"/>
        <pt x="1475" y="1403" on="1"/>
        <pt x="580" y="-45" on="1"/>
      </contour>
      <contour>
        <pt x="1067" y="186" on="1"/>
        <pt x="1067" y="332" on="1"/>
        <pt x="1389" y="735" on="1"/>
        <pt x="1554" y="735" on="1"/>
        <pt x="1554" y="348" on="1"/>
        <pt x="1642" y="348" on="1"/>
        <pt x="1642" y="186" on="1"/>
        <pt x="1554" y="186" on="1"/>
        <pt x="1554" y="0" on="1"/>
        <pt x="1366" y="0" on="1"/>
        <pt x="1366" y="186" on="1"/>
      </contour>
      <contour>
        <pt x="1268" y="348" on="1"/>
        <pt x="1366" y="348" on="1"/>
        <pt x="1366" y="477" on="1"/>
      </contour>
    </TTGlyph>
    <TTGlyph name="tilde" xMin="215" yMin="1117" xMax="838" yMax="1402">
      <contour>
        <pt x="215" y="1153" on="1"/>
        <pt x="215" y="1327" on="1"/>
        <pt x="272" y="1395" on="0"/>
        <pt x="339" y="1401" on="1"/>
        <pt x="350" y="1402" on="0"/>
        <pt x="361" y="1402" on="1"/>
        <pt x="416" y="1402" on="0"/>
        <pt x="466" y="1376" on="1"/>
        <pt x="588" y="1316" on="1"/>
        <pt x="639" y="1291" on="0"/>
        <pt x="693" y="1291" on="1"/>
        <pt x="704" y="1291" on="0"/>
        <pt x="714" y="1292" on="1"/>
        <pt x="780" y="1298" on="0"/>
        <pt x="838" y="1366" on="1"/>
        <pt x="838" y="1192" on="1"/>
        <pt x="781" y="1124" on="0"/>
        <pt x="715" y="1118" on="1"/>
        <pt x="704" y="1117" on="0"/>
        <pt x="693" y="1117" on="1"/>
        <pt x="639" y="1117" on="0"/>
        <pt x="588" y="1142" on="1"/>
        <pt x="466" y="1202" on="1"/>
        <pt x="416" y="1228" on="0"/>
        <pt x="361" y="1228" on="1"/>
        <pt x="350" y="1228" on="0"/>
        <pt x="339" y="1227" on="1"/>
        <pt x="272" y="1221" on="0"/>
      </contour>
    </TTGlyph>
    <TTGlyph name="trademark" xMin="100" yMin="684" xMax="1440" yMax="1366">
      <contour>
        <pt x="100" y="1206" on="1"/>
        <pt x="100" y="1366" on="1"/>
        <pt x="672" y="1366" on="1"/>
        <pt x="672" y="1206" on="1"/>
        <pt x="473" y="1206" on="1"/>
        <pt x="473" y="684" on="1"/>
        <pt x="297" y="684" on="1"/>
        <pt x="297" y="1206" on="1"/>
      </contour>
      <contour>
        <pt x="772" y="684" on="1"/>
        <pt x="772" y="1366" on="1"/>
        <pt x="946" y="1366" on="1"/>
        <pt x="1106" y="1133" on="1"/>
        <pt x="1266" y="1366" on="1"/>
        <pt x="1440" y="1366" on="1"/>
        <pt x="1440" y="684" on="1"/>
        <pt x="1264" y="684" on="1"/>
        <pt x="1264" y="1106" on="1"/>
        <pt x="1106" y="879" on="1"/>
        <pt x="948" y="1106" on="1"/>
        <pt x="948" y="684" on="1"/>
      </contour>
    </TTGlyph>
    <TTGlyph name="two" xMin="158" yMin="0" xMax="1094" yMax="1384">
      <contour>
        <pt x="158" y="0" on="1"/>
        <pt x="158" y="279" on="1"/>
        <pt x="737" y="712" on="0"/>
        <pt x="737" y="921" on="1"/>
        <pt x="737" y="983" on="0"/>
        <pt x="647" y="1059" on="0"/>
        <pt x="559" y="1059" on="1"/>
        <pt x="379" y="1059" on="0"/>
        <pt x="168" y="891" on="1"/>
        <pt x="168" y="1247" on="1"/>
        <pt x="391" y="1384" on="0"/>
        <pt x="592" y="1384" on="1"/>
        <pt x="846" y="1384" on="0"/>
        <pt x="1085" y="1128" on="0"/>
        <pt x="1085" y="948" on="1"/>
        <pt x="1085" y="790" on="0"/>
        <pt x="852" y="455" on="0"/>
        <pt x="696" y="317" on="1"/>
        <pt x="1094" y="317" on="1"/>
        <pt x="1094" y="0" on="1"/>
      </contour>
    </TTGlyph>
    <TTGlyph name="u" xMin="172" yMin="-14" xMax="1122" yMax="1022">
      <contour>
        <pt x="172" y="461" on="1"/>
        <pt x="172" y="1022" on="1"/>
        <pt x="524" y="1022" on="1"/>
        <pt x="524" y="399" on="1"/>
        <pt x="524" y="249" on="0"/>
        <pt x="646" y="249" on="1"/>
        <pt x="647" y="250" on="1"/>
        <pt x="770" y="250" on="0"/>
        <pt x="770" y="399" on="1"/>
        <pt x="770" y="1022" on="1"/>
        <pt x="1122" y="1022" on="1"/>
        <pt x="1122" y="461" on="1"/>
        <pt x="1122" y="-14" on="0"/>
        <pt x="172" y="-14" on="0"/>
      </contour>
    </TTGlyph>
    <TTGlyph name="uacute" xMin="172" yMin="-14" xMax="1122" yMax="1378">
      <contour>
        <pt x="172" y="461" on="1"/>
        <pt x="172" y="1022" on="1"/>
        <pt x="524" y="1022" on="1"/>
        <pt x="524" y="399" on="1"/>
        <pt x="524" y="249" on="0"/>
        <pt x="646" y="249" on="1"/>
        <pt x="647" y="249" on="0"/>
        <pt x="647" y="250" on="1"/>
        <pt x="770" y="250" on="0"/>
        <pt x="770" y="399" on="1"/>
        <pt x="770" y="1022" on="1"/>
        <pt x="1122" y="1022" on="1"/>
        <pt x="1122" y="461" on="1"/>
        <pt x="1122" y="-14" on="0"/>
        <pt x="172" y="-14" on="0"/>
      </contour>
      <contour>
        <pt x="537" y="1139" on="1"/>
        <pt x="664" y="1378" on="1"/>
        <pt x="903" y="1378" on="1"/>
        <pt x="713" y="1139" on="1"/>
      </contour>
    </TTGlyph>
    <TTGlyph name="ucircumflex" xMin="172" yMin="-14" xMax="1122" yMax="1389">
      <contour>
        <pt x="172" y="461" on="1"/>
        <pt x="172" y="1022" on="1"/>
        <pt x="524" y="1022" on="1"/>
        <pt x="524" y="399" on="1"/>
        <pt x="524" y="249" on="0"/>
        <pt x="646" y="249" on="1"/>
        <pt x="647" y="249" on="0"/>
        <pt x="647" y="250" on="1"/>
        <pt x="770" y="250" on="0"/>
        <pt x="770" y="399" on="1"/>
        <pt x="770" y="1022" on="1"/>
        <pt x="1122" y="1022" on="1"/>
        <pt x="1122" y="461" on="1"/>
        <pt x="1122" y="-14" on="0"/>
        <pt x="172" y="-14" on="0"/>
      </contour>
      <contour>
        <pt x="352" y="1139" on="1"/>
        <pt x="598" y="1389" on="1"/>
        <pt x="696" y="1389" on="1"/>
        <pt x="942" y="1139" on="1"/>
        <pt x="733" y="1139" on="1"/>
        <pt x="647" y="1229" on="1"/>
        <pt x="561" y="1139" on="1"/>
      </contour>
    </TTGlyph>
    <TTGlyph name="udieresis" xMin="172" yMin="-14" xMax="1122" yMax="1362">
      <contour>
        <pt x="172" y="461" on="1"/>
        <pt x="172" y="1022" on="1"/>
        <pt x="524" y="1022" on="1"/>
        <pt x="524" y="399" on="1"/>
        <pt x="524" y="249" on="0"/>
        <pt x="646" y="249" on="1"/>
        <pt x="647" y="249" on="0"/>
        <pt x="647" y="250" on="1"/>
        <pt x="770" y="250" on="0"/>
        <pt x="770" y="399" on="1"/>
        <pt x="770" y="1022" on="1"/>
        <pt x="1122" y="1022" on="1"/>
        <pt x="1122" y="461" on="1"/>
        <pt x="1122" y="-14" on="0"/>
        <pt x="172" y="-14" on="0"/>
      </contour>
      <contour>
        <pt x="350" y="1139" on="1"/>
        <pt x="350" y="1362" on="1"/>
        <pt x="596" y="1362" on="1"/>
        <pt x="596" y="1139" on="1"/>
      </contour>
      <contour>
        <pt x="698" y="1139" on="1"/>
        <pt x="698" y="1362" on="1"/>
        <pt x="944" y="1362" on="1"/>
        <pt x="944" y="1139" on="1"/>
      </contour>
    </TTGlyph>
    <TTGlyph name="ugrave" xMin="172" yMin="-14" xMax="1122" yMax="1378">
      <contour>
        <pt x="172" y="461" on="1"/>
        <pt x="172" y="1022" on="1"/>
        <pt x="524" y="1022" on="1"/>
        <pt x="524" y="399" on="1"/>
        <pt x="524" y="249" on="0"/>
        <pt x="646" y="249" on="1"/>
        <pt x="647" y="249" on="0"/>
        <pt x="647" y="250" on="1"/>
        <pt x="770" y="250" on="0"/>
        <pt x="770" y="399" on="1"/>
        <pt x="770" y="1022" on="1"/>
        <pt x="1122" y="1022" on="1"/>
        <pt x="1122" y="461" on="1"/>
        <pt x="1122" y="-14" on="0"/>
        <pt x="172" y="-14" on="0"/>
      </contour>
      <contour>
        <pt x="391" y="1378" on="1"/>
        <pt x="631" y="1378" on="1"/>
        <pt x="758" y="1139" on="1"/>
        <pt x="582" y="1139" on="1"/>
      </contour>
    </TTGlyph>
    <TTGlyph name="underscore" xMin="0" yMin="-258" xMax="1118" yMax="-49">
      <contour>
        <pt x="0" y="-49" on="1"/>
        <pt x="1118" y="-49" on="1"/>
        <pt x="1118" y="-258" on="1"/>
        <pt x="0" y="-258" on="1"/>
      </contour>
    </TTGlyph>
    <TTGlyph name="uni00B2" xMin="102" yMin="948" xMax="606" yMax="1694">
      <contour>
        <pt x="102" y="948" on="1"/>
        <pt x="102" y="1098" on="1"/>
        <pt x="413" y="1329" on="0"/>
        <pt x="414" y="1444" on="1"/>
        <pt x="414" y="1518" on="0"/>
        <pt x="317" y="1518" on="1"/>
        <pt x="219" y="1518" on="0"/>
        <pt x="106" y="1427" on="1"/>
        <pt x="106" y="1620" on="1"/>
        <pt x="227" y="1694" on="0"/>
        <pt x="336" y="1694" on="1"/>
        <pt x="473" y="1694" on="0"/>
        <pt x="602" y="1556" on="0"/>
        <pt x="602" y="1458" on="1"/>
        <pt x="602" y="1304" on="0"/>
        <pt x="391" y="1118" on="1"/>
        <pt x="606" y="1118" on="1"/>
        <pt x="606" y="948" on="1"/>
      </contour>
    </TTGlyph>
    <TTGlyph name="uni00B3" xMin="100" yMin="938" xMax="612" yMax="1692">
      <contour>
        <pt x="100" y="999" on="1"/>
        <pt x="100" y="1182" on="1"/>
        <pt x="221" y="1108" on="0"/>
        <pt x="315" y="1108" on="1"/>
        <pt x="364" y="1108" on="0"/>
        <pt x="424" y="1151" on="0"/>
        <pt x="424" y="1184" on="1"/>
        <pt x="424" y="1266" on="0"/>
        <pt x="313" y="1266" on="1"/>
        <pt x="193" y="1266" on="1"/>
        <pt x="193" y="1401" on="1"/>
        <pt x="315" y="1401" on="1"/>
        <pt x="391" y="1401" on="0"/>
        <pt x="391" y="1462" on="1"/>
        <pt x="391" y="1489" on="0"/>
        <pt x="332" y="1518" on="0"/>
        <pt x="295" y="1518" on="1"/>
        <pt x="197" y="1518" on="0"/>
        <pt x="115" y="1479" on="1"/>
        <pt x="115" y="1638" on="1"/>
        <pt x="215" y="1691" on="0"/>
        <pt x="315" y="1692" on="1"/>
        <pt x="421" y="1692" on="0"/>
        <pt x="582" y="1597" on="0"/>
        <pt x="582" y="1489" on="1"/>
        <pt x="582" y="1438" on="0"/>
        <pt x="510" y="1354" on="0"/>
        <pt x="467" y="1346" on="1"/>
        <pt x="533" y="1328" on="0"/>
        <pt x="612" y="1223" on="0"/>
        <pt x="612" y="1153" on="1"/>
        <pt x="612" y="1034" on="0"/>
        <pt x="440" y="938" on="0"/>
        <pt x="324" y="938" on="1"/>
        <pt x="228" y="938" on="0"/>
      </contour>
    </TTGlyph>
    <TTGlyph name="uni00B5" xMin="203" yMin="-430" xMax="1182" yMax="1022">
      <contour>
        <pt x="203" y="-430" on="1"/>
        <pt x="203" y="1022" on="1"/>
        <pt x="555" y="1022" on="1"/>
        <pt x="555" y="365" on="1"/>
        <pt x="555" y="334" on="0"/>
        <pt x="571" y="293" on="0"/>
        <pt x="651" y="252" on="0"/>
        <pt x="727" y="252" on="1"/>
        <pt x="782" y="252" on="0"/>
        <pt x="829" y="264" on="1"/>
        <pt x="829" y="1022" on="1"/>
        <pt x="1182" y="1022" on="1"/>
        <pt x="1182" y="109" on="1"/>
        <pt x="936" y="-14" on="0"/>
        <pt x="674" y="-14" on="1"/>
        <pt x="617" y="-14" on="0"/>
        <pt x="555" y="-4" on="1"/>
        <pt x="555" y="-430" on="1"/>
      </contour>
    </TTGlyph>
    <TTGlyph name="uni00B9" xMin="92" yMin="948" xMax="401" yMax="1683">
      <contour>
        <pt x="92" y="1401" on="1"/>
        <pt x="92" y="1587" on="1"/>
        <pt x="246" y="1683" on="1"/>
        <pt x="401" y="1683" on="1"/>
        <pt x="401" y="948" on="1"/>
        <pt x="211" y="948" on="1"/>
        <pt x="211" y="1473" on="1"/>
      </contour>
    </TTGlyph>
    <TTGlyph name="uniE000" xMin="0" yMin="0" xMax="1020" yMax="1020">
      <contour>
        <pt x="0" y="1020" on="1"/>
        <pt x="1020" y="1020" on="1"/>
        <pt x="1020" y="0" on="1"/>
        <pt x="0" y="0" on="1"/>
      </contour>
    </TTGlyph>
    <TTGlyph name="uniFB01" xMin="84" yMin="0" xMax="1341" yMax="1446">
      <contour>
        <pt x="84" y="774" on="1"/>
        <pt x="84" y="1022" on="1"/>
        <pt x="229" y="1022" on="1"/>
        <pt x="230" y="1446" on="0"/>
        <pt x="633" y="1446" on="1"/>
        <pt x="717" y="1446" on="0"/>
        <pt x="784" y="1423" on="1"/>
        <pt x="784" y="1212" on="1"/>
        <pt x="755" y="1220" on="0"/>
        <pt x="729" y="1221" on="1"/>
        <pt x="657" y="1221" on="0"/>
        <pt x="582" y="1094" on="0"/>
        <pt x="582" y="1022" on="1"/>
        <pt x="784" y="1022" on="1"/>
        <pt x="784" y="774" on="1"/>
        <pt x="578" y="774" on="1"/>
        <pt x="578" y="0" on="1"/>
        <pt x="225" y="0" on="1"/>
        <pt x="225" y="774" on="1"/>
      </contour>
      <contour>
        <pt x="981" y="1139" on="1"/>
        <pt x="1341" y="1139" on="1"/>
        <pt x="1341" y="1407" on="1"/>
        <pt x="981" y="1407" on="1"/>
      </contour>
      <contour>
        <pt x="985" y="0" on="1"/>
        <pt x="1337" y="0" on="1"/>
        <pt x="1337" y="1022" on="1"/>
        <pt x="985" y="1022" on="1"/>
      </contour>
    </TTGlyph>
    <TTGlyph name="uniFB02" xMin="82" yMin="0" xMax="1335" yMax="1446">
      <contour>
        <pt x="82" y="774" on="1"/>
        <pt x="82" y="1022" on="1"/>
        <pt x="227" y="1022" on="1"/>
        <pt x="228" y="1446" on="0"/>
        <pt x="631" y="1446" on="1"/>
        <pt x="715" y="1446" on="0"/>
        <pt x="782" y="1423" on="1"/>
        <pt x="782" y="1212" on="1"/>
        <pt x="753" y="1220" on="0"/>
        <pt x="727" y="1221" on="1"/>
        <pt x="655" y="1221" on="0"/>
        <pt x="580" y="1094" on="0"/>
        <pt x="580" y="1022" on="1"/>
        <pt x="782" y="1022" on="1"/>
        <pt x="782" y="774" on="1"/>
        <pt x="575" y="774" on="1"/>
        <pt x="575" y="0" on="1"/>
        <pt x="223" y="0" on="1"/>
        <pt x="223" y="774" on="1"/>
      </contour>
      <contour>
        <pt x="983" y="0" on="1"/>
        <pt x="1335" y="0" on="1"/>
        <pt x="1335" y="1411" on="1"/>
        <pt x="983" y="1411" on="1"/>
      </contour>
    </TTGlyph>
    <TTGlyph name="uniFB03" xMin="82" yMin="0" xMax="2105" yMax="1446">
      <component glyphName="i" x="1552" y="0" flags="0x1004"/>
      <component glyphName="f" x="776" y="0" flags="0x1004"/>
      <component glyphName="f" x="0" y="0" flags="0x1004"/>
    </TTGlyph>
    <TTGlyph name="uniFB04" xMin="82" yMin="0" xMax="2111" yMax="1446">
      <component glyphName="l" x="1552" y="0" flags="0x1004"/>
      <component glyphName="f" x="776" y="0" flags="0x1004"/>
      <component glyphName="f" x="0" y="0" flags="0x1004"/>
    </TTGlyph>
    <TTGlyph name="v" xMin="66" yMin="0" xMax="1159" yMax="1022">
      <contour>
        <pt x="66" y="1022" on="1"/>
        <pt x="440" y="1022" on="1"/>
        <pt x="610" y="393" on="1"/>
        <pt x="782" y="1022" on="1"/>
        <pt x="1159" y="1022" on="1"/>
        <pt x="768" y="0" on="1"/>
        <pt x="457" y="0" on="1"/>
      </contour>
    </TTGlyph>
    <TTGlyph name="w" xMin="82" yMin="0" xMax="1679" yMax="1022">
      <contour>
        <pt x="82" y="1022" on="1"/>
        <pt x="455" y="1022" on="1"/>
        <pt x="588" y="406" on="1"/>
        <pt x="750" y="1022" on="1"/>
        <pt x="1012" y="1022" on="1"/>
        <pt x="1174" y="406" on="1"/>
        <pt x="1307" y="1022" on="1"/>
        <pt x="1679" y="1022" on="1"/>
        <pt x="1317" y="0" on="1"/>
        <pt x="1008" y="0" on="1"/>
        <pt x="881" y="459" on="1"/>
        <pt x="754" y="0" on="1"/>
        <pt x="444" y="0" on="1"/>
      </contour>
    </TTGlyph>
    <TTGlyph name="x" xMin="53" yMin="0" xMax="1196" yMax="1022">
      <contour>
        <pt x="53" y="0" on="1"/>
        <pt x="416" y="518" on="1"/>
        <pt x="63" y="1022" on="1"/>
        <pt x="477" y="1022" on="1"/>
        <pt x="625" y="815" on="1"/>
        <pt x="770" y="1022" on="1"/>
        <pt x="1159" y="1022" on="1"/>
        <pt x="809" y="543" on="1"/>
        <pt x="1196" y="0" on="1"/>
        <pt x="780" y="0" on="1"/>
        <pt x="608" y="252" on="1"/>
        <pt x="442" y="0" on="1"/>
      </contour>
    </TTGlyph>
    <TTGlyph name="y" xMin="63" yMin="-403" xMax="1100" yMax="1022">
      <contour>
        <pt x="63" y="1022" on="1"/>
        <pt x="428" y="1022" on="1"/>
        <pt x="584" y="434" on="1"/>
        <pt x="737" y="1022" on="1"/>
        <pt x="1100" y="1022" on="1"/>
        <pt x="727" y="20" on="1"/>
        <pt x="637" y="-211" on="0"/>
        <pt x="463" y="-403" on="0"/>
        <pt x="338" y="-403" on="1"/>
        <pt x="205" y="-403" on="0"/>
        <pt x="115" y="-360" on="1"/>
        <pt x="115" y="-104" on="1"/>
        <pt x="185" y="-129" on="0"/>
        <pt x="250" y="-129" on="1"/>
        <pt x="297" y="-129" on="0"/>
        <pt x="387" y="-16" on="0"/>
        <pt x="420" y="98" on="1"/>
      </contour>
    </TTGlyph>
    <TTGlyph name="yacute" xMin="63" yMin="-403" xMax="1100" yMax="1378">
      <contour>
        <pt x="63" y="1022" on="1"/>
        <pt x="436" y="1022" on="1"/>
        <pt x="584" y="434" on="1"/>
        <pt x="729" y="1022" on="1"/>
        <pt x="1100" y="1022" on="1"/>
        <pt x="727" y="20" on="1"/>
        <pt x="637" y="-211" on="0"/>
        <pt x="463" y="-403" on="0"/>
        <pt x="338" y="-403" on="1"/>
        <pt x="205" y="-403" on="0"/>
        <pt x="115" y="-360" on="1"/>
        <pt x="115" y="-104" on="1"/>
        <pt x="185" y="-129" on="0"/>
        <pt x="250" y="-129" on="1"/>
        <pt x="297" y="-129" on="0"/>
        <pt x="387" y="-16" on="0"/>
        <pt x="420" y="98" on="1"/>
      </contour>
      <contour>
        <pt x="485" y="1139" on="1"/>
        <pt x="612" y="1378" on="1"/>
        <pt x="852" y="1378" on="1"/>
        <pt x="662" y="1139" on="1"/>
      </contour>
    </TTGlyph>
    <TTGlyph name="ydieresis" xMin="63" yMin="-403" xMax="1100" yMax="1362">
      <contour>
        <pt x="63" y="1022" on="1"/>
        <pt x="436" y="1022" on="1"/>
        <pt x="584" y="434" on="1"/>
        <pt x="729" y="1022" on="1"/>
        <pt x="1100" y="1022" on="1"/>
        <pt x="727" y="20" on="1"/>
        <pt x="637" y="-211" on="0"/>
        <pt x="463" y="-403" on="0"/>
        <pt x="338" y="-403" on="1"/>
        <pt x="205" y="-403" on="0"/>
        <pt x="115" y="-360" on="1"/>
        <pt x="115" y="-104" on="1"/>
        <pt x="185" y="-129" on="0"/>
        <pt x="250" y="-129" on="1"/>
        <pt x="297" y="-129" on="0"/>
        <pt x="387" y="-16" on="0"/>
        <pt x="420" y="98" on="1"/>
      </contour>
      <contour>
        <pt x="287" y="1139" on="1"/>
        <pt x="287" y="1362" on="1"/>
        <pt x="532" y="1362" on="1"/>
        <pt x="532" y="1139" on="1"/>
      </contour>
      <contour>
        <pt x="635" y="1139" on="1"/>
        <pt x="635" y="1362" on="1"/>
        <pt x="881" y="1362" on="1"/>
        <pt x="881" y="1139" on="1"/>
      </contour>
    </TTGlyph>
    <TTGlyph name="yen" xMin="37" yMin="0" xMax="1475" yMax="1366">
      <contour>
        <pt x="37" y="1366" on="1"/>
        <pt x="465" y="1366" on="1"/>
        <pt x="756" y="846" on="1"/>
        <pt x="1047" y="1366" on="1"/>
        <pt x="1475" y="1366" on="1"/>
        <pt x="1067" y="772" on="1"/>
        <pt x="1204" y="772" on="1"/>
        <pt x="1204" y="571" on="1"/>
        <pt x="932" y="571" on="1"/>
        <pt x="932" y="416" on="1"/>
        <pt x="1204" y="416" on="1"/>
        <pt x="1204" y="215" on="1"/>
        <pt x="932" y="215" on="1"/>
        <pt x="932" y="0" on="1"/>
        <pt x="580" y="0" on="1"/>
        <pt x="580" y="215" on="1"/>
        <pt x="307" y="215" on="1"/>
        <pt x="307" y="416" on="1"/>
        <pt x="580" y="416" on="1"/>
        <pt x="580" y="571" on="1"/>
        <pt x="307" y="571" on="1"/>
        <pt x="307" y="772" on="1"/>
        <pt x="444" y="772" on="1"/>
      </contour>
    </TTGlyph>
    <TTGlyph name="z" xMin="94" yMin="0" xMax="909" yMax="1022">
      <contour>
        <pt x="94" y="0" on="1"/>
        <pt x="94" y="289" on="1"/>
        <pt x="518" y="750" on="1"/>
        <pt x="104" y="750" on="1"/>
        <pt x="104" y="1022" on="1"/>
        <pt x="909" y="1022" on="1"/>
        <pt x="909" y="737" on="1"/>
        <pt x="528" y="293" on="1"/>
        <pt x="909" y="293" on="1"/>
        <pt x="909" y="0" on="1"/>
      </contour>
    </TTGlyph>
    <TTGlyph name="zero" xMin="119" yMin="-16" xMax="1225" yMax="1384">
      <contour>
        <pt x="119" y="-16" on="0"/>
        <pt x="119" y="1384" on="0"/>
        <pt x="1225" y="1384" on="0"/>
        <pt x="1225" y="-16" on="0"/>
      </contour>
      <contour>
        <pt x="473" y="684" on="1"/>
        <pt x="473" y="455" on="0"/>
        <pt x="584" y="289" on="0"/>
        <pt x="672" y="289" on="1"/>
        <pt x="762" y="289" on="0"/>
        <pt x="874" y="455" on="0"/>
        <pt x="874" y="684" on="1"/>
        <pt x="874" y="1083" on="0"/>
        <pt x="672" y="1083" on="1"/>
        <pt x="473" y="1083" on="0"/>
      </contour>
    </TTGlyph>
</ttFont>
